{
  "asset" : {
    "generator" : "UE Viewer (umodel) build 1590",
    "version" : "2.0"
  },
  "scene" : 0,
  "scenes" : [
    {
      "nodes" : [ 0 ]
    }
  ],
  "nodes" : [
    {
      "name" : "CS_FieldWallsRL_02",
      "mesh" : 0
    }
  ],
  "materials" : [
    {
      "name" : "dummy_material_0",
      "pbrMetallicRoughness" : {
        "baseColorFactor" : [ 0.3, 0.3, 0.3, 1.0 ],
        "metallicFactor" : 0.1,
        "roughnessFactor" : 0.5
      }
    },
    {
      "name" : "dummy_material_1",
      "pbrMetallicRoughness" : {
        "baseColorFactor" : [ 0.9, 0.3, 0.3, 1.0 ],
        "metallicFactor" : 0.1,
        "roughnessFactor" : 0.5
      }
    },
    {
      "name" : "dummy_material_2",
      "pbrMetallicRoughness" : {
        "baseColorFactor" : [ 0.3, 0.9, 0.3, 1.0 ],
        "metallicFactor" : 0.1,
        "roughnessFactor" : 0.5
      }
    },
    {
      "name" : "dummy_material_3",
      "pbrMetallicRoughness" : {
        "baseColorFactor" : [ 0.3, 0.3, 0.9, 1.0 ],
        "metallicFactor" : 0.1,
        "roughnessFactor" : 0.5
      }
    },
    {
      "name" : "dummy_material_4",
      "pbrMetallicRoughness" : {
        "baseColorFactor" : [ 0.9, 0.9, 0.9, 1.0 ],
        "metallicFactor" : 0.1,
        "roughnessFactor" : 0.5
      }
    },
    {
      "name" : "dummy_material_5",
      "pbrMetallicRoughness" : {
        "baseColorFactor" : [ 0.9, 0.9, 0.3, 1.0 ],
        "metallicFactor" : 0.1,
        "roughnessFactor" : 0.5
      }
    },
    {
      "name" : "dummy_material_6",
      "pbrMetallicRoughness" : {
        "baseColorFactor" : [ 0.9, 0.3, 0.9, 1.0 ],
        "metallicFactor" : 0.1,
        "roughnessFactor" : 0.5
      }
    },
    {
      "name" : "dummy_material_7",
      "pbrMetallicRoughness" : {
        "baseColorFactor" : [ 0.3, 0.9, 0.9, 1.0 ],
        "metallicFactor" : 0.1,
        "roughnessFactor" : 0.5
      }
    },
    {
      "name" : "dummy_material_8",
      "pbrMetallicRoughness" : {
        "baseColorFactor" : [ 1, 0.3, 0.3, 1.0 ],
        "metallicFactor" : 0.1,
        "roughnessFactor" : 0.5
      }
    },
    {
      "name" : "dummy_material_9",
      "pbrMetallicRoughness" : {
        "baseColorFactor" : [ 0.6, 0.3, 0.3, 1.0 ],
        "metallicFactor" : 0.1,
        "roughnessFactor" : 0.5
      }
    }
  ],
  "meshes" : [
    {
      "primitives" : [
        {
          "attributes" : {
            "POSITION" : 1,
            "NORMAL" : 2,
            "TANGENT" : 3,
            "TEXCOORD_0" : 4,
            "TEXCOORD_1" : 5
          },
          "indices" : 0,
          "material" : 0
        },
        {
          "attributes" : {
            "POSITION" : 7,
            "NORMAL" : 8,
            "TANGENT" : 9,
            "TEXCOORD_0" : 10,
            "TEXCOORD_1" : 11
          },
          "indices" : 6,
          "material" : 1
        },
        {
          "attributes" : {
            "POSITION" : 13,
            "NORMAL" : 14,
            "TANGENT" : 15,
            "TEXCOORD_0" : 16,
            "TEXCOORD_1" : 17
          },
          "indices" : 12,
          "material" : 2
        },
        {
          "attributes" : {
            "POSITION" : 19,
            "NORMAL" : 20,
            "TANGENT" : 21,
            "TEXCOORD_0" : 22,
            "TEXCOORD_1" : 23
          },
          "indices" : 18,
          "material" : 3
        },
        {
          "attributes" : {
            "POSITION" : 25,
            "NORMAL" : 26,
            "TANGENT" : 27,
            "TEXCOORD_0" : 28,
            "TEXCOORD_1" : 29
          },
          "indices" : 24,
          "material" : 4
        },
        {
          "attributes" : {
            "POSITION" : 31,
            "NORMAL" : 32,
            "TANGENT" : 33,
            "TEXCOORD_0" : 34,
            "TEXCOORD_1" : 35
          },
          "indices" : 30,
          "material" : 5
        },
        {
          "attributes" : {
            "POSITION" : 37,
            "NORMAL" : 38,
            "TANGENT" : 39,
            "TEXCOORD_0" : 40,
            "TEXCOORD_1" : 41
          },
          "indices" : 36,
          "material" : 6
        },
        {
          "attributes" : {
            "POSITION" : 43,
            "NORMAL" : 44,
            "TANGENT" : 45,
            "TEXCOORD_0" : 46,
            "TEXCOORD_1" : 47
          },
          "indices" : 42,
          "material" : 7
        },
        {
          "attributes" : {
            "POSITION" : 49,
            "NORMAL" : 50,
            "TANGENT" : 51,
            "TEXCOORD_0" : 52,
            "TEXCOORD_1" : 53
          },
          "indices" : 48,
          "material" : 8
        },
        {
          "attributes" : {
            "POSITION" : 55,
            "NORMAL" : 56,
            "TANGENT" : 57,
            "TEXCOORD_0" : 58,
            "TEXCOORD_1" : 59
          },
          "indices" : 54,
          "material" : 9
        }
      ],
      "name" : "CS_FieldWallsRL_02"
    }
  ],
  "buffers" : [
    {
      "uri" : "CS_FieldWallsRL_02.bin",
      "byteLength" : 36936
    }
  ],
  "bufferViews" : [
    {
      "buffer" : 0,
      "byteOffset" : 0,
      "byteLength" : 144
    },
    {
      "buffer" : 0,
      "byteOffset" : 144,
      "byteLength" : 288
    },
    {
      "buffer" : 0,
      "byteOffset" : 432,
      "byteLength" : 288
    },
    {
      "buffer" : 0,
      "byteOffset" : 720,
      "byteLength" : 384
    },
    {
      "buffer" : 0,
      "byteOffset" : 1104,
      "byteLength" : 192
    },
    {
      "buffer" : 0,
      "byteOffset" : 1296,
      "byteLength" : 192
    },
    {
      "buffer" : 0,
      "byteOffset" : 1488,
      "byteLength" : 192
    },
    {
      "buffer" : 0,
      "byteOffset" : 1680,
      "byteLength" : 360
    },
    {
      "buffer" : 0,
      "byteOffset" : 2040,
      "byteLength" : 360
    },
    {
      "buffer" : 0,
      "byteOffset" : 2400,
      "byteLength" : 480
    },
    {
      "buffer" : 0,
      "byteOffset" : 2880,
      "byteLength" : 240
    },
    {
      "buffer" : 0,
      "byteOffset" : 3120,
      "byteLength" : 240
    },
    {
      "buffer" : 0,
      "byteOffset" : 3360,
      "byteLength" : 300
    },
    {
      "buffer" : 0,
      "byteOffset" : 3660,
      "byteLength" : 504
    },
    {
      "buffer" : 0,
      "byteOffset" : 4164,
      "byteLength" : 504
    },
    {
      "buffer" : 0,
      "byteOffset" : 4668,
      "byteLength" : 672
    },
    {
      "buffer" : 0,
      "byteOffset" : 5340,
      "byteLength" : 336
    },
    {
      "buffer" : 0,
      "byteOffset" : 5676,
      "byteLength" : 336
    },
    {
      "buffer" : 0,
      "byteOffset" : 6012,
      "byteLength" : 540
    },
    {
      "buffer" : 0,
      "byteOffset" : 6552,
      "byteLength" : 792
    },
    {
      "buffer" : 0,
      "byteOffset" : 7344,
      "byteLength" : 792
    },
    {
      "buffer" : 0,
      "byteOffset" : 8136,
      "byteLength" : 1056
    },
    {
      "buffer" : 0,
      "byteOffset" : 9192,
      "byteLength" : 528
    },
    {
      "buffer" : 0,
      "byteOffset" : 9720,
      "byteLength" : 528
    },
    {
      "buffer" : 0,
      "byteOffset" : 10248,
      "byteLength" : 576
    },
    {
      "buffer" : 0,
      "byteOffset" : 10824,
      "byteLength" : 960
    },
    {
      "buffer" : 0,
      "byteOffset" : 11784,
      "byteLength" : 960
    },
    {
      "buffer" : 0,
      "byteOffset" : 12744,
      "byteLength" : 1280
    },
    {
      "buffer" : 0,
      "byteOffset" : 14024,
      "byteLength" : 640
    },
    {
      "buffer" : 0,
      "byteOffset" : 14664,
      "byteLength" : 640
    },
    {
      "buffer" : 0,
      "byteOffset" : 15304,
      "byteLength" : 576
    },
    {
      "buffer" : 0,
      "byteOffset" : 15880,
      "byteLength" : 960
    },
    {
      "buffer" : 0,
      "byteOffset" : 16840,
      "byteLength" : 960
    },
    {
      "buffer" : 0,
      "byteOffset" : 17800,
      "byteLength" : 1280
    },
    {
      "buffer" : 0,
      "byteOffset" : 19080,
      "byteLength" : 640
    },
    {
      "buffer" : 0,
      "byteOffset" : 19720,
      "byteLength" : 640
    },
    {
      "buffer" : 0,
      "byteOffset" : 20360,
      "byteLength" : 576
    },
    {
      "buffer" : 0,
      "byteOffset" : 20936,
      "byteLength" : 840
    },
    {
      "buffer" : 0,
      "byteOffset" : 21776,
      "byteLength" : 840
    },
    {
      "buffer" : 0,
      "byteOffset" : 22616,
      "byteLength" : 1120
    },
    {
      "buffer" : 0,
      "byteOffset" : 23736,
      "byteLength" : 560
    },
    {
      "buffer" : 0,
      "byteOffset" : 24296,
      "byteLength" : 560
    },
    {
      "buffer" : 0,
      "byteOffset" : 24856,
      "byteLength" : 576
    },
    {
      "buffer" : 0,
      "byteOffset" : 25432,
      "byteLength" : 840
    },
    {
      "buffer" : 0,
      "byteOffset" : 26272,
      "byteLength" : 840
    },
    {
      "buffer" : 0,
      "byteOffset" : 27112,
      "byteLength" : 1120
    },
    {
      "buffer" : 0,
      "byteOffset" : 28232,
      "byteLength" : 560
    },
    {
      "buffer" : 0,
      "byteOffset" : 28792,
      "byteLength" : 560
    },
    {
      "buffer" : 0,
      "byteOffset" : 29352,
      "byteLength" : 384
    },
    {
      "buffer" : 0,
      "byteOffset" : 29736,
      "byteLength" : 600
    },
    {
      "buffer" : 0,
      "byteOffset" : 30336,
      "byteLength" : 600
    },
    {
      "buffer" : 0,
      "byteOffset" : 30936,
      "byteLength" : 800
    },
    {
      "buffer" : 0,
      "byteOffset" : 31736,
      "byteLength" : 400
    },
    {
      "buffer" : 0,
      "byteOffset" : 32136,
      "byteLength" : 400
    },
    {
      "buffer" : 0,
      "byteOffset" : 32536,
      "byteLength" : 480
    },
    {
      "buffer" : 0,
      "byteOffset" : 33016,
      "byteLength" : 840
    },
    {
      "buffer" : 0,
      "byteOffset" : 33856,
      "byteLength" : 840
    },
    {
      "buffer" : 0,
      "byteOffset" : 34696,
      "byteLength" : 1120
    },
    {
      "buffer" : 0,
      "byteOffset" : 35816,
      "byteLength" : 560
    },
    {
      "buffer" : 0,
      "byteOffset" : 36376,
      "byteLength" : 560
    }
  ],
  "accessors" : [
    {
      "bufferView" : 0,
      "componentType" : 5123,
      "count" : 72,
      "type" : "SCALAR"
    },
    {
      "bufferView" : 1,
      "min" : [ -20.0719, 1.59953, -51.2172 ],
      "max" : [ 20.0563, 2.55985, -51.2172 ],
      "componentType" : 5126,
      "count" : 24,
      "type" : "VEC3"
    },
    {
      "bufferView" : 2,
      "componentType" : 5126,
      "count" : 24,
      "type" : "VEC3"
    },
    {
      "bufferView" : 3,
      "componentType" : 5126,
      "count" : 24,
      "type" : "VEC4"
    },
    {
      "bufferView" : 4,
      "componentType" : 5126,
      "count" : 24,
      "type" : "VEC2"
    },
    {
      "bufferView" : 5,
      "componentType" : 5126,
      "count" : 24,
      "type" : "VEC2"
    },
    {
      "bufferView" : 6,
      "componentType" : 5123,
      "count" : 96,
      "type" : "SCALAR"
    },
    {
      "bufferView" : 7,
      "min" : [ -23.9376, 1.59953, -51.2172 ],
      "max" : [ 23.9243, 2.55985, -51.2172 ],
      "componentType" : 5126,
      "count" : 30,
      "type" : "VEC3"
    },
    {
      "bufferView" : 8,
      "componentType" : 5126,
      "count" : 30,
      "type" : "VEC3"
    },
    {
      "bufferView" : 9,
      "componentType" : 5126,
      "count" : 30,
      "type" : "VEC4"
    },
    {
      "bufferView" : 10,
      "componentType" : 5126,
      "count" : 30,
      "type" : "VEC2"
    },
    {
      "bufferView" : 11,
      "componentType" : 5126,
      "count" : 30,
      "type" : "VEC2"
    },
    {
      "bufferView" : 12,
      "componentType" : 5123,
      "count" : 150,
      "type" : "SCALAR"
    },
    {
      "bufferView" : 13,
      "min" : [ -27.8066, 1.54629, -51.2172 ],
      "max" : [ 27.8132, 2.55985, -50.939 ],
      "componentType" : 5126,
      "count" : 42,
      "type" : "VEC3"
    },
    {
      "bufferView" : 14,
      "componentType" : 5126,
      "count" : 42,
      "type" : "VEC3"
    },
    {
      "bufferView" : 15,
      "componentType" : 5126,
      "count" : 42,
      "type" : "VEC4"
    },
    {
      "bufferView" : 16,
      "componentType" : 5126,
      "count" : 42,
      "type" : "VEC2"
    },
    {
      "bufferView" : 17,
      "componentType" : 5126,
      "count" : 42,
      "type" : "VEC2"
    },
    {
      "bufferView" : 18,
      "componentType" : 5123,
      "count" : 270,
      "type" : "SCALAR"
    },
    {
      "bufferView" : 19,
      "min" : [ -31.6815, 1.5285, -50.9671 ],
      "max" : [ 31.6949, 2.55978, -48.792 ],
      "componentType" : 5126,
      "count" : 66,
      "type" : "VEC3"
    },
    {
      "bufferView" : 20,
      "componentType" : 5126,
      "count" : 66,
      "type" : "VEC3"
    },
    {
      "bufferView" : 21,
      "componentType" : 5126,
      "count" : 66,
      "type" : "VEC4"
    },
    {
      "bufferView" : 22,
      "componentType" : 5126,
      "count" : 66,
      "type" : "VEC2"
    },
    {
      "bufferView" : 23,
      "componentType" : 5126,
      "count" : 66,
      "type" : "VEC2"
    },
    {
      "bufferView" : 24,
      "componentType" : 5123,
      "count" : 288,
      "type" : "SCALAR"
    },
    {
      "bufferView" : 25,
      "min" : [ -35.0475, 1.54871, -48.9513 ],
      "max" : [ 35.0475, 2.55905, -45.4736 ],
      "componentType" : 5126,
      "count" : 80,
      "type" : "VEC3"
    },
    {
      "bufferView" : 26,
      "componentType" : 5126,
      "count" : 80,
      "type" : "VEC3"
    },
    {
      "bufferView" : 27,
      "componentType" : 5126,
      "count" : 80,
      "type" : "VEC4"
    },
    {
      "bufferView" : 28,
      "componentType" : 5126,
      "count" : 80,
      "type" : "VEC2"
    },
    {
      "bufferView" : 29,
      "componentType" : 5126,
      "count" : 80,
      "type" : "VEC2"
    },
    {
      "bufferView" : 30,
      "componentType" : 5123,
      "count" : 288,
      "type" : "SCALAR"
    },
    {
      "bufferView" : 31,
      "min" : [ -38.5772, 1.5554, -45.3181 ],
      "max" : [ 38.5528, 2.55899, -41.9309 ],
      "componentType" : 5126,
      "count" : 80,
      "type" : "VEC3"
    },
    {
      "bufferView" : 32,
      "componentType" : 5126,
      "count" : 80,
      "type" : "VEC3"
    },
    {
      "bufferView" : 33,
      "componentType" : 5126,
      "count" : 80,
      "type" : "VEC4"
    },
    {
      "bufferView" : 34,
      "componentType" : 5126,
      "count" : 80,
      "type" : "VEC2"
    },
    {
      "bufferView" : 35,
      "componentType" : 5126,
      "count" : 80,
      "type" : "VEC2"
    },
    {
      "bufferView" : 36,
      "componentType" : 5123,
      "count" : 288,
      "type" : "SCALAR"
    },
    {
      "bufferView" : 37,
      "min" : [ -40.7232, 1.55539, -42.0967 ],
      "max" : [ 40.7173, 2.55899, -38.0184 ],
      "componentType" : 5126,
      "count" : 70,
      "type" : "VEC3"
    },
    {
      "bufferView" : 38,
      "componentType" : 5126,
      "count" : 70,
      "type" : "VEC3"
    },
    {
      "bufferView" : 39,
      "componentType" : 5126,
      "count" : 70,
      "type" : "VEC4"
    },
    {
      "bufferView" : 40,
      "componentType" : 5126,
      "count" : 70,
      "type" : "VEC2"
    },
    {
      "bufferView" : 41,
      "componentType" : 5126,
      "count" : 70,
      "type" : "VEC2"
    },
    {
      "bufferView" : 42,
      "componentType" : 5123,
      "count" : 288,
      "type" : "SCALAR"
    },
    {
      "bufferView" : 43,
      "min" : [ -40.9772, 1.55539, -38.0894 ],
      "max" : [ 40.9772, 2.55899, -33.4912 ],
      "componentType" : 5126,
      "count" : 70,
      "type" : "VEC3"
    },
    {
      "bufferView" : 44,
      "componentType" : 5126,
      "count" : 70,
      "type" : "VEC3"
    },
    {
      "bufferView" : 45,
      "componentType" : 5126,
      "count" : 70,
      "type" : "VEC4"
    },
    {
      "bufferView" : 46,
      "componentType" : 5126,
      "count" : 70,
      "type" : "VEC2"
    },
    {
      "bufferView" : 47,
      "componentType" : 5126,
      "count" : 70,
      "type" : "VEC2"
    },
    {
      "bufferView" : 48,
      "componentType" : 5123,
      "count" : 192,
      "type" : "SCALAR"
    },
    {
      "bufferView" : 49,
      "min" : [ -40.9772, 1.5554, -33.5062 ],
      "max" : [ 40.9772, 2.55899, -28.9136 ],
      "componentType" : 5126,
      "count" : 50,
      "type" : "VEC3"
    },
    {
      "bufferView" : 50,
      "componentType" : 5126,
      "count" : 50,
      "type" : "VEC3"
    },
    {
      "bufferView" : 51,
      "componentType" : 5126,
      "count" : 50,
      "type" : "VEC4"
    },
    {
      "bufferView" : 52,
      "componentType" : 5126,
      "count" : 50,
      "type" : "VEC2"
    },
    {
      "bufferView" : 53,
      "componentType" : 5126,
      "count" : 50,
      "type" : "VEC2"
    },
    {
      "bufferView" : 54,
      "componentType" : 5123,
      "count" : 240,
      "type" : "SCALAR"
    },
    {
      "bufferView" : 55,
      "min" : [ -40.9772, 1.5554, -28.9279 ],
      "max" : [ 40.9772, 2.55899, -24.379 ],
      "componentType" : 5126,
      "count" : 70,
      "type" : "VEC3"
    },
    {
      "bufferView" : 56,
      "componentType" : 5126,
      "count" : 70,
      "type" : "VEC3"
    },
    {
      "bufferView" : 57,
      "componentType" : 5126,
      "count" : 70,
      "type" : "VEC4"
    },
    {
      "bufferView" : 58,
      "componentType" : 5126,
      "count" : 70,
      "type" : "VEC2"
    },
    {
      "bufferView" : 59,
      "componentType" : 5126,
      "count" : 70,
      "type" : "VEC2"
    }
  ]
}
