{
  "asset" : {
    "generator" : "UE Viewer (umodel) build 1590",
    "version" : "2.0"
  },
  "scene" : 0,
  "scenes" : [
    {
      "nodes" : [ 0 ]
    }
  ],
  "nodes" : [
    {
      "name" : "CS_FieldWallsGlass_01",
      "mesh" : 0
    }
  ],
  "materials" : [
    {
      "name" : "dummy_material_0",
      "pbrMetallicRoughness" : {
        "baseColorFactor" : [ 0.3, 0.3, 0.3, 1.0 ],
        "metallicFactor" : 0.1,
        "roughnessFactor" : 0.5
      }
    },
    {
      "name" : "dummy_material_1",
      "pbrMetallicRoughness" : {
        "baseColorFactor" : [ 0.9, 0.3, 0.3, 1.0 ],
        "metallicFactor" : 0.1,
        "roughnessFactor" : 0.5
      }
    }
  ],
  "meshes" : [
    {
      "primitives" : [
        {
          "attributes" : {
            "POSITION" : 1,
            "NORMAL" : 2,
            "TANGENT" : 3,
            "TEXCOORD_0" : 4,
            "TEXCOORD_1" : 5
          },
          "indices" : 0,
          "material" : 0
        },
        {
          "attributes" : {
            "POSITION" : 7,
            "NORMAL" : 8,
            "TANGENT" : 9,
            "TEXCOORD_0" : 10,
            "TEXCOORD_1" : 11
          },
          "indices" : 6,
          "material" : 1
        }
      ],
      "name" : "CS_FieldWallsGlass_01"
    }
  ],
  "buffers" : [
    {
      "uri" : "CS_FieldWallsGlass_01.bin",
      "byteLength" : 28160
    }
  ],
  "bufferViews" : [
    {
      "buffer" : 0,
      "byteOffset" : 0,
      "byteLength" : 1424
    },
    {
      "buffer" : 0,
      "byteOffset" : 1424,
      "byteLength" : 1956
    },
    {
      "buffer" : 0,
      "byteOffset" : 3380,
      "byteLength" : 1956
    },
    {
      "buffer" : 0,
      "byteOffset" : 5336,
      "byteLength" : 2608
    },
    {
      "buffer" : 0,
      "byteOffset" : 7944,
      "byteLength" : 1304
    },
    {
      "buffer" : 0,
      "byteOffset" : 9248,
      "byteLength" : 1304
    },
    {
      "buffer" : 0,
      "byteOffset" : 10552,
      "byteLength" : 2376
    },
    {
      "buffer" : 0,
      "byteOffset" : 12928,
      "byteLength" : 3264
    },
    {
      "buffer" : 0,
      "byteOffset" : 16192,
      "byteLength" : 3264
    },
    {
      "buffer" : 0,
      "byteOffset" : 19456,
      "byteLength" : 4352
    },
    {
      "buffer" : 0,
      "byteOffset" : 23808,
      "byteLength" : 2176
    },
    {
      "buffer" : 0,
      "byteOffset" : 25984,
      "byteLength" : 2176
    }
  ],
  "accessors" : [
    {
      "bufferView" : 0,
      "componentType" : 5123,
      "count" : 711,
      "type" : "SCALAR"
    },
    {
      "bufferView" : 1,
      "min" : [ 0, 0.96, -51.2 ],
      "max" : [ 40.9611, 8.1788, -0.210984 ],
      "componentType" : 5126,
      "count" : 163,
      "type" : "VEC3"
    },
    {
      "bufferView" : 2,
      "componentType" : 5126,
      "count" : 163,
      "type" : "VEC3"
    },
    {
      "bufferView" : 3,
      "componentType" : 5126,
      "count" : 163,
      "type" : "VEC4"
    },
    {
      "bufferView" : 4,
      "componentType" : 5126,
      "count" : 163,
      "type" : "VEC2"
    },
    {
      "bufferView" : 5,
      "componentType" : 5126,
      "count" : 163,
      "type" : "VEC2"
    },
    {
      "bufferView" : 6,
      "componentType" : 5123,
      "count" : 1188,
      "type" : "SCALAR"
    },
    {
      "bufferView" : 7,
      "min" : [ 16.1848, 1.4476, -51.2 ],
      "max" : [ 41.045, 2.56032, -0.0974365 ],
      "componentType" : 5126,
      "count" : 272,
      "type" : "VEC3"
    },
    {
      "bufferView" : 8,
      "componentType" : 5126,
      "count" : 272,
      "type" : "VEC3"
    },
    {
      "bufferView" : 9,
      "componentType" : 5126,
      "count" : 272,
      "type" : "VEC4"
    },
    {
      "bufferView" : 10,
      "componentType" : 5126,
      "count" : 272,
      "type" : "VEC2"
    },
    {
      "bufferView" : 11,
      "componentType" : 5126,
      "count" : 272,
      "type" : "VEC2"
    }
  ]
}
