{
  "asset" : {
    "generator" : "UE Viewer (umodel) build 1590",
    "version" : "2.0"
  },
  "scene" : 0,
  "scenes" : [
    {
      "nodes" : [ 0 ]
    }
  ],
  "nodes" : [
    {
      "name" : "CS_FieldWalls_01",
      "mesh" : 0
    }
  ],
  "materials" : [
    {
      "name" : "dummy_material_0",
      "pbrMetallicRoughness" : {
        "baseColorFactor" : [ 0.3, 0.3, 0.3, 1.0 ],
        "metallicFactor" : 0.1,
        "roughnessFactor" : 0.5
      }
    },
    {
      "name" : "dummy_material_1",
      "pbrMetallicRoughness" : {
        "baseColorFactor" : [ 0.9, 0.3, 0.3, 1.0 ],
        "metallicFactor" : 0.1,
        "roughnessFactor" : 0.5
      }
    },
    {
      "name" : "dummy_material_2",
      "pbrMetallicRoughness" : {
        "baseColorFactor" : [ 0.3, 0.9, 0.3, 1.0 ],
        "metallicFactor" : 0.1,
        "roughnessFactor" : 0.5
      }
    },
    {
      "name" : "dummy_material_3",
      "pbrMetallicRoughness" : {
        "baseColorFactor" : [ 0.3, 0.3, 0.9, 1.0 ],
        "metallicFactor" : 0.1,
        "roughnessFactor" : 0.5
      }
    },
    {
      "name" : "dummy_material_4",
      "pbrMetallicRoughness" : {
        "baseColorFactor" : [ 0.9, 0.9, 0.9, 1.0 ],
        "metallicFactor" : 0.1,
        "roughnessFactor" : 0.5
      }
    },
    {
      "name" : "dummy_material_5",
      "pbrMetallicRoughness" : {
        "baseColorFactor" : [ 0.9, 0.9, 0.3, 1.0 ],
        "metallicFactor" : 0.1,
        "roughnessFactor" : 0.5
      }
    }
  ],
  "meshes" : [
    {
      "primitives" : [
        {
          "attributes" : {
            "POSITION" : 1,
            "NORMAL" : 2,
            "TANGENT" : 3,
            "COLOR_0" : 4,
            "TEXCOORD_0" : 5,
            "TEXCOORD_1" : 6
          },
          "indices" : 0,
          "material" : 0
        },
        {
          "attributes" : {
            "POSITION" : 8,
            "NORMAL" : 9,
            "TANGENT" : 10,
            "COLOR_0" : 11,
            "TEXCOORD_0" : 12,
            "TEXCOORD_1" : 13
          },
          "indices" : 7,
          "material" : 1
        },
        {
          "attributes" : {
            "POSITION" : 15,
            "NORMAL" : 16,
            "TANGENT" : 17,
            "COLOR_0" : 18,
            "TEXCOORD_0" : 19,
            "TEXCOORD_1" : 20
          },
          "indices" : 14,
          "material" : 2
        },
        {
          "attributes" : {
            "POSITION" : 22,
            "NORMAL" : 23,
            "TANGENT" : 24,
            "COLOR_0" : 25,
            "TEXCOORD_0" : 26,
            "TEXCOORD_1" : 27
          },
          "indices" : 21,
          "material" : 3
        },
        {
          "attributes" : {
            "POSITION" : 29,
            "NORMAL" : 30,
            "TANGENT" : 31,
            "COLOR_0" : 32,
            "TEXCOORD_0" : 33,
            "TEXCOORD_1" : 34
          },
          "indices" : 28,
          "material" : 4
        },
        {
          "attributes" : {
            "POSITION" : 36,
            "NORMAL" : 37,
            "TANGENT" : 38,
            "COLOR_0" : 39,
            "TEXCOORD_0" : 40,
            "TEXCOORD_1" : 41
          },
          "indices" : 35,
          "material" : 5
        }
      ],
      "name" : "CS_FieldWalls_01"
    }
  ],
  "buffers" : [
    {
      "uri" : "CS_FieldWalls_01.bin",
      "byteLength" : 1017960
    }
  ],
  "bufferViews" : [
    {
      "buffer" : 0,
      "byteOffset" : 0,
      "byteLength" : 88296
    },
    {
      "buffer" : 0,
      "byteOffset" : 88296,
      "byteLength" : 130440
    },
    {
      "buffer" : 0,
      "byteOffset" : 218736,
      "byteLength" : 130440
    },
    {
      "buffer" : 0,
      "byteOffset" : 349176,
      "byteLength" : 173920
    },
    {
      "buffer" : 0,
      "byteOffset" : 523096,
      "byteLength" : 43480
    },
    {
      "buffer" : 0,
      "byteOffset" : 566576,
      "byteLength" : 86960
    },
    {
      "buffer" : 0,
      "byteOffset" : 653536,
      "byteLength" : 86960
    },
    {
      "buffer" : 0,
      "byteOffset" : 740496,
      "byteLength" : 8784
    },
    {
      "buffer" : 0,
      "byteOffset" : 749280,
      "byteLength" : 12288
    },
    {
      "buffer" : 0,
      "byteOffset" : 761568,
      "byteLength" : 12288
    },
    {
      "buffer" : 0,
      "byteOffset" : 773856,
      "byteLength" : 16384
    },
    {
      "buffer" : 0,
      "byteOffset" : 790240,
      "byteLength" : 4096
    },
    {
      "buffer" : 0,
      "byteOffset" : 794336,
      "byteLength" : 8192
    },
    {
      "buffer" : 0,
      "byteOffset" : 802528,
      "byteLength" : 8192
    },
    {
      "buffer" : 0,
      "byteOffset" : 810720,
      "byteLength" : 1488
    },
    {
      "buffer" : 0,
      "byteOffset" : 812208,
      "byteLength" : 2496
    },
    {
      "buffer" : 0,
      "byteOffset" : 814704,
      "byteLength" : 2496
    },
    {
      "buffer" : 0,
      "byteOffset" : 817200,
      "byteLength" : 3328
    },
    {
      "buffer" : 0,
      "byteOffset" : 820528,
      "byteLength" : 832
    },
    {
      "buffer" : 0,
      "byteOffset" : 821360,
      "byteLength" : 1664
    },
    {
      "buffer" : 0,
      "byteOffset" : 823024,
      "byteLength" : 1664
    },
    {
      "buffer" : 0,
      "byteOffset" : 824688,
      "byteLength" : 11160
    },
    {
      "buffer" : 0,
      "byteOffset" : 835848,
      "byteLength" : 16272
    },
    {
      "buffer" : 0,
      "byteOffset" : 852120,
      "byteLength" : 16272
    },
    {
      "buffer" : 0,
      "byteOffset" : 868392,
      "byteLength" : 21696
    },
    {
      "buffer" : 0,
      "byteOffset" : 890088,
      "byteLength" : 5424
    },
    {
      "buffer" : 0,
      "byteOffset" : 895512,
      "byteLength" : 10848
    },
    {
      "buffer" : 0,
      "byteOffset" : 906360,
      "byteLength" : 10848
    },
    {
      "buffer" : 0,
      "byteOffset" : 917208,
      "byteLength" : 2736
    },
    {
      "buffer" : 0,
      "byteOffset" : 919944,
      "byteLength" : 5760
    },
    {
      "buffer" : 0,
      "byteOffset" : 925704,
      "byteLength" : 5760
    },
    {
      "buffer" : 0,
      "byteOffset" : 931464,
      "byteLength" : 7680
    },
    {
      "buffer" : 0,
      "byteOffset" : 939144,
      "byteLength" : 1920
    },
    {
      "buffer" : 0,
      "byteOffset" : 941064,
      "byteLength" : 3840
    },
    {
      "buffer" : 0,
      "byteOffset" : 944904,
      "byteLength" : 3840
    },
    {
      "buffer" : 0,
      "byteOffset" : 948744,
      "byteLength" : 5856
    },
    {
      "buffer" : 0,
      "byteOffset" : 954600,
      "byteLength" : 12672
    },
    {
      "buffer" : 0,
      "byteOffset" : 967272,
      "byteLength" : 12672
    },
    {
      "buffer" : 0,
      "byteOffset" : 979944,
      "byteLength" : 16896
    },
    {
      "buffer" : 0,
      "byteOffset" : 996840,
      "byteLength" : 4224
    },
    {
      "buffer" : 0,
      "byteOffset" : 1001064,
      "byteLength" : 8448
    },
    {
      "buffer" : 0,
      "byteOffset" : 1009512,
      "byteLength" : 8448
    }
  ],
  "accessors" : [
    {
      "bufferView" : 0,
      "componentType" : 5123,
      "count" : 44148,
      "type" : "SCALAR"
    },
    {
      "bufferView" : 1,
      "min" : [ -41.0175, -0.119887, -51.3998 ],
      "max" : [ 41.0175, 3.37841, 51.3998 ],
      "componentType" : 5126,
      "count" : 10870,
      "type" : "VEC3"
    },
    {
      "bufferView" : 2,
      "componentType" : 5126,
      "count" : 10870,
      "type" : "VEC3"
    },
    {
      "bufferView" : 3,
      "componentType" : 5126,
      "count" : 10870,
      "type" : "VEC4"
    },
    {
      "bufferView" : 4,
      "normalized" : true,
      "componentType" : 5121,
      "count" : 10870,
      "type" : "VEC4"
    },
    {
      "bufferView" : 5,
      "componentType" : 5126,
      "count" : 10870,
      "type" : "VEC2"
    },
    {
      "bufferView" : 6,
      "componentType" : 5126,
      "count" : 10870,
      "type" : "VEC2"
    },
    {
      "bufferView" : 7,
      "componentType" : 5123,
      "count" : 4392,
      "type" : "SCALAR"
    },
    {
      "bufferView" : 8,
      "min" : [ -40.9743, 2.76271, -51.2143 ],
      "max" : [ 40.9743, 3.07183, 51.2143 ],
      "componentType" : 5126,
      "count" : 1024,
      "type" : "VEC3"
    },
    {
      "bufferView" : 9,
      "componentType" : 5126,
      "count" : 1024,
      "type" : "VEC3"
    },
    {
      "bufferView" : 10,
      "componentType" : 5126,
      "count" : 1024,
      "type" : "VEC4"
    },
    {
      "bufferView" : 11,
      "normalized" : true,
      "componentType" : 5121,
      "count" : 1024,
      "type" : "VEC4"
    },
    {
      "bufferView" : 12,
      "componentType" : 5126,
      "count" : 1024,
      "type" : "VEC2"
    },
    {
      "bufferView" : 13,
      "componentType" : 5126,
      "count" : 1024,
      "type" : "VEC2"
    },
    {
      "bufferView" : 14,
      "componentType" : 5123,
      "count" : 744,
      "type" : "SCALAR"
    },
    {
      "bufferView" : 15,
      "min" : [ -39.235, -0.006545, -50.1279 ],
      "max" : [ 39.235, 0.133709, 50.1279 ],
      "componentType" : 5126,
      "count" : 208,
      "type" : "VEC3"
    },
    {
      "bufferView" : 16,
      "componentType" : 5126,
      "count" : 208,
      "type" : "VEC3"
    },
    {
      "bufferView" : 17,
      "componentType" : 5126,
      "count" : 208,
      "type" : "VEC4"
    },
    {
      "bufferView" : 18,
      "normalized" : true,
      "componentType" : 5121,
      "count" : 208,
      "type" : "VEC4"
    },
    {
      "bufferView" : 19,
      "componentType" : 5126,
      "count" : 208,
      "type" : "VEC2"
    },
    {
      "bufferView" : 20,
      "componentType" : 5126,
      "count" : 208,
      "type" : "VEC2"
    },
    {
      "bufferView" : 21,
      "componentType" : 5123,
      "count" : 5580,
      "type" : "SCALAR"
    },
    {
      "bufferView" : 22,
      "min" : [ -39.2446, -0.00654503, -51.1917 ],
      "max" : [ 39.2446, 1.46305, 51.1917 ],
      "componentType" : 5126,
      "count" : 1356,
      "type" : "VEC3"
    },
    {
      "bufferView" : 23,
      "componentType" : 5126,
      "count" : 1356,
      "type" : "VEC3"
    },
    {
      "bufferView" : 24,
      "componentType" : 5126,
      "count" : 1356,
      "type" : "VEC4"
    },
    {
      "bufferView" : 25,
      "normalized" : true,
      "componentType" : 5121,
      "count" : 1356,
      "type" : "VEC4"
    },
    {
      "bufferView" : 26,
      "componentType" : 5126,
      "count" : 1356,
      "type" : "VEC2"
    },
    {
      "bufferView" : 27,
      "componentType" : 5126,
      "count" : 1356,
      "type" : "VEC2"
    },
    {
      "bufferView" : 28,
      "componentType" : 5123,
      "count" : 1368,
      "type" : "SCALAR"
    },
    {
      "bufferView" : 29,
      "min" : [ -41.1598, 3.30663, -51.3998 ],
      "max" : [ 41.1598, 3.37841, 51.3998 ],
      "componentType" : 5126,
      "count" : 480,
      "type" : "VEC3"
    },
    {
      "bufferView" : 30,
      "componentType" : 5126,
      "count" : 480,
      "type" : "VEC3"
    },
    {
      "bufferView" : 31,
      "componentType" : 5126,
      "count" : 480,
      "type" : "VEC4"
    },
    {
      "bufferView" : 32,
      "normalized" : true,
      "componentType" : 5121,
      "count" : 480,
      "type" : "VEC4"
    },
    {
      "bufferView" : 33,
      "componentType" : 5126,
      "count" : 480,
      "type" : "VEC2"
    },
    {
      "bufferView" : 34,
      "componentType" : 5126,
      "count" : 480,
      "type" : "VEC2"
    },
    {
      "bufferView" : 35,
      "componentType" : 5123,
      "count" : 2928,
      "type" : "SCALAR"
    },
    {
      "bufferView" : 36,
      "min" : [ -41.2356, 3.28597, -51.4756 ],
      "max" : [ 41.2356, 3.41498, 51.4756 ],
      "componentType" : 5126,
      "count" : 1056,
      "type" : "VEC3"
    },
    {
      "bufferView" : 37,
      "componentType" : 5126,
      "count" : 1056,
      "type" : "VEC3"
    },
    {
      "bufferView" : 38,
      "componentType" : 5126,
      "count" : 1056,
      "type" : "VEC4"
    },
    {
      "bufferView" : 39,
      "normalized" : true,
      "componentType" : 5121,
      "count" : 1056,
      "type" : "VEC4"
    },
    {
      "bufferView" : 40,
      "componentType" : 5126,
      "count" : 1056,
      "type" : "VEC2"
    },
    {
      "bufferView" : 41,
      "componentType" : 5126,
      "count" : 1056,
      "type" : "VEC2"
    }
  ]
}
