{
  "asset" : {
    "generator" : "UE Viewer (umodel) build 1590",
    "version" : "2.0"
  },
  "scene" : 0,
  "scenes" : [
    {
      "nodes" : [ 0 ]
    }
  ],
  "nodes" : [
    {
      "name" : "Grass_Base",
      "mesh" : 0
    }
  ],
  "materials" : [
    {
      "name" : "dummy_material_0",
      "pbrMetallicRoughness" : {
        "baseColorFactor" : [ 0.3, 0.3, 0.3, 1.0 ],
        "metallicFactor" : 0.1,
        "roughnessFactor" : 0.5
      }
    }
  ],
  "meshes" : [
    {
      "primitives" : [
        {
          "attributes" : {
            "POSITION" : 1,
            "NORMAL" : 2,
            "TANGENT" : 3,
            "TEXCOORD_0" : 4
          },
          "indices" : 0,
          "material" : 0
        }
      ],
      "name" : "Grass_Base"
    }
  ],
  "buffers" : [
    {
      "uri" : "Grass_Base.bin",
      "byteLength" : 150816
    }
  ],
  "bufferViews" : [
    {
      "buffer" : 0,
      "byteOffset" : 0,
      "byteLength" : 19296
    },
    {
      "buffer" : 0,
      "byteOffset" : 19296,
      "byteLength" : 32880
    },
    {
      "buffer" : 0,
      "byteOffset" : 52176,
      "byteLength" : 32880
    },
    {
      "buffer" : 0,
      "byteOffset" : 85056,
      "byteLength" : 43840
    },
    {
      "buffer" : 0,
      "byteOffset" : 128896,
      "byteLength" : 21920
    }
  ],
  "accessors" : [
    {
      "bufferView" : 0,
      "componentType" : 5123,
      "count" : 9648,
      "type" : "SCALAR"
    },
    {
      "bufferView" : 1,
      "min" : [ -38.07, -0.00241463, -55.9535 ],
      "max" : [ 38.07, 0.19432, 55.9535 ],
      "componentType" : 5126,
      "count" : 2740,
      "type" : "VEC3"
    },
    {
      "bufferView" : 2,
      "componentType" : 5126,
      "count" : 2740,
      "type" : "VEC3"
    },
    {
      "bufferView" : 3,
      "componentType" : 5126,
      "count" : 2740,
      "type" : "VEC4"
    },
    {
      "bufferView" : 4,
      "componentType" : 5126,
      "count" : 2740,
      "type" : "VEC2"
    }
  ]
}
