{
  "asset" : {
    "generator" : "UE Viewer (umodel) build 1590",
    "version" : "2.0"
  },
  "scene" : 0,
  "scenes" : [
    {
      "nodes" : [ 0 ]
    }
  ],
  "nodes" : [
    {
      "name" : "Tifo",
      "mesh" : 0
    }
  ],
  "materials" : [
    {
      "name" : "dummy_material_0",
      "pbrMetallicRoughness" : {
        "baseColorFactor" : [ 0.3, 0.3, 0.3, 1.0 ],
        "metallicFactor" : 0.1,
        "roughnessFactor" : 0.5
      }
    }
  ],
  "meshes" : [
    {
      "primitives" : [
        {
          "attributes" : {
            "POSITION" : 1,
            "NORMAL" : 2,
            "TANGENT" : 3,
            "TEXCOORD_0" : 4
          },
          "indices" : 0,
          "material" : 0
        }
      ],
      "name" : "Tifo"
    }
  ],
  "buffers" : [
    {
      "uri" : "Tifo.bin",
      "byteLength" : 64560
    }
  ],
  "bufferViews" : [
    {
      "buffer" : 0,
      "byteOffset" : 0,
      "byteLength" : 12288
    },
    {
      "buffer" : 0,
      "byteOffset" : 12288,
      "byteLength" : 13068
    },
    {
      "buffer" : 0,
      "byteOffset" : 25356,
      "byteLength" : 13068
    },
    {
      "buffer" : 0,
      "byteOffset" : 38424,
      "byteLength" : 17424
    },
    {
      "buffer" : 0,
      "byteOffset" : 55848,
      "byteLength" : 8712
    }
  ],
  "accessors" : [
    {
      "bufferView" : 0,
      "componentType" : 5123,
      "count" : 6144,
      "type" : "SCALAR"
    },
    {
      "bufferView" : 1,
      "min" : [ -10.24, -1.25404e-15, -0 ],
      "max" : [ 10.24, 0, 20.48 ],
      "componentType" : 5126,
      "count" : 1089,
      "type" : "VEC3"
    },
    {
      "bufferView" : 2,
      "componentType" : 5126,
      "count" : 1089,
      "type" : "VEC3"
    },
    {
      "bufferView" : 3,
      "componentType" : 5126,
      "count" : 1089,
      "type" : "VEC4"
    },
    {
      "bufferView" : 4,
      "componentType" : 5126,
      "count" : 1089,
      "type" : "VEC2"
    }
  ]
}
