{
  "asset" : {
    "generator" : "UE Viewer (umodel) build 1590",
    "version" : "2.0"
  },
  "scene" : 0,
  "scenes" : [
    {
      "nodes" : [ 0 ]
    }
  ],
  "nodes" : [
    {
      "name" : "Grass_Side",
      "mesh" : 0
    }
  ],
  "materials" : [
    {
      "name" : "dummy_material_0",
      "pbrMetallicRoughness" : {
        "baseColorFactor" : [ 0.3, 0.3, 0.3, 1.0 ],
        "metallicFactor" : 0.1,
        "roughnessFactor" : 0.5
      }
    }
  ],
  "meshes" : [
    {
      "primitives" : [
        {
          "attributes" : {
            "POSITION" : 1,
            "NORMAL" : 2,
            "TANGENT" : 3,
            "TEXCOORD_0" : 4
          },
          "indices" : 0,
          "material" : 0
        }
      ],
      "name" : "Grass_Side"
    }
  ],
  "buffers" : [
    {
      "uri" : "Grass_Side.bin",
      "byteLength" : 63444
    }
  ],
  "bufferViews" : [
    {
      "buffer" : 0,
      "byteOffset" : 0,
      "byteLength" : 3732
    },
    {
      "buffer" : 0,
      "byteOffset" : 3732,
      "byteLength" : 14928
    },
    {
      "buffer" : 0,
      "byteOffset" : 18660,
      "byteLength" : 14928
    },
    {
      "buffer" : 0,
      "byteOffset" : 33588,
      "byteLength" : 19904
    },
    {
      "buffer" : 0,
      "byteOffset" : 53492,
      "byteLength" : 9952
    }
  ],
  "accessors" : [
    {
      "bufferView" : 0,
      "componentType" : 5123,
      "count" : 1866,
      "type" : "SCALAR"
    },
    {
      "bufferView" : 1,
      "min" : [ -1.04149e-06, -1.56755e-16, -2.56 ],
      "max" : [ 7.32, 0.08, 2.56 ],
      "componentType" : 5126,
      "count" : 1244,
      "type" : "VEC3"
    },
    {
      "bufferView" : 2,
      "componentType" : 5126,
      "count" : 1244,
      "type" : "VEC3"
    },
    {
      "bufferView" : 3,
      "componentType" : 5126,
      "count" : 1244,
      "type" : "VEC4"
    },
    {
      "bufferView" : 4,
      "componentType" : 5126,
      "count" : 1244,
      "type" : "VEC2"
    }
  ]
}
