{
  "asset" : {
    "generator" : "UE Viewer (umodel) build 1590",
    "version" : "2.0"
  },
  "scene" : 0,
  "scenes" : [
    {
      "nodes" : [ 0 ]
    }
  ],
  "nodes" : [
    {
      "name" : "Grass_Corner",
      "mesh" : 0
    }
  ],
  "materials" : [
    {
      "name" : "dummy_material_0",
      "pbrMetallicRoughness" : {
        "baseColorFactor" : [ 0.3, 0.3, 0.3, 1.0 ],
        "metallicFactor" : 0.1,
        "roughnessFactor" : 0.5
      }
    }
  ],
  "meshes" : [
    {
      "primitives" : [
        {
          "attributes" : {
            "POSITION" : 1,
            "NORMAL" : 2,
            "TANGENT" : 3,
            "COLOR_0" : 4,
            "TEXCOORD_0" : 5
          },
          "indices" : 0,
          "material" : 0
        }
      ],
      "name" : "Grass_Corner"
    }
  ],
  "buffers" : [
    {
      "uri" : "Grass_Corner.bin",
      "byteLength" : 136840
    }
  ],
  "bufferViews" : [
    {
      "buffer" : 0,
      "byteOffset" : 0,
      "byteLength" : 7464
    },
    {
      "buffer" : 0,
      "byteOffset" : 7464,
      "byteLength" : 29856
    },
    {
      "buffer" : 0,
      "byteOffset" : 37320,
      "byteLength" : 29856
    },
    {
      "buffer" : 0,
      "byteOffset" : 67176,
      "byteLength" : 39808
    },
    {
      "buffer" : 0,
      "byteOffset" : 106984,
      "byteLength" : 9952
    },
    {
      "buffer" : 0,
      "byteOffset" : 116936,
      "byteLength" : 19904
    }
  ],
  "accessors" : [
    {
      "bufferView" : 0,
      "componentType" : 5123,
      "count" : 3732,
      "type" : "SCALAR"
    },
    {
      "bufferView" : 1,
      "min" : [ 5.594e-06, -1.52588e-07, -3.83291e-07 ],
      "max" : [ 12.4581, 0.0800015, 12.4581 ],
      "componentType" : 5126,
      "count" : 2488,
      "type" : "VEC3"
    },
    {
      "bufferView" : 2,
      "componentType" : 5126,
      "count" : 2488,
      "type" : "VEC3"
    },
    {
      "bufferView" : 3,
      "componentType" : 5126,
      "count" : 2488,
      "type" : "VEC4"
    },
    {
      "bufferView" : 4,
      "normalized" : true,
      "componentType" : 5121,
      "count" : 2488,
      "type" : "VEC4"
    },
    {
      "bufferView" : 5,
      "componentType" : 5126,
      "count" : 2488,
      "type" : "VEC2"
    }
  ]
}
