{
  "asset" : {
    "generator" : "UE Viewer (umodel) build 1590",
    "version" : "2.0"
  },
  "scene" : 0,
  "scenes" : [
    {
      "nodes" : [ 0 ]
    }
  ],
  "nodes" : [
    {
      "name" : "Grass_GoalCorner",
      "mesh" : 0
    }
  ],
  "materials" : [
    {
      "name" : "dummy_material_0",
      "pbrMetallicRoughness" : {
        "baseColorFactor" : [ 0.3, 0.3, 0.3, 1.0 ],
        "metallicFactor" : 0.1,
        "roughnessFactor" : 0.5
      }
    }
  ],
  "meshes" : [
    {
      "primitives" : [
        {
          "attributes" : {
            "POSITION" : 1,
            "NORMAL" : 2,
            "TANGENT" : 3,
            "TEXCOORD_0" : 4
          },
          "indices" : 0,
          "material" : 0
        }
      ],
      "name" : "Grass_GoalCorner"
    }
  ],
  "buffers" : [
    {
      "uri" : "Grass_GoalCorner.bin",
      "byteLength" : 52224
    }
  ],
  "bufferViews" : [
    {
      "buffer" : 0,
      "byteOffset" : 0,
      "byteLength" : 3072
    },
    {
      "buffer" : 0,
      "byteOffset" : 3072,
      "byteLength" : 12288
    },
    {
      "buffer" : 0,
      "byteOffset" : 15360,
      "byteLength" : 12288
    },
    {
      "buffer" : 0,
      "byteOffset" : 27648,
      "byteLength" : 16384
    },
    {
      "buffer" : 0,
      "byteOffset" : 44032,
      "byteLength" : 8192
    }
  ],
  "accessors" : [
    {
      "bufferView" : 0,
      "componentType" : 5123,
      "count" : 1536,
      "type" : "SCALAR"
    },
    {
      "bufferView" : 1,
      "min" : [ -2.58, -4.97437e-05, -2.58 ],
      "max" : [ 2.54, 0.0802417, 2.54 ],
      "componentType" : 5126,
      "count" : 1024,
      "type" : "VEC3"
    },
    {
      "bufferView" : 2,
      "componentType" : 5126,
      "count" : 1024,
      "type" : "VEC3"
    },
    {
      "bufferView" : 3,
      "componentType" : 5126,
      "count" : 1024,
      "type" : "VEC4"
    },
    {
      "bufferView" : 4,
      "componentType" : 5126,
      "count" : 1024,
      "type" : "VEC2"
    }
  ]
}
