{
  "asset" : {
    "generator" : "UE Viewer (umodel) build 1590",
    "version" : "2.0"
  },
  "scene" : 0,
  "scenes" : [
    {
      "nodes" : [ 0 ]
    }
  ],
  "nodes" : [
    {
      "name" : "TexPropPlane",
      "mesh" : 0
    }
  ],
  "materials" : [
    {
      "name" : "dummy_material_0",
      "pbrMetallicRoughness" : {
        "baseColorFactor" : [ 0.3, 0.3, 0.3, 1.0 ],
        "metallicFactor" : 0.1,
        "roughnessFactor" : 0.5
      }
    }
  ],
  "meshes" : [
    {
      "primitives" : [
        {
          "attributes" : {
            "POSITION" : 1,
            "NORMAL" : 2,
            "TANGENT" : 3,
            "TEXCOORD_0" : 4
          },
          "indices" : 0,
          "material" : 0
        }
      ],
      "name" : "TexPropPlane"
    }
  ],
  "buffers" : [
    {
      "uri" : "TexPropPlane.bin",
      "byteLength" : 876
    }
  ],
  "bufferViews" : [
    {
      "buffer" : 0,
      "byteOffset" : 0,
      "byteLength" : 108
    },
    {
      "buffer" : 0,
      "byteOffset" : 108,
      "byteLength" : 192
    },
    {
      "buffer" : 0,
      "byteOffset" : 300,
      "byteLength" : 192
    },
    {
      "buffer" : 0,
      "byteOffset" : 492,
      "byteLength" : 256
    },
    {
      "buffer" : 0,
      "byteOffset" : 748,
      "byteLength" : 128
    }
  ],
  "accessors" : [
    {
      "bufferView" : 0,
      "componentType" : 5123,
      "count" : 54,
      "type" : "SCALAR"
    },
    {
      "bufferView" : 1,
      "min" : [ -1e-07, -1.6, -1.6 ],
      "max" : [ 1e-07, 1.6, 1.6 ],
      "componentType" : 5126,
      "count" : 16,
      "type" : "VEC3"
    },
    {
      "bufferView" : 2,
      "componentType" : 5126,
      "count" : 16,
      "type" : "VEC3"
    },
    {
      "bufferView" : 3,
      "componentType" : 5126,
      "count" : 16,
      "type" : "VEC4"
    },
    {
      "bufferView" : 4,
      "componentType" : 5126,
      "count" : 16,
      "type" : "VEC2"
    }
  ]
}
