{
  "asset" : {
    "generator" : "UE Viewer (umodel) build 1590",
    "version" : "2.0"
  },
  "scene" : 0,
  "scenes" : [
    {
      "nodes" : [ 0 ]
    }
  ],
  "nodes" : [
    {
      "name" : "CS_FieldGoalInner_03",
      "mesh" : 0
    }
  ],
  "materials" : [
    {
      "name" : "dummy_material_0",
      "pbrMetallicRoughness" : {
        "baseColorFactor" : [ 0.3, 0.3, 0.3, 1.0 ],
        "metallicFactor" : 0.1,
        "roughnessFactor" : 0.5
      }
    },
    {
      "name" : "dummy_material_1",
      "pbrMetallicRoughness" : {
        "baseColorFactor" : [ 0.9, 0.3, 0.3, 1.0 ],
        "metallicFactor" : 0.1,
        "roughnessFactor" : 0.5
      }
    },
    {
      "name" : "dummy_material_2",
      "pbrMetallicRoughness" : {
        "baseColorFactor" : [ 0.3, 0.9, 0.3, 1.0 ],
        "metallicFactor" : 0.1,
        "roughnessFactor" : 0.5
      }
    },
    {
      "name" : "dummy_material_3",
      "pbrMetallicRoughness" : {
        "baseColorFactor" : [ 0.3, 0.3, 0.9, 1.0 ],
        "metallicFactor" : 0.1,
        "roughnessFactor" : 0.5
      }
    }
  ],
  "meshes" : [
    {
      "primitives" : [
        {
          "attributes" : {
            "POSITION" : 1,
            "NORMAL" : 2,
            "TANGENT" : 3,
            "TEXCOORD_0" : 4,
            "TEXCOORD_1" : 5
          },
          "indices" : 0,
          "material" : 0
        },
        {
          "attributes" : {
            "POSITION" : 7,
            "NORMAL" : 8,
            "TANGENT" : 9,
            "TEXCOORD_0" : 10,
            "TEXCOORD_1" : 11
          },
          "indices" : 6,
          "material" : 1
        },
        {
          "attributes" : {
            "POSITION" : 13,
            "NORMAL" : 14,
            "TANGENT" : 15,
            "TEXCOORD_0" : 16,
            "TEXCOORD_1" : 17
          },
          "indices" : 12,
          "material" : 2
        },
        {
          "attributes" : {
            "POSITION" : 19,
            "NORMAL" : 20,
            "TANGENT" : 21,
            "TEXCOORD_0" : 22,
            "TEXCOORD_1" : 23
          },
          "indices" : 18,
          "material" : 3
        }
      ],
      "name" : "CS_FieldGoalInner_03"
    }
  ],
  "buffers" : [
    {
      "uri" : "CS_FieldGoalInner_03.bin",
      "byteLength" : 237352
    }
  ],
  "bufferViews" : [
    {
      "buffer" : 0,
      "byteOffset" : 0,
      "byteLength" : 25740
    },
    {
      "buffer" : 0,
      "byteOffset" : 25740,
      "byteLength" : 36648
    },
    {
      "buffer" : 0,
      "byteOffset" : 62388,
      "byteLength" : 36648
    },
    {
      "buffer" : 0,
      "byteOffset" : 99036,
      "byteLength" : 48864
    },
    {
      "buffer" : 0,
      "byteOffset" : 147900,
      "byteLength" : 24432
    },
    {
      "buffer" : 0,
      "byteOffset" : 172332,
      "byteLength" : 24432
    },
    {
      "buffer" : 0,
      "byteOffset" : 196764,
      "byteLength" : 384
    },
    {
      "buffer" : 0,
      "byteOffset" : 197148,
      "byteLength" : 600
    },
    {
      "buffer" : 0,
      "byteOffset" : 197748,
      "byteLength" : 600
    },
    {
      "buffer" : 0,
      "byteOffset" : 198348,
      "byteLength" : 800
    },
    {
      "buffer" : 0,
      "byteOffset" : 199148,
      "byteLength" : 400
    },
    {
      "buffer" : 0,
      "byteOffset" : 199548,
      "byteLength" : 400
    },
    {
      "buffer" : 0,
      "byteOffset" : 199948,
      "byteLength" : 816
    },
    {
      "buffer" : 0,
      "byteOffset" : 200764,
      "byteLength" : 1296
    },
    {
      "buffer" : 0,
      "byteOffset" : 202060,
      "byteLength" : 1296
    },
    {
      "buffer" : 0,
      "byteOffset" : 203356,
      "byteLength" : 1728
    },
    {
      "buffer" : 0,
      "byteOffset" : 205084,
      "byteLength" : 864
    },
    {
      "buffer" : 0,
      "byteOffset" : 205948,
      "byteLength" : 864
    },
    {
      "buffer" : 0,
      "byteOffset" : 206812,
      "byteLength" : 3996
    },
    {
      "buffer" : 0,
      "byteOffset" : 210808,
      "byteLength" : 5688
    },
    {
      "buffer" : 0,
      "byteOffset" : 216496,
      "byteLength" : 5688
    },
    {
      "buffer" : 0,
      "byteOffset" : 222184,
      "byteLength" : 7584
    },
    {
      "buffer" : 0,
      "byteOffset" : 229768,
      "byteLength" : 3792
    },
    {
      "buffer" : 0,
      "byteOffset" : 233560,
      "byteLength" : 3792
    }
  ],
  "accessors" : [
    {
      "bufferView" : 0,
      "componentType" : 5123,
      "count" : 12870,
      "type" : "SCALAR"
    },
    {
      "bufferView" : 1,
      "min" : [ -9.1897, 0.470914, -59.6052 ],
      "max" : [ 9.1897, 5.93215, -51.3141 ],
      "componentType" : 5126,
      "count" : 3054,
      "type" : "VEC3"
    },
    {
      "bufferView" : 2,
      "componentType" : 5126,
      "count" : 3054,
      "type" : "VEC3"
    },
    {
      "bufferView" : 3,
      "componentType" : 5126,
      "count" : 3054,
      "type" : "VEC4"
    },
    {
      "bufferView" : 4,
      "componentType" : 5126,
      "count" : 3054,
      "type" : "VEC2"
    },
    {
      "bufferView" : 5,
      "componentType" : 5126,
      "count" : 3054,
      "type" : "VEC2"
    },
    {
      "bufferView" : 6,
      "componentType" : 5123,
      "count" : 192,
      "type" : "SCALAR"
    },
    {
      "bufferView" : 7,
      "min" : [ -9.08397, 2.82092, -52.0129 ],
      "max" : [ 9.08397, 3.76003, -51.6793 ],
      "componentType" : 5126,
      "count" : 50,
      "type" : "VEC3"
    },
    {
      "bufferView" : 8,
      "componentType" : 5126,
      "count" : 50,
      "type" : "VEC3"
    },
    {
      "bufferView" : 9,
      "componentType" : 5126,
      "count" : 50,
      "type" : "VEC4"
    },
    {
      "bufferView" : 10,
      "componentType" : 5126,
      "count" : 50,
      "type" : "VEC2"
    },
    {
      "bufferView" : 11,
      "componentType" : 5126,
      "count" : 50,
      "type" : "VEC2"
    },
    {
      "bufferView" : 12,
      "componentType" : 5123,
      "count" : 408,
      "type" : "SCALAR"
    },
    {
      "bufferView" : 13,
      "min" : [ -9.00059, 3.10547, -59.1517 ],
      "max" : [ 9.00059, 3.40162, -52.5078 ],
      "componentType" : 5126,
      "count" : 108,
      "type" : "VEC3"
    },
    {
      "bufferView" : 14,
      "componentType" : 5126,
      "count" : 108,
      "type" : "VEC3"
    },
    {
      "bufferView" : 15,
      "componentType" : 5126,
      "count" : 108,
      "type" : "VEC4"
    },
    {
      "bufferView" : 16,
      "componentType" : 5126,
      "count" : 108,
      "type" : "VEC2"
    },
    {
      "bufferView" : 17,
      "componentType" : 5126,
      "count" : 108,
      "type" : "VEC2"
    },
    {
      "bufferView" : 18,
      "componentType" : 5123,
      "count" : 1998,
      "type" : "SCALAR"
    },
    {
      "bufferView" : 19,
      "min" : [ -9.1897, 1.1726, -57.6303 ],
      "max" : [ 9.1897, 5.73157, -51.6446 ],
      "componentType" : 5126,
      "count" : 474,
      "type" : "VEC3"
    },
    {
      "bufferView" : 20,
      "componentType" : 5126,
      "count" : 474,
      "type" : "VEC3"
    },
    {
      "bufferView" : 21,
      "componentType" : 5126,
      "count" : 474,
      "type" : "VEC4"
    },
    {
      "bufferView" : 22,
      "componentType" : 5126,
      "count" : 474,
      "type" : "VEC2"
    },
    {
      "bufferView" : 23,
      "componentType" : 5126,
      "count" : 474,
      "type" : "VEC2"
    }
  ]
}
