{
  "asset" : {
    "generator" : "UE Viewer (umodel) build 1590",
    "version" : "2.0"
  },
  "scene" : 0,
  "scenes" : [
    {
      "nodes" : [ 0 ]
    }
  ],
  "nodes" : [
    {
      "name" : "CS_FieldLightsCombined_01",
      "mesh" : 0
    }
  ],
  "materials" : [
    {
      "name" : "dummy_material_0",
      "pbrMetallicRoughness" : {
        "baseColorFactor" : [ 0.3, 0.3, 0.3, 1.0 ],
        "metallicFactor" : 0.1,
        "roughnessFactor" : 0.5
      }
    },
    {
      "name" : "dummy_material_1",
      "pbrMetallicRoughness" : {
        "baseColorFactor" : [ 0.9, 0.3, 0.3, 1.0 ],
        "metallicFactor" : 0.1,
        "roughnessFactor" : 0.5
      }
    },
    {
      "name" : "dummy_material_2",
      "pbrMetallicRoughness" : {
        "baseColorFactor" : [ 0.3, 0.9, 0.3, 1.0 ],
        "metallicFactor" : 0.1,
        "roughnessFactor" : 0.5
      }
    },
    {
      "name" : "dummy_material_3",
      "pbrMetallicRoughness" : {
        "baseColorFactor" : [ 0.3, 0.3, 0.9, 1.0 ],
        "metallicFactor" : 0.1,
        "roughnessFactor" : 0.5
      }
    },
    {
      "name" : "dummy_material_4",
      "pbrMetallicRoughness" : {
        "baseColorFactor" : [ 0.9, 0.9, 0.9, 1.0 ],
        "metallicFactor" : 0.1,
        "roughnessFactor" : 0.5
      }
    }
  ],
  "meshes" : [
    {
      "primitives" : [
        {
          "attributes" : {
            "POSITION" : 1,
            "NORMAL" : 2,
            "TANGENT" : 3,
            "TEXCOORD_0" : 4,
            "TEXCOORD_1" : 5
          },
          "indices" : 0,
          "material" : 0
        },
        {
          "attributes" : {
            "POSITION" : 7,
            "NORMAL" : 8,
            "TANGENT" : 9,
            "TEXCOORD_0" : 10,
            "TEXCOORD_1" : 11
          },
          "indices" : 6,
          "material" : 1
        },
        {
          "attributes" : {
            "POSITION" : 13,
            "NORMAL" : 14,
            "TANGENT" : 15,
            "TEXCOORD_0" : 16,
            "TEXCOORD_1" : 17
          },
          "indices" : 12,
          "material" : 2
        },
        {
          "attributes" : {
            "POSITION" : 19,
            "NORMAL" : 20,
            "TANGENT" : 21,
            "TEXCOORD_0" : 22,
            "TEXCOORD_1" : 23
          },
          "indices" : 18,
          "material" : 3
        },
        {
          "attributes" : {
            "POSITION" : 25,
            "NORMAL" : 26,
            "TANGENT" : 27,
            "TEXCOORD_0" : 28,
            "TEXCOORD_1" : 29
          },
          "indices" : 24,
          "material" : 4
        }
      ],
      "name" : "CS_FieldLightsCombined_01"
    }
  ],
  "buffers" : [
    {
      "uri" : "CS_FieldLightsCombined_01.bin",
      "byteLength" : 2491920
    }
  ],
  "bufferViews" : [
    {
      "buffer" : 0,
      "byteOffset" : 0,
      "byteLength" : 253728
    },
    {
      "buffer" : 0,
      "byteOffset" : 253728,
      "byteLength" : 438408
    },
    {
      "buffer" : 0,
      "byteOffset" : 692136,
      "byteLength" : 438408
    },
    {
      "buffer" : 0,
      "byteOffset" : 1130544,
      "byteLength" : 584544
    },
    {
      "buffer" : 0,
      "byteOffset" : 1715088,
      "byteLength" : 292272
    },
    {
      "buffer" : 0,
      "byteOffset" : 2007360,
      "byteLength" : 292272
    },
    {
      "buffer" : 0,
      "byteOffset" : 2299632,
      "byteLength" : 1440
    },
    {
      "buffer" : 0,
      "byteOffset" : 2301072,
      "byteLength" : 3744
    },
    {
      "buffer" : 0,
      "byteOffset" : 2304816,
      "byteLength" : 3744
    },
    {
      "buffer" : 0,
      "byteOffset" : 2308560,
      "byteLength" : 4992
    },
    {
      "buffer" : 0,
      "byteOffset" : 2313552,
      "byteLength" : 2496
    },
    {
      "buffer" : 0,
      "byteOffset" : 2316048,
      "byteLength" : 2496
    },
    {
      "buffer" : 0,
      "byteOffset" : 2318544,
      "byteLength" : 1728
    },
    {
      "buffer" : 0,
      "byteOffset" : 2320272,
      "byteLength" : 2880
    },
    {
      "buffer" : 0,
      "byteOffset" : 2323152,
      "byteLength" : 2880
    },
    {
      "buffer" : 0,
      "byteOffset" : 2326032,
      "byteLength" : 3840
    },
    {
      "buffer" : 0,
      "byteOffset" : 2329872,
      "byteLength" : 1920
    },
    {
      "buffer" : 0,
      "byteOffset" : 2331792,
      "byteLength" : 1920
    },
    {
      "buffer" : 0,
      "byteOffset" : 2333712,
      "byteLength" : 12096
    },
    {
      "buffer" : 0,
      "byteOffset" : 2345808,
      "byteLength" : 24048
    },
    {
      "buffer" : 0,
      "byteOffset" : 2369856,
      "byteLength" : 24048
    },
    {
      "buffer" : 0,
      "byteOffset" : 2393904,
      "byteLength" : 32064
    },
    {
      "buffer" : 0,
      "byteOffset" : 2425968,
      "byteLength" : 16032
    },
    {
      "buffer" : 0,
      "byteOffset" : 2442000,
      "byteLength" : 16032
    },
    {
      "buffer" : 0,
      "byteOffset" : 2458032,
      "byteLength" : 4320
    },
    {
      "buffer" : 0,
      "byteOffset" : 2462352,
      "byteLength" : 6336
    },
    {
      "buffer" : 0,
      "byteOffset" : 2468688,
      "byteLength" : 6336
    },
    {
      "buffer" : 0,
      "byteOffset" : 2475024,
      "byteLength" : 8448
    },
    {
      "buffer" : 0,
      "byteOffset" : 2483472,
      "byteLength" : 4224
    },
    {
      "buffer" : 0,
      "byteOffset" : 2487696,
      "byteLength" : 4224
    }
  ],
  "accessors" : [
    {
      "bufferView" : 0,
      "componentType" : 5123,
      "count" : 126864,
      "type" : "SCALAR"
    },
    {
      "bufferView" : 1,
      "min" : [ -43.9602, -11.7922, -50.097 ],
      "max" : [ 43.9602, 11.7922, 50.097 ],
      "componentType" : 5126,
      "count" : 36534,
      "type" : "VEC3"
    },
    {
      "bufferView" : 2,
      "componentType" : 5126,
      "count" : 36534,
      "type" : "VEC3"
    },
    {
      "bufferView" : 3,
      "componentType" : 5126,
      "count" : 36534,
      "type" : "VEC4"
    },
    {
      "bufferView" : 4,
      "componentType" : 5126,
      "count" : 36534,
      "type" : "VEC2"
    },
    {
      "bufferView" : 5,
      "componentType" : 5126,
      "count" : 36534,
      "type" : "VEC2"
    },
    {
      "bufferView" : 6,
      "componentType" : 5123,
      "count" : 720,
      "type" : "SCALAR"
    },
    {
      "bufferView" : 7,
      "min" : [ -43.165, -6.07703, -47.7664 ],
      "max" : [ 43.165, 2.22106, 47.7664 ],
      "componentType" : 5126,
      "count" : 312,
      "type" : "VEC3"
    },
    {
      "bufferView" : 8,
      "componentType" : 5126,
      "count" : 312,
      "type" : "VEC3"
    },
    {
      "bufferView" : 9,
      "componentType" : 5126,
      "count" : 312,
      "type" : "VEC4"
    },
    {
      "bufferView" : 10,
      "componentType" : 5126,
      "count" : 312,
      "type" : "VEC2"
    },
    {
      "bufferView" : 11,
      "componentType" : 5126,
      "count" : 312,
      "type" : "VEC2"
    },
    {
      "bufferView" : 12,
      "componentType" : 5123,
      "count" : 864,
      "type" : "SCALAR"
    },
    {
      "bufferView" : 13,
      "min" : [ -40.3961, 11.6287, -45.915 ],
      "max" : [ 40.3961, 11.6287, 45.915 ],
      "componentType" : 5126,
      "count" : 240,
      "type" : "VEC3"
    },
    {
      "bufferView" : 14,
      "componentType" : 5126,
      "count" : 240,
      "type" : "VEC3"
    },
    {
      "bufferView" : 15,
      "componentType" : 5126,
      "count" : 240,
      "type" : "VEC4"
    },
    {
      "bufferView" : 16,
      "componentType" : 5126,
      "count" : 240,
      "type" : "VEC2"
    },
    {
      "bufferView" : 17,
      "componentType" : 5126,
      "count" : 240,
      "type" : "VEC2"
    },
    {
      "bufferView" : 18,
      "componentType" : 5123,
      "count" : 6048,
      "type" : "SCALAR"
    },
    {
      "bufferView" : 19,
      "min" : [ -43.7392, -7.0547, -48.6162 ],
      "max" : [ 43.7392, 5.32588, 48.6162 ],
      "componentType" : 5126,
      "count" : 2004,
      "type" : "VEC3"
    },
    {
      "bufferView" : 20,
      "componentType" : 5126,
      "count" : 2004,
      "type" : "VEC3"
    },
    {
      "bufferView" : 21,
      "componentType" : 5126,
      "count" : 2004,
      "type" : "VEC4"
    },
    {
      "bufferView" : 22,
      "componentType" : 5126,
      "count" : 2004,
      "type" : "VEC2"
    },
    {
      "bufferView" : 23,
      "componentType" : 5126,
      "count" : 2004,
      "type" : "VEC2"
    },
    {
      "bufferView" : 24,
      "componentType" : 5123,
      "count" : 2160,
      "type" : "SCALAR"
    },
    {
      "bufferView" : 25,
      "min" : [ -43.2355, -6.76323, -49.5228 ],
      "max" : [ 43.2355, -5.63373, 49.5228 ],
      "componentType" : 5126,
      "count" : 528,
      "type" : "VEC3"
    },
    {
      "bufferView" : 26,
      "componentType" : 5126,
      "count" : 528,
      "type" : "VEC3"
    },
    {
      "bufferView" : 27,
      "componentType" : 5126,
      "count" : 528,
      "type" : "VEC4"
    },
    {
      "bufferView" : 28,
      "componentType" : 5126,
      "count" : 528,
      "type" : "VEC2"
    },
    {
      "bufferView" : 29,
      "componentType" : 5126,
      "count" : 528,
      "type" : "VEC2"
    }
  ]
}
