{
  "asset" : {
    "generator" : "UE Viewer (umodel) build 1590",
    "version" : "2.0"
  },
  "scene" : 0,
  "scenes" : [
    {
      "nodes" : [ 0 ]
    }
  ],
  "nodes" : [
    {
      "name" : "CS_FieldFog_01",
      "mesh" : 0
    }
  ],
  "materials" : [
    {
      "name" : "dummy_material_0",
      "pbrMetallicRoughness" : {
        "baseColorFactor" : [ 0.3, 0.3, 0.3, 1.0 ],
        "metallicFactor" : 0.1,
        "roughnessFactor" : 0.5
      }
    }
  ],
  "meshes" : [
    {
      "primitives" : [
        {
          "attributes" : {
            "POSITION" : 1,
            "NORMAL" : 2,
            "TANGENT" : 3,
            "TEXCOORD_0" : 4,
            "TEXCOORD_1" : 5,
            "TEXCOORD_2" : 6
          },
          "indices" : 0,
          "material" : 0
        }
      ],
      "name" : "CS_FieldFog_01"
    }
  ],
  "buffers" : [
    {
      "uri" : "CS_FieldFog_01.bin",
      "byteLength" : 37120
    }
  ],
  "bufferViews" : [
    {
      "buffer" : 0,
      "byteOffset" : 0,
      "byteLength" : 4800
    },
    {
      "buffer" : 0,
      "byteOffset" : 4800,
      "byteLength" : 6060
    },
    {
      "buffer" : 0,
      "byteOffset" : 10860,
      "byteLength" : 6060
    },
    {
      "buffer" : 0,
      "byteOffset" : 16920,
      "byteLength" : 8080
    },
    {
      "buffer" : 0,
      "byteOffset" : 25000,
      "byteLength" : 4040
    },
    {
      "buffer" : 0,
      "byteOffset" : 29040,
      "byteLength" : 4040
    },
    {
      "buffer" : 0,
      "byteOffset" : 33080,
      "byteLength" : 4040
    }
  ],
  "accessors" : [
    {
      "bufferView" : 0,
      "componentType" : 5123,
      "count" : 2400,
      "type" : "SCALAR"
    },
    {
      "bufferView" : 1,
      "min" : [ -169.148, -0.577756, -190.773 ],
      "max" : [ 169.148, 103.435, 197.051 ],
      "componentType" : 5126,
      "count" : 505,
      "type" : "VEC3"
    },
    {
      "bufferView" : 2,
      "componentType" : 5126,
      "count" : 505,
      "type" : "VEC3"
    },
    {
      "bufferView" : 3,
      "componentType" : 5126,
      "count" : 505,
      "type" : "VEC4"
    },
    {
      "bufferView" : 4,
      "componentType" : 5126,
      "count" : 505,
      "type" : "VEC2"
    },
    {
      "bufferView" : 5,
      "componentType" : 5126,
      "count" : 505,
      "type" : "VEC2"
    },
    {
      "bufferView" : 6,
      "componentType" : 5126,
      "count" : 505,
      "type" : "VEC2"
    }
  ]
}
