{
  "asset" : {
    "generator" : "UE Viewer (umodel) build 1590",
    "version" : "2.0"
  },
  "scene" : 0,
  "scenes" : [
    {
      "nodes" : [ 0 ]
    }
  ],
  "nodes" : [
    {
      "name" : "CS_FieldGlow_01",
      "mesh" : 0
    }
  ],
  "materials" : [
    {
      "name" : "dummy_material_0",
      "pbrMetallicRoughness" : {
        "baseColorFactor" : [ 0.3, 0.3, 0.3, 1.0 ],
        "metallicFactor" : 0.1,
        "roughnessFactor" : 0.5
      }
    }
  ],
  "meshes" : [
    {
      "primitives" : [
        {
          "attributes" : {
            "POSITION" : 1,
            "NORMAL" : 2,
            "TANGENT" : 3,
            "TEXCOORD_0" : 4
          },
          "indices" : 0,
          "material" : 0
        }
      ],
      "name" : "CS_FieldGlow_01"
    }
  ],
  "buffers" : [
    {
      "uri" : "CS_FieldGlow_01.bin",
      "byteLength" : 40644
    }
  ],
  "bufferViews" : [
    {
      "buffer" : 0,
      "byteOffset" : 0,
      "byteLength" : 4452
    },
    {
      "buffer" : 0,
      "byteOffset" : 4452,
      "byteLength" : 9048
    },
    {
      "buffer" : 0,
      "byteOffset" : 13500,
      "byteLength" : 9048
    },
    {
      "buffer" : 0,
      "byteOffset" : 22548,
      "byteLength" : 12064
    },
    {
      "buffer" : 0,
      "byteOffset" : 34612,
      "byteLength" : 6032
    }
  ],
  "accessors" : [
    {
      "bufferView" : 0,
      "componentType" : 5123,
      "count" : 2226,
      "type" : "SCALAR"
    },
    {
      "bufferView" : 1,
      "min" : [ 0, 3.237, -51.2488 ],
      "max" : [ 41.0088, 13.1597, 3.92385e-16 ],
      "componentType" : 5126,
      "count" : 754,
      "type" : "VEC3"
    },
    {
      "bufferView" : 2,
      "componentType" : 5126,
      "count" : 754,
      "type" : "VEC3"
    },
    {
      "bufferView" : 3,
      "componentType" : 5126,
      "count" : 754,
      "type" : "VEC4"
    },
    {
      "bufferView" : 4,
      "componentType" : 5126,
      "count" : 754,
      "type" : "VEC2"
    }
  ]
}
