{
  "asset" : {
    "generator" : "UE Viewer (umodel) build 1590",
    "version" : "2.0"
  },
  "scene" : 0,
  "scenes" : [
    {
      "nodes" : [ 0 ]
    }
  ],
  "nodes" : [
    {
      "name" : "CS_FieldClampsCombined_01a",
      "mesh" : 0
    }
  ],
  "materials" : [
    {
      "name" : "dummy_material_0",
      "pbrMetallicRoughness" : {
        "baseColorFactor" : [ 0.3, 0.3, 0.3, 1.0 ],
        "metallicFactor" : 0.1,
        "roughnessFactor" : 0.5
      }
    }
  ],
  "meshes" : [
    {
      "primitives" : [
        {
          "attributes" : {
            "POSITION" : 1,
            "NORMAL" : 2,
            "TANGENT" : 3,
            "TEXCOORD_0" : 4,
            "TEXCOORD_1" : 5
          },
          "indices" : 0,
          "material" : 0
        }
      ],
      "name" : "CS_FieldClampsCombined_01a"
    }
  ],
  "buffers" : [
    {
      "uri" : "CS_FieldClampsCombined_01a.bin",
      "byteLength" : 71040
    }
  ],
  "bufferViews" : [
    {
      "buffer" : 0,
      "byteOffset" : 0,
      "byteLength" : 10560
    },
    {
      "buffer" : 0,
      "byteOffset" : 10560,
      "byteLength" : 12960
    },
    {
      "buffer" : 0,
      "byteOffset" : 23520,
      "byteLength" : 12960
    },
    {
      "buffer" : 0,
      "byteOffset" : 36480,
      "byteLength" : 17280
    },
    {
      "buffer" : 0,
      "byteOffset" : 53760,
      "byteLength" : 8640
    },
    {
      "buffer" : 0,
      "byteOffset" : 62400,
      "byteLength" : 8640
    }
  ],
  "accessors" : [
    {
      "bufferView" : 0,
      "componentType" : 5123,
      "count" : 5280,
      "type" : "SCALAR"
    },
    {
      "bufferView" : 1,
      "min" : [ -104.142, -2.41089, -115.678 ],
      "max" : [ 104.142, 2.97813, 115.678 ],
      "componentType" : 5126,
      "count" : 1080,
      "type" : "VEC3"
    },
    {
      "bufferView" : 2,
      "componentType" : 5126,
      "count" : 1080,
      "type" : "VEC3"
    },
    {
      "bufferView" : 3,
      "componentType" : 5126,
      "count" : 1080,
      "type" : "VEC4"
    },
    {
      "bufferView" : 4,
      "componentType" : 5126,
      "count" : 1080,
      "type" : "VEC2"
    },
    {
      "bufferView" : 5,
      "componentType" : 5126,
      "count" : 1080,
      "type" : "VEC2"
    }
  ]
}
