{
  "asset" : {
    "generator" : "UE Viewer (umodel) build 1590",
    "version" : "2.0"
  },
  "scene" : 0,
  "scenes" : [
    {
      "nodes" : [ 0 ]
    }
  ],
  "nodes" : [
    {
      "name" : "CS_FireworkLauncher_01",
      "mesh" : 0
    }
  ],
  "materials" : [
    {
      "name" : "dummy_material_0",
      "pbrMetallicRoughness" : {
        "baseColorFactor" : [ 0.3, 0.3, 0.3, 1.0 ],
        "metallicFactor" : 0.1,
        "roughnessFactor" : 0.5
      }
    }
  ],
  "meshes" : [
    {
      "primitives" : [
        {
          "attributes" : {
            "POSITION" : 1,
            "NORMAL" : 2,
            "TANGENT" : 3,
            "TEXCOORD_0" : 4
          },
          "indices" : 0,
          "material" : 0
        }
      ],
      "name" : "CS_FireworkLauncher_01"
    }
  ],
  "buffers" : [
    {
      "uri" : "CS_FireworkLauncher_01.bin",
      "byteLength" : 16428
    }
  ],
  "bufferViews" : [
    {
      "buffer" : 0,
      "byteOffset" : 0,
      "byteLength" : 1356
    },
    {
      "buffer" : 0,
      "byteOffset" : 1356,
      "byteLength" : 3768
    },
    {
      "buffer" : 0,
      "byteOffset" : 5124,
      "byteLength" : 3768
    },
    {
      "buffer" : 0,
      "byteOffset" : 8892,
      "byteLength" : 5024
    },
    {
      "buffer" : 0,
      "byteOffset" : 13916,
      "byteLength" : 2512
    }
  ],
  "accessors" : [
    {
      "bufferView" : 0,
      "componentType" : 5123,
      "count" : 678,
      "type" : "SCALAR"
    },
    {
      "bufferView" : 1,
      "min" : [ -0.850371, -0.136471, -0.850371 ],
      "max" : [ 0.850371, 1.97124, 0.850371 ],
      "componentType" : 5126,
      "count" : 314,
      "type" : "VEC3"
    },
    {
      "bufferView" : 2,
      "componentType" : 5126,
      "count" : 314,
      "type" : "VEC3"
    },
    {
      "bufferView" : 3,
      "componentType" : 5126,
      "count" : 314,
      "type" : "VEC4"
    },
    {
      "bufferView" : 4,
      "componentType" : 5126,
      "count" : 314,
      "type" : "VEC2"
    }
  ]
}
