{
  "asset" : {
    "generator" : "UE Viewer (umodel) build 1590",
    "version" : "2.0"
  },
  "scene" : 0,
  "scenes" : [
    {
      "nodes" : [ 0 ]
    }
  ],
  "nodes" : [
    {
      "name" : "CS_FieldHexShell_01",
      "mesh" : 0
    }
  ],
  "materials" : [
    {
      "name" : "dummy_material_0",
      "pbrMetallicRoughness" : {
        "baseColorFactor" : [ 0.3, 0.3, 0.3, 1.0 ],
        "metallicFactor" : 0.1,
        "roughnessFactor" : 0.5
      }
    }
  ],
  "meshes" : [
    {
      "primitives" : [
        {
          "attributes" : {
            "POSITION" : 1,
            "NORMAL" : 2,
            "TANGENT" : 3,
            "TEXCOORD_0" : 4,
            "TEXCOORD_1" : 5,
            "TEXCOORD_2" : 6
          },
          "indices" : 0,
          "material" : 0
        }
      ],
      "name" : "CS_FieldHexShell_01"
    }
  ],
  "buffers" : [
    {
      "uri" : "CS_FieldHexShell_01.bin",
      "byteLength" : 69720
    }
  ],
  "bufferViews" : [
    {
      "buffer" : 0,
      "byteOffset" : 0,
      "byteLength" : 9624
    },
    {
      "buffer" : 0,
      "byteOffset" : 9624,
      "byteLength" : 11268
    },
    {
      "buffer" : 0,
      "byteOffset" : 20892,
      "byteLength" : 11268
    },
    {
      "buffer" : 0,
      "byteOffset" : 32160,
      "byteLength" : 15024
    },
    {
      "buffer" : 0,
      "byteOffset" : 47184,
      "byteLength" : 7512
    },
    {
      "buffer" : 0,
      "byteOffset" : 54696,
      "byteLength" : 7512
    },
    {
      "buffer" : 0,
      "byteOffset" : 62208,
      "byteLength" : 7512
    }
  ],
  "accessors" : [
    {
      "bufferView" : 0,
      "componentType" : 5123,
      "count" : 4812,
      "type" : "SCALAR"
    },
    {
      "bufferView" : 1,
      "min" : [ -104.14, 6.50239, -130.15 ],
      "max" : [ 104.14, 52.1208, 130.15 ],
      "componentType" : 5126,
      "count" : 939,
      "type" : "VEC3"
    },
    {
      "bufferView" : 2,
      "componentType" : 5126,
      "count" : 939,
      "type" : "VEC3"
    },
    {
      "bufferView" : 3,
      "componentType" : 5126,
      "count" : 939,
      "type" : "VEC4"
    },
    {
      "bufferView" : 4,
      "componentType" : 5126,
      "count" : 939,
      "type" : "VEC2"
    },
    {
      "bufferView" : 5,
      "componentType" : 5126,
      "count" : 939,
      "type" : "VEC2"
    },
    {
      "bufferView" : 6,
      "componentType" : 5126,
      "count" : 939,
      "type" : "VEC2"
    }
  ]
}
