{
  "asset" : {
    "generator" : "UE Viewer (umodel) build 1590",
    "version" : "2.0"
  },
  "scene" : 0,
  "scenes" : [
    {
      "nodes" : [ 0 ]
    }
  ],
  "nodes" : [
    {
      "name" : "CS_GroundsLights_01",
      "mesh" : 0
    }
  ],
  "materials" : [
    {
      "name" : "dummy_material_0",
      "pbrMetallicRoughness" : {
        "baseColorFactor" : [ 0.3, 0.3, 0.3, 1.0 ],
        "metallicFactor" : 0.1,
        "roughnessFactor" : 0.5
      }
    },
    {
      "name" : "dummy_material_1",
      "pbrMetallicRoughness" : {
        "baseColorFactor" : [ 0.9, 0.3, 0.3, 1.0 ],
        "metallicFactor" : 0.1,
        "roughnessFactor" : 0.5
      }
    }
  ],
  "meshes" : [
    {
      "primitives" : [
        {
          "attributes" : {
            "POSITION" : 1,
            "NORMAL" : 2,
            "TANGENT" : 3,
            "COLOR_0" : 4,
            "TEXCOORD_0" : 5
          },
          "indices" : 0,
          "material" : 0
        },
        {
          "attributes" : {
            "POSITION" : 7,
            "NORMAL" : 8,
            "TANGENT" : 9,
            "COLOR_0" : 10,
            "TEXCOORD_0" : 11
          },
          "indices" : 6,
          "material" : 1
        }
      ],
      "name" : "CS_GroundsLights_01"
    }
  ],
  "buffers" : [
    {
      "uri" : "CS_GroundsLights_01.bin",
      "byteLength" : 123524
    }
  ],
  "bufferViews" : [
    {
      "buffer" : 0,
      "byteOffset" : 0,
      "byteLength" : 14292
    },
    {
      "buffer" : 0,
      "byteOffset" : 14292,
      "byteLength" : 24996
    },
    {
      "buffer" : 0,
      "byteOffset" : 39288,
      "byteLength" : 24996
    },
    {
      "buffer" : 0,
      "byteOffset" : 64284,
      "byteLength" : 33328
    },
    {
      "buffer" : 0,
      "byteOffset" : 97612,
      "byteLength" : 8332
    },
    {
      "buffer" : 0,
      "byteOffset" : 105944,
      "byteLength" : 16664
    },
    {
      "buffer" : 0,
      "byteOffset" : 122608,
      "byteLength" : 84
    },
    {
      "buffer" : 0,
      "byteOffset" : 122692,
      "byteLength" : 192
    },
    {
      "buffer" : 0,
      "byteOffset" : 122884,
      "byteLength" : 192
    },
    {
      "buffer" : 0,
      "byteOffset" : 123076,
      "byteLength" : 256
    },
    {
      "buffer" : 0,
      "byteOffset" : 123332,
      "byteLength" : 64
    },
    {
      "buffer" : 0,
      "byteOffset" : 123396,
      "byteLength" : 128
    }
  ],
  "accessors" : [
    {
      "bufferView" : 0,
      "componentType" : 5123,
      "count" : 7146,
      "type" : "SCALAR"
    },
    {
      "bufferView" : 1,
      "min" : [ -3.52616, -0.177504, -4.76538 ],
      "max" : [ 3.52551, 4.2946, 4.76538 ],
      "componentType" : 5126,
      "count" : 2083,
      "type" : "VEC3"
    },
    {
      "bufferView" : 2,
      "componentType" : 5126,
      "count" : 2083,
      "type" : "VEC3"
    },
    {
      "bufferView" : 3,
      "componentType" : 5126,
      "count" : 2083,
      "type" : "VEC4"
    },
    {
      "bufferView" : 4,
      "normalized" : true,
      "componentType" : 5121,
      "count" : 2083,
      "type" : "VEC4"
    },
    {
      "bufferView" : 5,
      "componentType" : 5126,
      "count" : 2083,
      "type" : "VEC2"
    },
    {
      "bufferView" : 6,
      "componentType" : 5123,
      "count" : 42,
      "type" : "SCALAR"
    },
    {
      "bufferView" : 7,
      "min" : [ -2.86749, 4.16817, -2.86631 ],
      "max" : [ 2.86612, 4.17285, 2.8673 ],
      "componentType" : 5126,
      "count" : 16,
      "type" : "VEC3"
    },
    {
      "bufferView" : 8,
      "componentType" : 5126,
      "count" : 16,
      "type" : "VEC3"
    },
    {
      "bufferView" : 9,
      "componentType" : 5126,
      "count" : 16,
      "type" : "VEC4"
    },
    {
      "bufferView" : 10,
      "normalized" : true,
      "componentType" : 5121,
      "count" : 16,
      "type" : "VEC4"
    },
    {
      "bufferView" : 11,
      "componentType" : 5126,
      "count" : 16,
      "type" : "VEC2"
    }
  ]
}
