{
  "asset" : {
    "generator" : "UE Viewer (umodel) build 1590",
    "version" : "2.0"
  },
  "scene" : 0,
  "scenes" : [
    {
      "nodes" : [ 0 ]
    }
  ],
  "nodes" : [
    {
      "name" : "CS_Grounds_Floor01",
      "mesh" : 0
    }
  ],
  "materials" : [
    {
      "name" : "dummy_material_0",
      "pbrMetallicRoughness" : {
        "baseColorFactor" : [ 0.3, 0.3, 0.3, 1.0 ],
        "metallicFactor" : 0.1,
        "roughnessFactor" : 0.5
      }
    }
  ],
  "meshes" : [
    {
      "primitives" : [
        {
          "attributes" : {
            "POSITION" : 1,
            "NORMAL" : 2,
            "TANGENT" : 3,
            "COLOR_0" : 4,
            "TEXCOORD_0" : 5
          },
          "indices" : 0,
          "material" : 0
        }
      ],
      "name" : "CS_Grounds_Floor01"
    }
  ],
  "buffers" : [
    {
      "uri" : "CS_Grounds_Floor01.bin",
      "byteLength" : 35688
    }
  ],
  "bufferViews" : [
    {
      "buffer" : 0,
      "byteOffset" : 0,
      "byteLength" : 6048
    },
    {
      "buffer" : 0,
      "byteOffset" : 6048,
      "byteLength" : 6840
    },
    {
      "buffer" : 0,
      "byteOffset" : 12888,
      "byteLength" : 6840
    },
    {
      "buffer" : 0,
      "byteOffset" : 19728,
      "byteLength" : 9120
    },
    {
      "buffer" : 0,
      "byteOffset" : 28848,
      "byteLength" : 2280
    },
    {
      "buffer" : 0,
      "byteOffset" : 31128,
      "byteLength" : 4560
    }
  ],
  "accessors" : [
    {
      "bufferView" : 0,
      "componentType" : 5123,
      "count" : 3024,
      "type" : "SCALAR"
    },
    {
      "bufferView" : 1,
      "min" : [ -167.635, -1.71248, -177.135 ],
      "max" : [ 159.666, -1.71248, 177.135 ],
      "componentType" : 5126,
      "count" : 570,
      "type" : "VEC3"
    },
    {
      "bufferView" : 2,
      "componentType" : 5126,
      "count" : 570,
      "type" : "VEC3"
    },
    {
      "bufferView" : 3,
      "componentType" : 5126,
      "count" : 570,
      "type" : "VEC4"
    },
    {
      "bufferView" : 4,
      "normalized" : true,
      "componentType" : 5121,
      "count" : 570,
      "type" : "VEC4"
    },
    {
      "bufferView" : 5,
      "componentType" : 5126,
      "count" : 570,
      "type" : "VEC2"
    }
  ]
}
