{
  "asset" : {
    "generator" : "UE Viewer (umodel) build 1590",
    "version" : "2.0"
  },
  "scene" : 0,
  "scenes" : [
    {
      "nodes" : [ 0 ]
    }
  ],
  "nodes" : [
    {
      "name" : "CS_Grounds_Driveway01",
      "mesh" : 0
    }
  ],
  "materials" : [
    {
      "name" : "dummy_material_0",
      "pbrMetallicRoughness" : {
        "baseColorFactor" : [ 0.3, 0.3, 0.3, 1.0 ],
        "metallicFactor" : 0.1,
        "roughnessFactor" : 0.5
      }
    },
    {
      "name" : "dummy_material_1",
      "pbrMetallicRoughness" : {
        "baseColorFactor" : [ 0.9, 0.3, 0.3, 1.0 ],
        "metallicFactor" : 0.1,
        "roughnessFactor" : 0.5
      }
    },
    {
      "name" : "dummy_material_2",
      "pbrMetallicRoughness" : {
        "baseColorFactor" : [ 0.3, 0.9, 0.3, 1.0 ],
        "metallicFactor" : 0.1,
        "roughnessFactor" : 0.5
      }
    }
  ],
  "meshes" : [
    {
      "primitives" : [
        {
          "attributes" : {
            "POSITION" : 1,
            "NORMAL" : 2,
            "TANGENT" : 3,
            "COLOR_0" : 4,
            "TEXCOORD_0" : 5
          },
          "indices" : 0,
          "material" : 0
        },
        {
          "attributes" : {
            "POSITION" : 7,
            "NORMAL" : 8,
            "TANGENT" : 9,
            "COLOR_0" : 10,
            "TEXCOORD_0" : 11
          },
          "indices" : 6,
          "material" : 1
        },
        {
          "attributes" : {
            "POSITION" : 13,
            "NORMAL" : 14,
            "TANGENT" : 15,
            "COLOR_0" : 16,
            "TEXCOORD_0" : 17
          },
          "indices" : 12,
          "material" : 2
        }
      ],
      "name" : "CS_Grounds_Driveway01"
    }
  ],
  "buffers" : [
    {
      "uri" : "CS_Grounds_Driveway01.bin",
      "byteLength" : 87796
    }
  ],
  "bufferViews" : [
    {
      "buffer" : 0,
      "byteOffset" : 0,
      "byteLength" : 192
    },
    {
      "buffer" : 0,
      "byteOffset" : 192,
      "byteLength" : 480
    },
    {
      "buffer" : 0,
      "byteOffset" : 672,
      "byteLength" : 480
    },
    {
      "buffer" : 0,
      "byteOffset" : 1152,
      "byteLength" : 640
    },
    {
      "buffer" : 0,
      "byteOffset" : 1792,
      "byteLength" : 160
    },
    {
      "buffer" : 0,
      "byteOffset" : 1952,
      "byteLength" : 320
    },
    {
      "buffer" : 0,
      "byteOffset" : 2272,
      "byteLength" : 4452
    },
    {
      "buffer" : 0,
      "byteOffset" : 6724,
      "byteLength" : 14160
    },
    {
      "buffer" : 0,
      "byteOffset" : 20884,
      "byteLength" : 14160
    },
    {
      "buffer" : 0,
      "byteOffset" : 35044,
      "byteLength" : 18880
    },
    {
      "buffer" : 0,
      "byteOffset" : 53924,
      "byteLength" : 4720
    },
    {
      "buffer" : 0,
      "byteOffset" : 58644,
      "byteLength" : 9440
    },
    {
      "buffer" : 0,
      "byteOffset" : 68084,
      "byteLength" : 2448
    },
    {
      "buffer" : 0,
      "byteOffset" : 70532,
      "byteLength" : 3984
    },
    {
      "buffer" : 0,
      "byteOffset" : 74516,
      "byteLength" : 3984
    },
    {
      "buffer" : 0,
      "byteOffset" : 78500,
      "byteLength" : 5312
    },
    {
      "buffer" : 0,
      "byteOffset" : 83812,
      "byteLength" : 1328
    },
    {
      "buffer" : 0,
      "byteOffset" : 85140,
      "byteLength" : 2656
    }
  ],
  "accessors" : [
    {
      "bufferView" : 0,
      "componentType" : 5123,
      "count" : 96,
      "type" : "SCALAR"
    },
    {
      "bufferView" : 1,
      "min" : [ -17.7305, -0.27037, -159.185 ],
      "max" : [ 17.7305, -0.0693986, -73.1518 ],
      "componentType" : 5126,
      "count" : 40,
      "type" : "VEC3"
    },
    {
      "bufferView" : 2,
      "componentType" : 5126,
      "count" : 40,
      "type" : "VEC3"
    },
    {
      "bufferView" : 3,
      "componentType" : 5126,
      "count" : 40,
      "type" : "VEC4"
    },
    {
      "bufferView" : 4,
      "normalized" : true,
      "componentType" : 5121,
      "count" : 40,
      "type" : "VEC4"
    },
    {
      "bufferView" : 5,
      "componentType" : 5126,
      "count" : 40,
      "type" : "VEC2"
    },
    {
      "bufferView" : 6,
      "componentType" : 5123,
      "count" : 2226,
      "type" : "SCALAR"
    },
    {
      "bufferView" : 7,
      "min" : [ -21.6304, -1.89829, -377.487 ],
      "max" : [ 69.7553, 0.237491, -61.0707 ],
      "componentType" : 5126,
      "count" : 1180,
      "type" : "VEC3"
    },
    {
      "bufferView" : 8,
      "componentType" : 5126,
      "count" : 1180,
      "type" : "VEC3"
    },
    {
      "bufferView" : 9,
      "componentType" : 5126,
      "count" : 1180,
      "type" : "VEC4"
    },
    {
      "bufferView" : 10,
      "normalized" : true,
      "componentType" : 5121,
      "count" : 1180,
      "type" : "VEC4"
    },
    {
      "bufferView" : 11,
      "componentType" : 5126,
      "count" : 1180,
      "type" : "VEC2"
    },
    {
      "bufferView" : 12,
      "componentType" : 5123,
      "count" : 1224,
      "type" : "SCALAR"
    },
    {
      "bufferView" : 13,
      "min" : [ -20.3362, -0.371463, -376.193 ],
      "max" : [ 69.7452, 0.0990486, -62.7726 ],
      "componentType" : 5126,
      "count" : 332,
      "type" : "VEC3"
    },
    {
      "bufferView" : 14,
      "componentType" : 5126,
      "count" : 332,
      "type" : "VEC3"
    },
    {
      "bufferView" : 15,
      "componentType" : 5126,
      "count" : 332,
      "type" : "VEC4"
    },
    {
      "bufferView" : 16,
      "normalized" : true,
      "componentType" : 5121,
      "count" : 332,
      "type" : "VEC4"
    },
    {
      "bufferView" : 17,
      "componentType" : 5126,
      "count" : 332,
      "type" : "VEC2"
    }
  ]
}
