{
  "asset" : {
    "generator" : "UE Viewer (umodel) build 1590",
    "version" : "2.0"
  },
  "scene" : 0,
  "scenes" : [
    {
      "nodes" : [ 0 ]
    }
  ],
  "nodes" : [
    {
      "name" : "CS_Grounds_Floor02",
      "mesh" : 0
    }
  ],
  "materials" : [
    {
      "name" : "dummy_material_0",
      "pbrMetallicRoughness" : {
        "baseColorFactor" : [ 0.3, 0.3, 0.3, 1.0 ],
        "metallicFactor" : 0.1,
        "roughnessFactor" : 0.5
      }
    },
    {
      "name" : "dummy_material_1",
      "pbrMetallicRoughness" : {
        "baseColorFactor" : [ 0.9, 0.3, 0.3, 1.0 ],
        "metallicFactor" : 0.1,
        "roughnessFactor" : 0.5
      }
    }
  ],
  "meshes" : [
    {
      "primitives" : [
        {
          "attributes" : {
            "POSITION" : 1,
            "NORMAL" : 2,
            "TANGENT" : 3,
            "TEXCOORD_0" : 4,
            "TEXCOORD_1" : 5
          },
          "indices" : 0,
          "material" : 0
        },
        {
          "attributes" : {
            "POSITION" : 7,
            "NORMAL" : 8,
            "TANGENT" : 9,
            "TEXCOORD_0" : 10,
            "TEXCOORD_1" : 11
          },
          "indices" : 6,
          "material" : 1
        }
      ],
      "name" : "CS_Grounds_Floor02"
    }
  ],
  "buffers" : [
    {
      "uri" : "CS_Grounds_Floor02.bin",
      "byteLength" : 21360
    }
  ],
  "bufferViews" : [
    {
      "buffer" : 0,
      "byteOffset" : 0,
      "byteLength" : 2240
    },
    {
      "buffer" : 0,
      "byteOffset" : 2240,
      "byteLength" : 2832
    },
    {
      "buffer" : 0,
      "byteOffset" : 5072,
      "byteLength" : 2832
    },
    {
      "buffer" : 0,
      "byteOffset" : 7904,
      "byteLength" : 3776
    },
    {
      "buffer" : 0,
      "byteOffset" : 11680,
      "byteLength" : 1888
    },
    {
      "buffer" : 0,
      "byteOffset" : 13568,
      "byteLength" : 1888
    },
    {
      "buffer" : 0,
      "byteOffset" : 15456,
      "byteLength" : 864
    },
    {
      "buffer" : 0,
      "byteOffset" : 16320,
      "byteLength" : 1080
    },
    {
      "buffer" : 0,
      "byteOffset" : 17400,
      "byteLength" : 1080
    },
    {
      "buffer" : 0,
      "byteOffset" : 18480,
      "byteLength" : 1440
    },
    {
      "buffer" : 0,
      "byteOffset" : 19920,
      "byteLength" : 720
    },
    {
      "buffer" : 0,
      "byteOffset" : 20640,
      "byteLength" : 720
    }
  ],
  "accessors" : [
    {
      "bufferView" : 0,
      "componentType" : 5123,
      "count" : 1119,
      "type" : "SCALAR"
    },
    {
      "bufferView" : 1,
      "min" : [ -5.21576e-10, -0.898142, -1.02808e-14 ],
      "max" : [ 83.5002, -0.898142, 89.1235 ],
      "componentType" : 5126,
      "count" : 236,
      "type" : "VEC3"
    },
    {
      "bufferView" : 2,
      "componentType" : 5126,
      "count" : 236,
      "type" : "VEC3"
    },
    {
      "bufferView" : 3,
      "componentType" : 5126,
      "count" : 236,
      "type" : "VEC4"
    },
    {
      "bufferView" : 4,
      "componentType" : 5126,
      "count" : 236,
      "type" : "VEC2"
    },
    {
      "bufferView" : 5,
      "componentType" : 5126,
      "count" : 236,
      "type" : "VEC2"
    },
    {
      "bufferView" : 6,
      "componentType" : 5123,
      "count" : 432,
      "type" : "SCALAR"
    },
    {
      "bufferView" : 7,
      "min" : [ -2.58675e-08, -0.898142, -5.2608e-15 ],
      "max" : [ 42.5139, -0.898142, 60.8517 ],
      "componentType" : 5126,
      "count" : 90,
      "type" : "VEC3"
    },
    {
      "bufferView" : 8,
      "componentType" : 5126,
      "count" : 90,
      "type" : "VEC3"
    },
    {
      "bufferView" : 9,
      "componentType" : 5126,
      "count" : 90,
      "type" : "VEC4"
    },
    {
      "bufferView" : 10,
      "componentType" : 5126,
      "count" : 90,
      "type" : "VEC2"
    },
    {
      "bufferView" : 11,
      "componentType" : 5126,
      "count" : 90,
      "type" : "VEC2"
    }
  ]
}
