{
  "asset" : {
    "generator" : "UE Viewer (umodel) build 1590",
    "version" : "2.0"
  },
  "scene" : 0,
  "scenes" : [
    {
      "nodes" : [ 0 ]
    }
  ],
  "nodes" : [
    {
      "name" : "CS_Grounds_Grass01",
      "mesh" : 0
    }
  ],
  "materials" : [
    {
      "name" : "dummy_material_0",
      "pbrMetallicRoughness" : {
        "baseColorFactor" : [ 0.3, 0.3, 0.3, 1.0 ],
        "metallicFactor" : 0.1,
        "roughnessFactor" : 0.5
      }
    }
  ],
  "meshes" : [
    {
      "primitives" : [
        {
          "attributes" : {
            "POSITION" : 1,
            "NORMAL" : 2,
            "TANGENT" : 3,
            "COLOR_0" : 4,
            "TEXCOORD_0" : 5
          },
          "indices" : 0,
          "material" : 0
        }
      ],
      "name" : "CS_Grounds_Grass01"
    }
  ],
  "buffers" : [
    {
      "uri" : "CS_Grounds_Grass01.bin",
      "byteLength" : 1252
    }
  ],
  "bufferViews" : [
    {
      "buffer" : 0,
      "byteOffset" : 0,
      "byteLength" : 108
    },
    {
      "buffer" : 0,
      "byteOffset" : 108,
      "byteLength" : 264
    },
    {
      "buffer" : 0,
      "byteOffset" : 372,
      "byteLength" : 264
    },
    {
      "buffer" : 0,
      "byteOffset" : 636,
      "byteLength" : 352
    },
    {
      "buffer" : 0,
      "byteOffset" : 988,
      "byteLength" : 88
    },
    {
      "buffer" : 0,
      "byteOffset" : 1076,
      "byteLength" : 176
    }
  ],
  "accessors" : [
    {
      "bufferView" : 0,
      "componentType" : 5123,
      "count" : 54,
      "type" : "SCALAR"
    },
    {
      "bufferView" : 1,
      "min" : [ -82.8351, -0.82389, -88.5226 ],
      "max" : [ -20.0891, -0.82389, 7.87899e-17 ],
      "componentType" : 5126,
      "count" : 22,
      "type" : "VEC3"
    },
    {
      "bufferView" : 2,
      "componentType" : 5126,
      "count" : 22,
      "type" : "VEC3"
    },
    {
      "bufferView" : 3,
      "componentType" : 5126,
      "count" : 22,
      "type" : "VEC4"
    },
    {
      "bufferView" : 4,
      "normalized" : true,
      "componentType" : 5121,
      "count" : 22,
      "type" : "VEC4"
    },
    {
      "bufferView" : 5,
      "componentType" : 5126,
      "count" : 22,
      "type" : "VEC2"
    }
  ]
}
