{
  "asset" : {
    "generator" : "UE Viewer (umodel) build 1590",
    "version" : "2.0"
  },
  "scene" : 0,
  "scenes" : [
    {
      "nodes" : [ 0 ]
    }
  ],
  "nodes" : [
    {
      "name" : "CS_Lattice_01",
      "mesh" : 0
    }
  ],
  "materials" : [
    {
      "name" : "dummy_material_0",
      "pbrMetallicRoughness" : {
        "baseColorFactor" : [ 0.3, 0.3, 0.3, 1.0 ],
        "metallicFactor" : 0.1,
        "roughnessFactor" : 0.5
      }
    }
  ],
  "meshes" : [
    {
      "primitives" : [
        {
          "attributes" : {
            "POSITION" : 1,
            "NORMAL" : 2,
            "TANGENT" : 3,
            "COLOR_0" : 4,
            "TEXCOORD_0" : 5,
            "TEXCOORD_1" : 6,
            "TEXCOORD_2" : 7
          },
          "indices" : 0,
          "material" : 0
        }
      ],
      "name" : "CS_Lattice_01"
    }
  ],
  "buffers" : [
    {
      "uri" : "CS_Lattice_01.bin",
      "byteLength" : 357600
    }
  ],
  "bufferViews" : [
    {
      "buffer" : 0,
      "byteOffset" : 0,
      "byteLength" : 27120
    },
    {
      "buffer" : 0,
      "byteOffset" : 27120,
      "byteLength" : 58320
    },
    {
      "buffer" : 0,
      "byteOffset" : 85440,
      "byteLength" : 58320
    },
    {
      "buffer" : 0,
      "byteOffset" : 143760,
      "byteLength" : 77760
    },
    {
      "buffer" : 0,
      "byteOffset" : 221520,
      "byteLength" : 19440
    },
    {
      "buffer" : 0,
      "byteOffset" : 240960,
      "byteLength" : 38880
    },
    {
      "buffer" : 0,
      "byteOffset" : 279840,
      "byteLength" : 38880
    },
    {
      "buffer" : 0,
      "byteOffset" : 318720,
      "byteLength" : 38880
    }
  ],
  "accessors" : [
    {
      "bufferView" : 0,
      "componentType" : 5123,
      "count" : 13560,
      "type" : "SCALAR"
    },
    {
      "bufferView" : 1,
      "min" : [ -41.0473, 3.3079, -51.2838 ],
      "max" : [ 41.0473, 20.5551, 51.2838 ],
      "componentType" : 5126,
      "count" : 4860,
      "type" : "VEC3"
    },
    {
      "bufferView" : 2,
      "componentType" : 5126,
      "count" : 4860,
      "type" : "VEC3"
    },
    {
      "bufferView" : 3,
      "componentType" : 5126,
      "count" : 4860,
      "type" : "VEC4"
    },
    {
      "bufferView" : 4,
      "normalized" : true,
      "componentType" : 5121,
      "count" : 4860,
      "type" : "VEC4"
    },
    {
      "bufferView" : 5,
      "componentType" : 5126,
      "count" : 4860,
      "type" : "VEC2"
    },
    {
      "bufferView" : 6,
      "componentType" : 5126,
      "count" : 4860,
      "type" : "VEC2"
    },
    {
      "bufferView" : 7,
      "componentType" : 5126,
      "count" : 4860,
      "type" : "VEC2"
    }
  ]
}
