{
  "asset" : {
    "generator" : "UE Viewer (umodel) build 1590",
    "version" : "2.0"
  },
  "scene" : 0,
  "scenes" : [
    {
      "nodes" : [ 0 ]
    }
  ],
  "nodes" : [
    {
      "name" : "Grass_Base_Flat",
      "mesh" : 0
    }
  ],
  "materials" : [
    {
      "name" : "dummy_material_0",
      "pbrMetallicRoughness" : {
        "baseColorFactor" : [ 0.3, 0.3, 0.3, 1.0 ],
        "metallicFactor" : 0.1,
        "roughnessFactor" : 0.5
      }
    }
  ],
  "meshes" : [
    {
      "primitives" : [
        {
          "attributes" : {
            "POSITION" : 1,
            "NORMAL" : 2,
            "TANGENT" : 3,
            "TEXCOORD_0" : 4
          },
          "indices" : 0,
          "material" : 0
        }
      ],
      "name" : "Grass_Base_Flat"
    }
  ],
  "buffers" : [
    {
      "uri" : "Grass_Base_Flat.bin",
      "byteLength" : 90240
    }
  ],
  "bufferViews" : [
    {
      "buffer" : 0,
      "byteOffset" : 0,
      "byteLength" : 15072
    },
    {
      "buffer" : 0,
      "byteOffset" : 15072,
      "byteLength" : 18792
    },
    {
      "buffer" : 0,
      "byteOffset" : 33864,
      "byteLength" : 18792
    },
    {
      "buffer" : 0,
      "byteOffset" : 52656,
      "byteLength" : 25056
    },
    {
      "buffer" : 0,
      "byteOffset" : 77712,
      "byteLength" : 12528
    }
  ],
  "accessors" : [
    {
      "bufferView" : 0,
      "componentType" : 5123,
      "count" : 7536,
      "type" : "SCALAR"
    },
    {
      "bufferView" : 1,
      "min" : [ -38.07, -0.00243706, -55.9574 ],
      "max" : [ 38.07, 0.0943943, 55.9574 ],
      "componentType" : 5126,
      "count" : 1566,
      "type" : "VEC3"
    },
    {
      "bufferView" : 2,
      "componentType" : 5126,
      "count" : 1566,
      "type" : "VEC3"
    },
    {
      "bufferView" : 3,
      "componentType" : 5126,
      "count" : 1566,
      "type" : "VEC4"
    },
    {
      "bufferView" : 4,
      "componentType" : 5126,
      "count" : 1566,
      "type" : "VEC2"
    }
  ]
}
