{
  "asset" : {
    "generator" : "UE Viewer (umodel) build 1590",
    "version" : "2.0"
  },
  "scene" : 0,
  "scenes" : [
    {
      "nodes" : [ 0 ]
    }
  ],
  "nodes" : [
    {
      "name" : "Field_STD_Collision_SideBot_Half",
      "mesh" : 0
    }
  ],
  "materials" : [
    {
      "name" : "dummy_material_0",
      "pbrMetallicRoughness" : {
        "baseColorFactor" : [ 0.3, 0.3, 0.3, 1.0 ],
        "metallicFactor" : 0.1,
        "roughnessFactor" : 0.5
      }
    }
  ],
  "meshes" : [
    {
      "primitives" : [
        {
          "attributes" : {
            "POSITION" : 1,
            "NORMAL" : 2,
            "TANGENT" : 3,
            "TEXCOORD_0" : 4
          },
          "indices" : 0,
          "material" : 0
        }
      ],
      "name" : "Field_STD_Collision_SideBot_Half"
    }
  ],
  "buffers" : [
    {
      "uri" : "Field_STD_Collision_SideBot_Half.bin",
      "byteLength" : 7284
    }
  ],
  "bufferViews" : [
    {
      "buffer" : 0,
      "byteOffset" : 0,
      "byteLength" : 756
    },
    {
      "buffer" : 0,
      "byteOffset" : 756,
      "byteLength" : 1632
    },
    {
      "buffer" : 0,
      "byteOffset" : 2388,
      "byteLength" : 1632
    },
    {
      "buffer" : 0,
      "byteOffset" : 4020,
      "byteLength" : 2176
    },
    {
      "buffer" : 0,
      "byteOffset" : 6196,
      "byteLength" : 1088
    }
  ],
  "accessors" : [
    {
      "bufferView" : 0,
      "componentType" : 5123,
      "count" : 378,
      "type" : "SCALAR"
    },
    {
      "bufferView" : 1,
      "min" : [ 37.1264, -0.128596, -2.09499e-08 ],
      "max" : [ 41.06, 3.55013, 38.4 ],
      "componentType" : 5126,
      "count" : 136,
      "type" : "VEC3"
    },
    {
      "bufferView" : 2,
      "componentType" : 5126,
      "count" : 136,
      "type" : "VEC3"
    },
    {
      "bufferView" : 3,
      "componentType" : 5126,
      "count" : 136,
      "type" : "VEC4"
    },
    {
      "bufferView" : 4,
      "componentType" : 5126,
      "count" : 136,
      "type" : "VEC2"
    }
  ]
}
