{
  "asset" : {
    "generator" : "UE Viewer (umodel) build 1590",
    "version" : "2.0"
  },
  "scene" : 0,
  "scenes" : [
    {
      "nodes" : [ 0 ]
    }
  ],
  "nodes" : [
    {
      "name" : "Field_STD_Collision_SideBot",
      "mesh" : 0
    }
  ],
  "materials" : [
    {
      "name" : "dummy_material_0",
      "pbrMetallicRoughness" : {
        "baseColorFactor" : [ 0.3, 0.3, 0.3, 1.0 ],
        "metallicFactor" : 0.1,
        "roughnessFactor" : 0.5
      }
    }
  ],
  "meshes" : [
    {
      "primitives" : [
        {
          "attributes" : {
            "POSITION" : 1,
            "NORMAL" : 2,
            "TANGENT" : 3,
            "TEXCOORD_0" : 4
          },
          "indices" : 0,
          "material" : 0
        }
      ],
      "name" : "Field_STD_Collision_SideBot"
    }
  ],
  "buffers" : [
    {
      "uri" : "Field_STD_Collision_SideBot.bin",
      "byteLength" : 8712
    }
  ],
  "bufferViews" : [
    {
      "buffer" : 0,
      "byteOffset" : 0,
      "byteLength" : 1512
    },
    {
      "buffer" : 0,
      "byteOffset" : 1512,
      "byteLength" : 1800
    },
    {
      "buffer" : 0,
      "byteOffset" : 3312,
      "byteLength" : 1800
    },
    {
      "buffer" : 0,
      "byteOffset" : 5112,
      "byteLength" : 2400
    },
    {
      "buffer" : 0,
      "byteOffset" : 7512,
      "byteLength" : 1200
    }
  ],
  "accessors" : [
    {
      "bufferView" : 0,
      "componentType" : 5123,
      "count" : 756,
      "type" : "SCALAR"
    },
    {
      "bufferView" : 1,
      "min" : [ 37.1264, -0.12859, -38.4 ],
      "max" : [ 41.06, 3.55013, 38.4 ],
      "componentType" : 5126,
      "count" : 150,
      "type" : "VEC3"
    },
    {
      "bufferView" : 2,
      "componentType" : 5126,
      "count" : 150,
      "type" : "VEC3"
    },
    {
      "bufferView" : 3,
      "componentType" : 5126,
      "count" : 150,
      "type" : "VEC4"
    },
    {
      "bufferView" : 4,
      "componentType" : 5126,
      "count" : 150,
      "type" : "VEC2"
    }
  ]
}
