{
  "asset" : {
    "generator" : "UE Viewer (umodel) build 1590",
    "version" : "2.0"
  },
  "scene" : 0,
  "scenes" : [
    {
      "nodes" : [ 0 ]
    }
  ],
  "nodes" : [
    {
      "name" : "Field_STD_Collision_Corner",
      "mesh" : 0
    }
  ],
  "materials" : [
    {
      "name" : "dummy_material_0",
      "pbrMetallicRoughness" : {
        "baseColorFactor" : [ 0.3, 0.3, 0.3, 1.0 ],
        "metallicFactor" : 0.1,
        "roughnessFactor" : 0.5
      }
    }
  ],
  "meshes" : [
    {
      "primitives" : [
        {
          "attributes" : {
            "POSITION" : 1,
            "NORMAL" : 2,
            "TANGENT" : 3,
            "COLOR_0" : 4,
            "TEXCOORD_0" : 5
          },
          "indices" : 0,
          "material" : 0
        }
      ],
      "name" : "Field_STD_Collision_Corner"
    }
  ],
  "buffers" : [
    {
      "uri" : "Field_STD_Collision_Corner.bin",
      "byteLength" : 116040
    }
  ],
  "bufferViews" : [
    {
      "buffer" : 0,
      "byteOffset" : 0,
      "byteLength" : 5280
    },
    {
      "buffer" : 0,
      "byteOffset" : 5280,
      "byteLength" : 25560
    },
    {
      "buffer" : 0,
      "byteOffset" : 30840,
      "byteLength" : 25560
    },
    {
      "buffer" : 0,
      "byteOffset" : 56400,
      "byteLength" : 34080
    },
    {
      "buffer" : 0,
      "byteOffset" : 90480,
      "byteLength" : 8520
    },
    {
      "buffer" : 0,
      "byteOffset" : 99000,
      "byteLength" : 17040
    }
  ],
  "accessors" : [
    {
      "bufferView" : 0,
      "componentType" : 5123,
      "count" : 2640,
      "type" : "SCALAR"
    },
    {
      "bufferView" : 1,
      "min" : [ 24.2636, -0.132678, 33.2621 ],
      "max" : [ 41.0691, 20.7092, 51.2534 ],
      "componentType" : 5126,
      "count" : 2130,
      "type" : "VEC3"
    },
    {
      "bufferView" : 2,
      "componentType" : 5126,
      "count" : 2130,
      "type" : "VEC3"
    },
    {
      "bufferView" : 3,
      "componentType" : 5126,
      "count" : 2130,
      "type" : "VEC4"
    },
    {
      "bufferView" : 4,
      "normalized" : true,
      "componentType" : 5121,
      "count" : 2130,
      "type" : "VEC4"
    },
    {
      "bufferView" : 5,
      "componentType" : 5126,
      "count" : 2130,
      "type" : "VEC2"
    }
  ]
}
