{
  "asset" : {
    "generator" : "UE Viewer (umodel) build 1590",
    "version" : "2.0"
  },
  "scene" : 0,
  "scenes" : [
    {
      "nodes" : [ 0 ]
    }
  ],
  "nodes" : [
    {
      "name" : "Goal_STD_Collision_Half_Goal_STD_Collision",
      "mesh" : 0
    }
  ],
  "materials" : [
    {
      "name" : "dummy_material_0",
      "pbrMetallicRoughness" : {
        "baseColorFactor" : [ 0.3, 0.3, 0.3, 1.0 ],
        "metallicFactor" : 0.1,
        "roughnessFactor" : 0.5
      }
    }
  ],
  "meshes" : [
    {
      "primitives" : [
        {
          "attributes" : {
            "POSITION" : 1,
            "NORMAL" : 2,
            "TANGENT" : 3,
            "COLOR_0" : 4,
            "TEXCOORD_0" : 5
          },
          "indices" : 0,
          "material" : 0
        }
      ],
      "name" : "Goal_STD_Collision_Half_Goal_STD_Collision"
    }
  ],
  "buffers" : [
    {
      "uri" : "Goal_STD_Collision_Half_Goal_STD_Collision.bin",
      "byteLength" : 151032
    }
  ],
  "bufferViews" : [
    {
      "buffer" : 0,
      "byteOffset" : 0,
      "byteLength" : 5900
    },
    {
      "buffer" : 0,
      "byteOffset" : 5900,
      "byteLength" : 33492
    },
    {
      "buffer" : 0,
      "byteOffset" : 39392,
      "byteLength" : 33492
    },
    {
      "buffer" : 0,
      "byteOffset" : 72884,
      "byteLength" : 44656
    },
    {
      "buffer" : 0,
      "byteOffset" : 117540,
      "byteLength" : 11164
    },
    {
      "buffer" : 0,
      "byteOffset" : 128704,
      "byteLength" : 22328
    }
  ],
  "accessors" : [
    {
      "bufferView" : 0,
      "componentType" : 5123,
      "count" : 2949,
      "type" : "SCALAR"
    },
    {
      "bufferView" : 1,
      "min" : [ -26.88, -0.0857868, -7.83913 ],
      "max" : [ 0.00043457, 20.7545, 8.79996 ],
      "componentType" : 5126,
      "count" : 2791,
      "type" : "VEC3"
    },
    {
      "bufferView" : 2,
      "componentType" : 5126,
      "count" : 2791,
      "type" : "VEC3"
    },
    {
      "bufferView" : 3,
      "componentType" : 5126,
      "count" : 2791,
      "type" : "VEC4"
    },
    {
      "bufferView" : 4,
      "normalized" : true,
      "componentType" : 5121,
      "count" : 2791,
      "type" : "VEC4"
    },
    {
      "bufferView" : 5,
      "componentType" : 5126,
      "count" : 2791,
      "type" : "VEC2"
    }
  ]
}
