{
  "asset" : {
    "generator" : "UE Viewer (umodel) build 1590",
    "version" : "2.0"
  },
  "scene" : 0,
  "scenes" : [
    {
      "nodes" : [ 0 ]
    }
  ],
  "nodes" : [
    {
      "name" : "CS_Crowd_Final_01",
      "mesh" : 0
    }
  ],
  "materials" : [
    {
      "name" : "dummy_material_0",
      "pbrMetallicRoughness" : {
        "baseColorFactor" : [ 0.3, 0.3, 0.3, 1.0 ],
        "metallicFactor" : 0.1,
        "roughnessFactor" : 0.5
      }
    }
  ],
  "meshes" : [
    {
      "primitives" : [
        {
          "attributes" : {
            "POSITION" : 1,
            "NORMAL" : 2,
            "TANGENT" : 3,
            "TEXCOORD_0" : 4,
            "TEXCOORD_1" : 5
          },
          "indices" : 0,
          "material" : 0
        }
      ],
      "name" : "CS_Crowd_Final_01"
    }
  ],
  "buffers" : [
    {
      "uri" : "CS_Crowd_Final_01.bin",
      "byteLength" : 3048412
    }
  ],
  "bufferViews" : [
    {
      "buffer" : 0,
      "byteOffset" : 0,
      "byteLength" : 155004
    },
    {
      "buffer" : 0,
      "byteOffset" : 155004,
      "byteLength" : 620016
    },
    {
      "buffer" : 0,
      "byteOffset" : 775020,
      "byteLength" : 620016
    },
    {
      "buffer" : 0,
      "byteOffset" : 1395036,
      "byteLength" : 826688
    },
    {
      "buffer" : 0,
      "byteOffset" : 2221724,
      "byteLength" : 413344
    },
    {
      "buffer" : 0,
      "byteOffset" : 2635068,
      "byteLength" : 413344
    }
  ],
  "accessors" : [
    {
      "bufferView" : 0,
      "componentType" : 5123,
      "count" : 77502,
      "type" : "SCALAR"
    },
    {
      "bufferView" : 1,
      "min" : [ -100.483, 1.95193, -0.0831139 ],
      "max" : [ 94.9343, 36.4557, 103.948 ],
      "componentType" : 5126,
      "count" : 51668,
      "type" : "VEC3"
    },
    {
      "bufferView" : 2,
      "componentType" : 5126,
      "count" : 51668,
      "type" : "VEC3"
    },
    {
      "bufferView" : 3,
      "componentType" : 5126,
      "count" : 51668,
      "type" : "VEC4"
    },
    {
      "bufferView" : 4,
      "componentType" : 5126,
      "count" : 51668,
      "type" : "VEC2"
    },
    {
      "bufferView" : 5,
      "componentType" : 5126,
      "count" : 51668,
      "type" : "VEC2"
    }
  ]
}
