{
  "asset" : {
    "generator" : "UE Viewer (umodel) build 1590",
    "version" : "2.0"
  },
  "scene" : 0,
  "scenes" : [
    {
      "nodes" : [ 0 ]
    }
  ],
  "nodes" : [
    {
      "name" : "CS_CornerArrows",
      "mesh" : 0
    }
  ],
  "materials" : [
    {
      "name" : "dummy_material_0",
      "pbrMetallicRoughness" : {
        "baseColorFactor" : [ 0.3, 0.3, 0.3, 1.0 ],
        "metallicFactor" : 0.1,
        "roughnessFactor" : 0.5
      }
    }
  ],
  "meshes" : [
    {
      "primitives" : [
        {
          "attributes" : {
            "POSITION" : 1,
            "NORMAL" : 2,
            "TANGENT" : 3,
            "TEXCOORD_0" : 4,
            "TEXCOORD_1" : 5,
            "TEXCOORD_2" : 6
          },
          "indices" : 0,
          "material" : 0
        }
      ],
      "name" : "CS_CornerArrows"
    }
  ],
  "buffers" : [
    {
      "uri" : "CS_CornerArrows.bin",
      "byteLength" : 15328
    }
  ],
  "bufferViews" : [
    {
      "buffer" : 0,
      "byteOffset" : 0,
      "byteLength" : 1248
    },
    {
      "buffer" : 0,
      "byteOffset" : 1248,
      "byteLength" : 2640
    },
    {
      "buffer" : 0,
      "byteOffset" : 3888,
      "byteLength" : 2640
    },
    {
      "buffer" : 0,
      "byteOffset" : 6528,
      "byteLength" : 3520
    },
    {
      "buffer" : 0,
      "byteOffset" : 10048,
      "byteLength" : 1760
    },
    {
      "buffer" : 0,
      "byteOffset" : 11808,
      "byteLength" : 1760
    },
    {
      "buffer" : 0,
      "byteOffset" : 13568,
      "byteLength" : 1760
    }
  ],
  "accessors" : [
    {
      "bufferView" : 0,
      "componentType" : 5123,
      "count" : 624,
      "type" : "SCALAR"
    },
    {
      "bufferView" : 1,
      "min" : [ -16.2115, 2.32211, -20.243 ],
      "max" : [ 16.2115, 3.49504, 20.243 ],
      "componentType" : 5126,
      "count" : 220,
      "type" : "VEC3"
    },
    {
      "bufferView" : 2,
      "componentType" : 5126,
      "count" : 220,
      "type" : "VEC3"
    },
    {
      "bufferView" : 3,
      "componentType" : 5126,
      "count" : 220,
      "type" : "VEC4"
    },
    {
      "bufferView" : 4,
      "componentType" : 5126,
      "count" : 220,
      "type" : "VEC2"
    },
    {
      "bufferView" : 5,
      "componentType" : 5126,
      "count" : 220,
      "type" : "VEC2"
    },
    {
      "bufferView" : 6,
      "componentType" : 5126,
      "count" : 220,
      "type" : "VEC2"
    }
  ]
}
