{
  "asset" : {
    "generator" : "UE Viewer (umodel) build 1590",
    "version" : "2.0"
  },
  "scene" : 0,
  "scenes" : [
    {
      "nodes" : [ 0 ]
    }
  ],
  "nodes" : [
    {
      "name" : "CS_Crowd_Final_02",
      "mesh" : 0
    }
  ],
  "materials" : [
    {
      "name" : "dummy_material_0",
      "pbrMetallicRoughness" : {
        "baseColorFactor" : [ 0.3, 0.3, 0.3, 1.0 ],
        "metallicFactor" : 0.1,
        "roughnessFactor" : 0.5
      }
    }
  ],
  "meshes" : [
    {
      "primitives" : [
        {
          "attributes" : {
            "POSITION" : 1,
            "NORMAL" : 2,
            "TANGENT" : 3,
            "TEXCOORD_0" : 4,
            "TEXCOORD_1" : 5
          },
          "indices" : 0,
          "material" : 0
        }
      ],
      "name" : "CS_Crowd_Final_02"
    }
  ],
  "buffers" : [
    {
      "uri" : "CS_Crowd_Final_02.bin",
      "byteLength" : 3045344
    }
  ],
  "bufferViews" : [
    {
      "buffer" : 0,
      "byteOffset" : 0,
      "byteLength" : 154848
    },
    {
      "buffer" : 0,
      "byteOffset" : 154848,
      "byteLength" : 619392
    },
    {
      "buffer" : 0,
      "byteOffset" : 774240,
      "byteLength" : 619392
    },
    {
      "buffer" : 0,
      "byteOffset" : 1393632,
      "byteLength" : 825856
    },
    {
      "buffer" : 0,
      "byteOffset" : 2219488,
      "byteLength" : 412928
    },
    {
      "buffer" : 0,
      "byteOffset" : 2632416,
      "byteLength" : 412928
    }
  ],
  "accessors" : [
    {
      "bufferView" : 0,
      "componentType" : 5123,
      "count" : 77424,
      "type" : "SCALAR"
    },
    {
      "bufferView" : 1,
      "min" : [ -100.483, 1.95193, -103.948 ],
      "max" : [ 94.9343, 36.4557, 0.205982 ],
      "componentType" : 5126,
      "count" : 51616,
      "type" : "VEC3"
    },
    {
      "bufferView" : 2,
      "componentType" : 5126,
      "count" : 51616,
      "type" : "VEC3"
    },
    {
      "bufferView" : 3,
      "componentType" : 5126,
      "count" : 51616,
      "type" : "VEC4"
    },
    {
      "bufferView" : 4,
      "componentType" : 5126,
      "count" : 51616,
      "type" : "VEC2"
    },
    {
      "bufferView" : 5,
      "componentType" : 5126,
      "count" : 51616,
      "type" : "VEC2"
    }
  ]
}
