{
  "asset" : {
    "generator" : "UE Viewer (umodel) build 1590",
    "version" : "2.0"
  },
  "scene" : 0,
  "scenes" : [
    {
      "nodes" : [ 0 ]
    }
  ],
  "nodes" : [
    {
      "name" : "CS_Crowd_Final_Statue",
      "mesh" : 0
    }
  ],
  "materials" : [
    {
      "name" : "dummy_material_0",
      "pbrMetallicRoughness" : {
        "baseColorFactor" : [ 0.3, 0.3, 0.3, 1.0 ],
        "metallicFactor" : 0.1,
        "roughnessFactor" : 0.5
      }
    },
    {
      "name" : "dummy_material_1",
      "pbrMetallicRoughness" : {
        "baseColorFactor" : [ 0.9, 0.3, 0.3, 1.0 ],
        "metallicFactor" : 0.1,
        "roughnessFactor" : 0.5
      }
    }
  ],
  "meshes" : [
    {
      "primitives" : [
        {
          "attributes" : {
            "POSITION" : 1,
            "NORMAL" : 2,
            "TANGENT" : 3,
            "TEXCOORD_0" : 4,
            "TEXCOORD_1" : 5
          },
          "indices" : 0,
          "material" : 0
        },
        {
          "attributes" : {
            "POSITION" : 7,
            "NORMAL" : 8,
            "TANGENT" : 9,
            "TEXCOORD_0" : 10,
            "TEXCOORD_1" : 11
          },
          "indices" : 6,
          "material" : 1
        }
      ],
      "name" : "CS_Crowd_Final_Statue"
    }
  ],
  "buffers" : [
    {
      "uri" : "CS_Crowd_Final_Statue.bin",
      "byteLength" : 19116
    }
  ],
  "bufferViews" : [
    {
      "buffer" : 0,
      "byteOffset" : 0,
      "byteLength" : 612
    },
    {
      "buffer" : 0,
      "byteOffset" : 612,
      "byteLength" : 2448
    },
    {
      "buffer" : 0,
      "byteOffset" : 3060,
      "byteLength" : 2448
    },
    {
      "buffer" : 0,
      "byteOffset" : 5508,
      "byteLength" : 3264
    },
    {
      "buffer" : 0,
      "byteOffset" : 8772,
      "byteLength" : 1632
    },
    {
      "buffer" : 0,
      "byteOffset" : 10404,
      "byteLength" : 1632
    },
    {
      "buffer" : 0,
      "byteOffset" : 12036,
      "byteLength" : 360
    },
    {
      "buffer" : 0,
      "byteOffset" : 12396,
      "byteLength" : 1440
    },
    {
      "buffer" : 0,
      "byteOffset" : 13836,
      "byteLength" : 1440
    },
    {
      "buffer" : 0,
      "byteOffset" : 15276,
      "byteLength" : 1920
    },
    {
      "buffer" : 0,
      "byteOffset" : 17196,
      "byteLength" : 960
    },
    {
      "buffer" : 0,
      "byteOffset" : 18156,
      "byteLength" : 960
    }
  ],
  "accessors" : [
    {
      "bufferView" : 0,
      "componentType" : 5123,
      "count" : 306,
      "type" : "SCALAR"
    },
    {
      "bufferView" : 1,
      "min" : [ 38.5618, 1.33514, 5.68537 ],
      "max" : [ 54.7029, 5.40524, 20.5023 ],
      "componentType" : 5126,
      "count" : 204,
      "type" : "VEC3"
    },
    {
      "bufferView" : 2,
      "componentType" : 5126,
      "count" : 204,
      "type" : "VEC3"
    },
    {
      "bufferView" : 3,
      "componentType" : 5126,
      "count" : 204,
      "type" : "VEC4"
    },
    {
      "bufferView" : 4,
      "componentType" : 5126,
      "count" : 204,
      "type" : "VEC2"
    },
    {
      "bufferView" : 5,
      "componentType" : 5126,
      "count" : 204,
      "type" : "VEC2"
    },
    {
      "bufferView" : 6,
      "componentType" : 5123,
      "count" : 180,
      "type" : "SCALAR"
    },
    {
      "bufferView" : 7,
      "min" : [ 39.9435, 1.63074, -19.8635 ],
      "max" : [ 51.0615, 5.35031, -6.05413 ],
      "componentType" : 5126,
      "count" : 120,
      "type" : "VEC3"
    },
    {
      "bufferView" : 8,
      "componentType" : 5126,
      "count" : 120,
      "type" : "VEC3"
    },
    {
      "bufferView" : 9,
      "componentType" : 5126,
      "count" : 120,
      "type" : "VEC4"
    },
    {
      "bufferView" : 10,
      "componentType" : 5126,
      "count" : 120,
      "type" : "VEC2"
    },
    {
      "bufferView" : 11,
      "componentType" : 5126,
      "count" : 120,
      "type" : "VEC2"
    }
  ]
}
