{
  "asset" : {
    "generator" : "UE Viewer (umodel) build 1590",
    "version" : "2.0"
  },
  "scene" : 0,
  "scenes" : [
    {
      "nodes" : [ 0 ]
    }
  ],
  "nodes" : [
    {
      "name" : "CS_CountryFlags",
      "mesh" : 0
    }
  ],
  "materials" : [
    {
      "name" : "dummy_material_0",
      "pbrMetallicRoughness" : {
        "baseColorFactor" : [ 0.3, 0.3, 0.3, 1.0 ],
        "metallicFactor" : 0.1,
        "roughnessFactor" : 0.5
      }
    },
    {
      "name" : "dummy_material_1",
      "pbrMetallicRoughness" : {
        "baseColorFactor" : [ 0.9, 0.3, 0.3, 1.0 ],
        "metallicFactor" : 0.1,
        "roughnessFactor" : 0.5
      }
    }
  ],
  "meshes" : [
    {
      "primitives" : [
        {
          "attributes" : {
            "POSITION" : 1,
            "NORMAL" : 2,
            "TANGENT" : 3,
            "TEXCOORD_0" : 4,
            "TEXCOORD_1" : 5,
            "TEXCOORD_2" : 6
          },
          "indices" : 0,
          "material" : 0
        },
        {
          "attributes" : {
            "POSITION" : 8,
            "NORMAL" : 9,
            "TANGENT" : 10,
            "TEXCOORD_0" : 11,
            "TEXCOORD_1" : 12,
            "TEXCOORD_2" : 13
          },
          "indices" : 7,
          "material" : 1
        }
      ],
      "name" : "CS_CountryFlags"
    }
  ],
  "buffers" : [
    {
      "uri" : "CS_CountryFlags.bin",
      "byteLength" : 327736
    }
  ],
  "bufferViews" : [
    {
      "buffer" : 0,
      "byteOffset" : 0,
      "byteLength" : 39072
    },
    {
      "buffer" : 0,
      "byteOffset" : 39072,
      "byteLength" : 49128
    },
    {
      "buffer" : 0,
      "byteOffset" : 88200,
      "byteLength" : 49128
    },
    {
      "buffer" : 0,
      "byteOffset" : 137328,
      "byteLength" : 65504
    },
    {
      "buffer" : 0,
      "byteOffset" : 202832,
      "byteLength" : 32752
    },
    {
      "buffer" : 0,
      "byteOffset" : 235584,
      "byteLength" : 32752
    },
    {
      "buffer" : 0,
      "byteOffset" : 268336,
      "byteLength" : 32752
    },
    {
      "buffer" : 0,
      "byteOffset" : 301088,
      "byteLength" : 1368
    },
    {
      "buffer" : 0,
      "byteOffset" : 302456,
      "byteLength" : 4740
    },
    {
      "buffer" : 0,
      "byteOffset" : 307196,
      "byteLength" : 4740
    },
    {
      "buffer" : 0,
      "byteOffset" : 311936,
      "byteLength" : 6320
    },
    {
      "buffer" : 0,
      "byteOffset" : 318256,
      "byteLength" : 3160
    },
    {
      "buffer" : 0,
      "byteOffset" : 321416,
      "byteLength" : 3160
    },
    {
      "buffer" : 0,
      "byteOffset" : 324576,
      "byteLength" : 3160
    }
  ],
  "accessors" : [
    {
      "bufferView" : 0,
      "componentType" : 5123,
      "count" : 19536,
      "type" : "SCALAR"
    },
    {
      "bufferView" : 1,
      "min" : [ -44.9733, 34.7174, -85.4534 ],
      "max" : [ 75.249, 37.6588, 85.4479 ],
      "componentType" : 5126,
      "count" : 4094,
      "type" : "VEC3"
    },
    {
      "bufferView" : 2,
      "componentType" : 5126,
      "count" : 4094,
      "type" : "VEC3"
    },
    {
      "bufferView" : 3,
      "componentType" : 5126,
      "count" : 4094,
      "type" : "VEC4"
    },
    {
      "bufferView" : 4,
      "componentType" : 5126,
      "count" : 4094,
      "type" : "VEC2"
    },
    {
      "bufferView" : 5,
      "componentType" : 5126,
      "count" : 4094,
      "type" : "VEC2"
    },
    {
      "bufferView" : 6,
      "componentType" : 5126,
      "count" : 4094,
      "type" : "VEC2"
    },
    {
      "bufferView" : 7,
      "componentType" : 5123,
      "count" : 684,
      "type" : "SCALAR"
    },
    {
      "bufferView" : 8,
      "min" : [ -46.6977, 37.0447, -85.8225 ],
      "max" : [ 76.4251, 38.0403, 85.8225 ],
      "componentType" : 5126,
      "count" : 395,
      "type" : "VEC3"
    },
    {
      "bufferView" : 9,
      "componentType" : 5126,
      "count" : 395,
      "type" : "VEC3"
    },
    {
      "bufferView" : 10,
      "componentType" : 5126,
      "count" : 395,
      "type" : "VEC4"
    },
    {
      "bufferView" : 11,
      "componentType" : 5126,
      "count" : 395,
      "type" : "VEC2"
    },
    {
      "bufferView" : 12,
      "componentType" : 5126,
      "count" : 395,
      "type" : "VEC2"
    },
    {
      "bufferView" : 13,
      "componentType" : 5126,
      "count" : 395,
      "type" : "VEC2"
    }
  ]
}
