{
  "asset" : {
    "generator" : "UE Viewer (umodel) build 1590",
    "version" : "2.0"
  },
  "scene" : 0,
  "scenes" : [
    {
      "nodes" : [ 0 ]
    }
  ],
  "nodes" : [
    {
      "name" : "CS_RLCS_Flags",
      "mesh" : 0
    }
  ],
  "materials" : [
    {
      "name" : "dummy_material_0",
      "pbrMetallicRoughness" : {
        "baseColorFactor" : [ 0.3, 0.3, 0.3, 1.0 ],
        "metallicFactor" : 0.1,
        "roughnessFactor" : 0.5
      }
    },
    {
      "name" : "dummy_material_1",
      "pbrMetallicRoughness" : {
        "baseColorFactor" : [ 0.9, 0.3, 0.3, 1.0 ],
        "metallicFactor" : 0.1,
        "roughnessFactor" : 0.5
      }
    }
  ],
  "meshes" : [
    {
      "primitives" : [
        {
          "attributes" : {
            "POSITION" : 1,
            "NORMAL" : 2,
            "TANGENT" : 3,
            "COLOR_0" : 4,
            "TEXCOORD_0" : 5,
            "TEXCOORD_1" : 6
          },
          "indices" : 0,
          "material" : 0
        },
        {
          "attributes" : {
            "POSITION" : 8,
            "NORMAL" : 9,
            "TANGENT" : 10,
            "COLOR_0" : 11,
            "TEXCOORD_0" : 12,
            "TEXCOORD_1" : 13
          },
          "indices" : 7,
          "material" : 1
        }
      ],
      "name" : "CS_RLCS_Flags"
    }
  ],
  "buffers" : [
    {
      "uri" : "CS_RLCS_Flags.bin",
      "byteLength" : 161280
    }
  ],
  "bufferViews" : [
    {
      "buffer" : 0,
      "byteOffset" : 0,
      "byteLength" : 11520
    },
    {
      "buffer" : 0,
      "byteOffset" : 11520,
      "byteLength" : 13824
    },
    {
      "buffer" : 0,
      "byteOffset" : 25344,
      "byteLength" : 13824
    },
    {
      "buffer" : 0,
      "byteOffset" : 39168,
      "byteLength" : 18432
    },
    {
      "buffer" : 0,
      "byteOffset" : 57600,
      "byteLength" : 4608
    },
    {
      "buffer" : 0,
      "byteOffset" : 62208,
      "byteLength" : 9216
    },
    {
      "buffer" : 0,
      "byteOffset" : 71424,
      "byteLength" : 9216
    },
    {
      "buffer" : 0,
      "byteOffset" : 80640,
      "byteLength" : 11520
    },
    {
      "buffer" : 0,
      "byteOffset" : 92160,
      "byteLength" : 13824
    },
    {
      "buffer" : 0,
      "byteOffset" : 105984,
      "byteLength" : 13824
    },
    {
      "buffer" : 0,
      "byteOffset" : 119808,
      "byteLength" : 18432
    },
    {
      "buffer" : 0,
      "byteOffset" : 138240,
      "byteLength" : 4608
    },
    {
      "buffer" : 0,
      "byteOffset" : 142848,
      "byteLength" : 9216
    },
    {
      "buffer" : 0,
      "byteOffset" : 152064,
      "byteLength" : 9216
    }
  ],
  "accessors" : [
    {
      "bufferView" : 0,
      "componentType" : 5123,
      "count" : 5760,
      "type" : "SCALAR"
    },
    {
      "bufferView" : 1,
      "min" : [ -78.8995, 46.2313, -67.5992 ],
      "max" : [ -63.6528, 55.1899, 67.5992 ],
      "componentType" : 5126,
      "count" : 1152,
      "type" : "VEC3"
    },
    {
      "bufferView" : 2,
      "componentType" : 5126,
      "count" : 1152,
      "type" : "VEC3"
    },
    {
      "bufferView" : 3,
      "componentType" : 5126,
      "count" : 1152,
      "type" : "VEC4"
    },
    {
      "bufferView" : 4,
      "normalized" : true,
      "componentType" : 5121,
      "count" : 1152,
      "type" : "VEC4"
    },
    {
      "bufferView" : 5,
      "componentType" : 5126,
      "count" : 1152,
      "type" : "VEC2"
    },
    {
      "bufferView" : 6,
      "componentType" : 5126,
      "count" : 1152,
      "type" : "VEC2"
    },
    {
      "bufferView" : 7,
      "componentType" : 5123,
      "count" : 5760,
      "type" : "SCALAR"
    },
    {
      "bufferView" : 8,
      "min" : [ -60.0834, 48.8747, -91.339 ],
      "max" : [ -37.9244, 62.6262, 91.339 ],
      "componentType" : 5126,
      "count" : 1152,
      "type" : "VEC3"
    },
    {
      "bufferView" : 9,
      "componentType" : 5126,
      "count" : 1152,
      "type" : "VEC3"
    },
    {
      "bufferView" : 10,
      "componentType" : 5126,
      "count" : 1152,
      "type" : "VEC4"
    },
    {
      "bufferView" : 11,
      "normalized" : true,
      "componentType" : 5121,
      "count" : 1152,
      "type" : "VEC4"
    },
    {
      "bufferView" : 12,
      "componentType" : 5126,
      "count" : 1152,
      "type" : "VEC2"
    },
    {
      "bufferView" : 13,
      "componentType" : 5126,
      "count" : 1152,
      "type" : "VEC2"
    }
  ]
}
