{
  "asset" : {
    "generator" : "UE Viewer (umodel) build 1590",
    "version" : "2.0"
  },
  "scene" : 0,
  "scenes" : [
    {
      "nodes" : [ 0 ]
    }
  ],
  "nodes" : [
    {
      "name" : "CS_Statue_SM",
      "mesh" : 0
    }
  ],
  "materials" : [
    {
      "name" : "dummy_material_0",
      "pbrMetallicRoughness" : {
        "baseColorFactor" : [ 0.3, 0.3, 0.3, 1.0 ],
        "metallicFactor" : 0.1,
        "roughnessFactor" : 0.5
      }
    },
    {
      "name" : "dummy_material_1",
      "pbrMetallicRoughness" : {
        "baseColorFactor" : [ 0.9, 0.3, 0.3, 1.0 ],
        "metallicFactor" : 0.1,
        "roughnessFactor" : 0.5
      }
    }
  ],
  "meshes" : [
    {
      "primitives" : [
        {
          "attributes" : {
            "POSITION" : 1,
            "NORMAL" : 2,
            "TANGENT" : 3,
            "COLOR_0" : 4,
            "TEXCOORD_0" : 5,
            "TEXCOORD_1" : 6,
            "TEXCOORD_2" : 7
          },
          "indices" : 0,
          "material" : 0
        },
        {
          "attributes" : {
            "POSITION" : 9,
            "NORMAL" : 10,
            "TANGENT" : 11,
            "COLOR_0" : 12,
            "TEXCOORD_0" : 13,
            "TEXCOORD_1" : 14,
            "TEXCOORD_2" : 15
          },
          "indices" : 8,
          "material" : 1
        }
      ],
      "name" : "CS_Statue_SM"
    }
  ],
  "buffers" : [
    {
      "uri" : "CS_Statue_SM.bin",
      "byteLength" : 279284
    }
  ],
  "bufferViews" : [
    {
      "buffer" : 0,
      "byteOffset" : 0,
      "byteLength" : 15552
    },
    {
      "buffer" : 0,
      "byteOffset" : 15552,
      "byteLength" : 20568
    },
    {
      "buffer" : 0,
      "byteOffset" : 36120,
      "byteLength" : 20568
    },
    {
      "buffer" : 0,
      "byteOffset" : 56688,
      "byteLength" : 27424
    },
    {
      "buffer" : 0,
      "byteOffset" : 84112,
      "byteLength" : 6856
    },
    {
      "buffer" : 0,
      "byteOffset" : 90968,
      "byteLength" : 13712
    },
    {
      "buffer" : 0,
      "byteOffset" : 104680,
      "byteLength" : 13712
    },
    {
      "buffer" : 0,
      "byteOffset" : 118392,
      "byteLength" : 13712
    },
    {
      "buffer" : 0,
      "byteOffset" : 132104,
      "byteLength" : 18660
    },
    {
      "buffer" : 0,
      "byteOffset" : 150764,
      "byteLength" : 22680
    },
    {
      "buffer" : 0,
      "byteOffset" : 173444,
      "byteLength" : 22680
    },
    {
      "buffer" : 0,
      "byteOffset" : 196124,
      "byteLength" : 30240
    },
    {
      "buffer" : 0,
      "byteOffset" : 226364,
      "byteLength" : 7560
    },
    {
      "buffer" : 0,
      "byteOffset" : 233924,
      "byteLength" : 15120
    },
    {
      "buffer" : 0,
      "byteOffset" : 249044,
      "byteLength" : 15120
    },
    {
      "buffer" : 0,
      "byteOffset" : 264164,
      "byteLength" : 15120
    }
  ],
  "accessors" : [
    {
      "bufferView" : 0,
      "componentType" : 5123,
      "count" : 7776,
      "type" : "SCALAR"
    },
    {
      "bufferView" : 1,
      "min" : [ -8.96535, 0.623019, -9.26117 ],
      "max" : [ 8.96534, 22.9606, 9.30442 ],
      "componentType" : 5126,
      "count" : 1714,
      "type" : "VEC3"
    },
    {
      "bufferView" : 2,
      "componentType" : 5126,
      "count" : 1714,
      "type" : "VEC3"
    },
    {
      "bufferView" : 3,
      "componentType" : 5126,
      "count" : 1714,
      "type" : "VEC4"
    },
    {
      "bufferView" : 4,
      "normalized" : true,
      "componentType" : 5121,
      "count" : 1714,
      "type" : "VEC4"
    },
    {
      "bufferView" : 5,
      "componentType" : 5126,
      "count" : 1714,
      "type" : "VEC2"
    },
    {
      "bufferView" : 6,
      "componentType" : 5126,
      "count" : 1714,
      "type" : "VEC2"
    },
    {
      "bufferView" : 7,
      "componentType" : 5126,
      "count" : 1714,
      "type" : "VEC2"
    },
    {
      "bufferView" : 8,
      "componentType" : 5123,
      "count" : 9330,
      "type" : "SCALAR"
    },
    {
      "bufferView" : 9,
      "min" : [ -3.84418, 17.5181, -7.20969 ],
      "max" : [ 3.83845, 40.501, 7.20586 ],
      "componentType" : 5126,
      "count" : 1890,
      "type" : "VEC3"
    },
    {
      "bufferView" : 10,
      "componentType" : 5126,
      "count" : 1890,
      "type" : "VEC3"
    },
    {
      "bufferView" : 11,
      "componentType" : 5126,
      "count" : 1890,
      "type" : "VEC4"
    },
    {
      "bufferView" : 12,
      "normalized" : true,
      "componentType" : 5121,
      "count" : 1890,
      "type" : "VEC4"
    },
    {
      "bufferView" : 13,
      "componentType" : 5126,
      "count" : 1890,
      "type" : "VEC2"
    },
    {
      "bufferView" : 14,
      "componentType" : 5126,
      "count" : 1890,
      "type" : "VEC2"
    },
    {
      "bufferView" : 15,
      "componentType" : 5126,
      "count" : 1890,
      "type" : "VEC2"
    }
  ]
}
