{
  "asset" : {
    "generator" : "UE Viewer (umodel) build 1590",
    "version" : "2.0"
  },
  "scene" : 0,
  "scenes" : [
    {
      "nodes" : [ 0 ]
    }
  ],
  "nodes" : [
    {
      "name" : "CS_Statue_Base",
      "mesh" : 0
    }
  ],
  "materials" : [
    {
      "name" : "dummy_material_0",
      "pbrMetallicRoughness" : {
        "baseColorFactor" : [ 0.3, 0.3, 0.3, 1.0 ],
        "metallicFactor" : 0.1,
        "roughnessFactor" : 0.5
      }
    }
  ],
  "meshes" : [
    {
      "primitives" : [
        {
          "attributes" : {
            "POSITION" : 1,
            "NORMAL" : 2,
            "TANGENT" : 3,
            "TEXCOORD_0" : 4,
            "TEXCOORD_1" : 5,
            "TEXCOORD_2" : 6
          },
          "indices" : 0,
          "material" : 0
        }
      ],
      "name" : "CS_Statue_Base"
    }
  ],
  "buffers" : [
    {
      "uri" : "CS_Statue_Base.bin",
      "byteLength" : 28416
    }
  ],
  "bufferViews" : [
    {
      "buffer" : 0,
      "byteOffset" : 0,
      "byteLength" : 3264
    },
    {
      "buffer" : 0,
      "byteOffset" : 3264,
      "byteLength" : 4716
    },
    {
      "buffer" : 0,
      "byteOffset" : 7980,
      "byteLength" : 4716
    },
    {
      "buffer" : 0,
      "byteOffset" : 12696,
      "byteLength" : 6288
    },
    {
      "buffer" : 0,
      "byteOffset" : 18984,
      "byteLength" : 3144
    },
    {
      "buffer" : 0,
      "byteOffset" : 22128,
      "byteLength" : 3144
    },
    {
      "buffer" : 0,
      "byteOffset" : 25272,
      "byteLength" : 3144
    }
  ],
  "accessors" : [
    {
      "bufferView" : 0,
      "componentType" : 5123,
      "count" : 1632,
      "type" : "SCALAR"
    },
    {
      "bufferView" : 1,
      "min" : [ -10.0364, 1.15295, -10.0364 ],
      "max" : [ 10.0364, 4.12321, 10.0364 ],
      "componentType" : 5126,
      "count" : 393,
      "type" : "VEC3"
    },
    {
      "bufferView" : 2,
      "componentType" : 5126,
      "count" : 393,
      "type" : "VEC3"
    },
    {
      "bufferView" : 3,
      "componentType" : 5126,
      "count" : 393,
      "type" : "VEC4"
    },
    {
      "bufferView" : 4,
      "componentType" : 5126,
      "count" : 393,
      "type" : "VEC2"
    },
    {
      "bufferView" : 5,
      "componentType" : 5126,
      "count" : 393,
      "type" : "VEC2"
    },
    {
      "bufferView" : 6,
      "componentType" : 5126,
      "count" : 393,
      "type" : "VEC2"
    }
  ]
}
