{
  "asset" : {
    "generator" : "UE Viewer (umodel) build 1590",
    "version" : "2.0"
  },
  "scene" : 0,
  "scenes" : [
    {
      "nodes" : [ 0 ]
    }
  ],
  "nodes" : [
    {
      "name" : "CS_Statue_Lights",
      "mesh" : 0
    }
  ],
  "materials" : [
    {
      "name" : "dummy_material_0",
      "pbrMetallicRoughness" : {
        "baseColorFactor" : [ 0.3, 0.3, 0.3, 1.0 ],
        "metallicFactor" : 0.1,
        "roughnessFactor" : 0.5
      }
    }
  ],
  "meshes" : [
    {
      "primitives" : [
        {
          "attributes" : {
            "POSITION" : 1,
            "NORMAL" : 2,
            "TANGENT" : 3,
            "TEXCOORD_0" : 4,
            "TEXCOORD_1" : 5,
            "TEXCOORD_2" : 6
          },
          "indices" : 0,
          "material" : 0
        }
      ],
      "name" : "CS_Statue_Lights"
    }
  ],
  "buffers" : [
    {
      "uri" : "CS_Statue_Lights.bin",
      "byteLength" : 3840
    }
  ],
  "bufferViews" : [
    {
      "buffer" : 0,
      "byteOffset" : 0,
      "byteLength" : 384
    },
    {
      "buffer" : 0,
      "byteOffset" : 384,
      "byteLength" : 648
    },
    {
      "buffer" : 0,
      "byteOffset" : 1032,
      "byteLength" : 648
    },
    {
      "buffer" : 0,
      "byteOffset" : 1680,
      "byteLength" : 864
    },
    {
      "buffer" : 0,
      "byteOffset" : 2544,
      "byteLength" : 432
    },
    {
      "buffer" : 0,
      "byteOffset" : 2976,
      "byteLength" : 432
    },
    {
      "buffer" : 0,
      "byteOffset" : 3408,
      "byteLength" : 432
    }
  ],
  "accessors" : [
    {
      "bufferView" : 0,
      "componentType" : 5123,
      "count" : 192,
      "type" : "SCALAR"
    },
    {
      "bufferView" : 1,
      "min" : [ 54.115, 6.4762, -5.21118 ],
      "max" : [ 55.9228, 31.635, 5.38297 ],
      "componentType" : 5126,
      "count" : 54,
      "type" : "VEC3"
    },
    {
      "bufferView" : 2,
      "componentType" : 5126,
      "count" : 54,
      "type" : "VEC3"
    },
    {
      "bufferView" : 3,
      "componentType" : 5126,
      "count" : 54,
      "type" : "VEC4"
    },
    {
      "bufferView" : 4,
      "componentType" : 5126,
      "count" : 54,
      "type" : "VEC2"
    },
    {
      "bufferView" : 5,
      "componentType" : 5126,
      "count" : 54,
      "type" : "VEC2"
    },
    {
      "bufferView" : 6,
      "componentType" : 5126,
      "count" : 54,
      "type" : "VEC2"
    }
  ]
}
