{
  "asset" : {
    "generator" : "UE Viewer (umodel) build 1590",
    "version" : "2.0"
  },
  "scene" : 0,
  "scenes" : [
    {
      "nodes" : [ 0 ]
    }
  ],
  "nodes" : [
    {
      "name" : "CS_StadiumLightBar",
      "mesh" : 0
    }
  ],
  "materials" : [
    {
      "name" : "dummy_material_0",
      "pbrMetallicRoughness" : {
        "baseColorFactor" : [ 0.3, 0.3, 0.3, 1.0 ],
        "metallicFactor" : 0.1,
        "roughnessFactor" : 0.5
      }
    }
  ],
  "meshes" : [
    {
      "primitives" : [
        {
          "attributes" : {
            "POSITION" : 1,
            "NORMAL" : 2,
            "TANGENT" : 3,
            "TEXCOORD_0" : 4,
            "TEXCOORD_1" : 5,
            "TEXCOORD_2" : 6
          },
          "indices" : 0,
          "material" : 0
        }
      ],
      "name" : "CS_StadiumLightBar"
    }
  ],
  "buffers" : [
    {
      "uri" : "CS_StadiumLightBar.bin",
      "byteLength" : 5480
    }
  ],
  "bufferViews" : [
    {
      "buffer" : 0,
      "byteOffset" : 0,
      "byteLength" : 360
    },
    {
      "buffer" : 0,
      "byteOffset" : 360,
      "byteLength" : 960
    },
    {
      "buffer" : 0,
      "byteOffset" : 1320,
      "byteLength" : 960
    },
    {
      "buffer" : 0,
      "byteOffset" : 2280,
      "byteLength" : 1280
    },
    {
      "buffer" : 0,
      "byteOffset" : 3560,
      "byteLength" : 640
    },
    {
      "buffer" : 0,
      "byteOffset" : 4200,
      "byteLength" : 640
    },
    {
      "buffer" : 0,
      "byteOffset" : 4840,
      "byteLength" : 640
    }
  ],
  "accessors" : [
    {
      "bufferView" : 0,
      "componentType" : 5123,
      "count" : 180,
      "type" : "SCALAR"
    },
    {
      "bufferView" : 1,
      "min" : [ -73.5032, 41.3198, -89.7416 ],
      "max" : [ 49.0453, 63.72, 89.7416 ],
      "componentType" : 5126,
      "count" : 80,
      "type" : "VEC3"
    },
    {
      "bufferView" : 2,
      "componentType" : 5126,
      "count" : 80,
      "type" : "VEC3"
    },
    {
      "bufferView" : 3,
      "componentType" : 5126,
      "count" : 80,
      "type" : "VEC4"
    },
    {
      "bufferView" : 4,
      "componentType" : 5126,
      "count" : 80,
      "type" : "VEC2"
    },
    {
      "bufferView" : 5,
      "componentType" : 5126,
      "count" : 80,
      "type" : "VEC2"
    },
    {
      "bufferView" : 6,
      "componentType" : 5126,
      "count" : 80,
      "type" : "VEC2"
    }
  ]
}
