{
  "asset" : {
    "generator" : "UE Viewer (umodel) build 1590",
    "version" : "2.0"
  },
  "scene" : 0,
  "scenes" : [
    {
      "nodes" : [ 0 ]
    }
  ],
  "nodes" : [
    {
      "name" : "CS_Statue_Floor_02",
      "mesh" : 0
    }
  ],
  "materials" : [
    {
      "name" : "dummy_material_0",
      "pbrMetallicRoughness" : {
        "baseColorFactor" : [ 0.3, 0.3, 0.3, 1.0 ],
        "metallicFactor" : 0.1,
        "roughnessFactor" : 0.5
      }
    },
    {
      "name" : "dummy_material_1",
      "pbrMetallicRoughness" : {
        "baseColorFactor" : [ 0.9, 0.3, 0.3, 1.0 ],
        "metallicFactor" : 0.1,
        "roughnessFactor" : 0.5
      }
    },
    {
      "name" : "dummy_material_2",
      "pbrMetallicRoughness" : {
        "baseColorFactor" : [ 0.3, 0.9, 0.3, 1.0 ],
        "metallicFactor" : 0.1,
        "roughnessFactor" : 0.5
      }
    },
    {
      "name" : "dummy_material_3",
      "pbrMetallicRoughness" : {
        "baseColorFactor" : [ 0.3, 0.3, 0.9, 1.0 ],
        "metallicFactor" : 0.1,
        "roughnessFactor" : 0.5
      }
    }
  ],
  "meshes" : [
    {
      "primitives" : [
        {
          "attributes" : {
            "POSITION" : 1,
            "NORMAL" : 2,
            "TANGENT" : 3,
            "COLOR_0" : 4,
            "TEXCOORD_0" : 5,
            "TEXCOORD_1" : 6
          },
          "indices" : 0,
          "material" : 0
        },
        {
          "attributes" : {
            "POSITION" : 8,
            "NORMAL" : 9,
            "TANGENT" : 10,
            "COLOR_0" : 11,
            "TEXCOORD_0" : 12,
            "TEXCOORD_1" : 13
          },
          "indices" : 7,
          "material" : 1
        },
        {
          "attributes" : {
            "POSITION" : 15,
            "NORMAL" : 16,
            "TANGENT" : 17,
            "COLOR_0" : 18,
            "TEXCOORD_0" : 19,
            "TEXCOORD_1" : 20
          },
          "indices" : 14,
          "material" : 2
        },
        {
          "attributes" : {
            "POSITION" : 22,
            "NORMAL" : 23,
            "TANGENT" : 24,
            "COLOR_0" : 25,
            "TEXCOORD_0" : 26,
            "TEXCOORD_1" : 27
          },
          "indices" : 21,
          "material" : 3
        }
      ],
      "name" : "CS_Statue_Floor_02"
    }
  ],
  "buffers" : [
    {
      "uri" : "CS_Statue_Floor_02.bin",
      "byteLength" : 241684
    }
  ],
  "bufferViews" : [
    {
      "buffer" : 0,
      "byteOffset" : 0,
      "byteLength" : 476
    },
    {
      "buffer" : 0,
      "byteOffset" : 476,
      "byteLength" : 864
    },
    {
      "buffer" : 0,
      "byteOffset" : 1340,
      "byteLength" : 864
    },
    {
      "buffer" : 0,
      "byteOffset" : 2204,
      "byteLength" : 1152
    },
    {
      "buffer" : 0,
      "byteOffset" : 3356,
      "byteLength" : 288
    },
    {
      "buffer" : 0,
      "byteOffset" : 3644,
      "byteLength" : 576
    },
    {
      "buffer" : 0,
      "byteOffset" : 4220,
      "byteLength" : 576
    },
    {
      "buffer" : 0,
      "byteOffset" : 4796,
      "byteLength" : 25560
    },
    {
      "buffer" : 0,
      "byteOffset" : 30356,
      "byteLength" : 39648
    },
    {
      "buffer" : 0,
      "byteOffset" : 70004,
      "byteLength" : 39648
    },
    {
      "buffer" : 0,
      "byteOffset" : 109652,
      "byteLength" : 52864
    },
    {
      "buffer" : 0,
      "byteOffset" : 162516,
      "byteLength" : 13216
    },
    {
      "buffer" : 0,
      "byteOffset" : 175732,
      "byteLength" : 26432
    },
    {
      "buffer" : 0,
      "byteOffset" : 202164,
      "byteLength" : 26432
    },
    {
      "buffer" : 0,
      "byteOffset" : 228596,
      "byteLength" : 296
    },
    {
      "buffer" : 0,
      "byteOffset" : 228892,
      "byteLength" : 636
    },
    {
      "buffer" : 0,
      "byteOffset" : 229528,
      "byteLength" : 636
    },
    {
      "buffer" : 0,
      "byteOffset" : 230164,
      "byteLength" : 848
    },
    {
      "buffer" : 0,
      "byteOffset" : 231012,
      "byteLength" : 212
    },
    {
      "buffer" : 0,
      "byteOffset" : 231224,
      "byteLength" : 424
    },
    {
      "buffer" : 0,
      "byteOffset" : 231648,
      "byteLength" : 424
    },
    {
      "buffer" : 0,
      "byteOffset" : 232072,
      "byteLength" : 612
    },
    {
      "buffer" : 0,
      "byteOffset" : 232684,
      "byteLength" : 1800
    },
    {
      "buffer" : 0,
      "byteOffset" : 234484,
      "byteLength" : 1800
    },
    {
      "buffer" : 0,
      "byteOffset" : 236284,
      "byteLength" : 2400
    },
    {
      "buffer" : 0,
      "byteOffset" : 238684,
      "byteLength" : 600
    },
    {
      "buffer" : 0,
      "byteOffset" : 239284,
      "byteLength" : 1200
    },
    {
      "buffer" : 0,
      "byteOffset" : 240484,
      "byteLength" : 1200
    }
  ],
  "accessors" : [
    {
      "bufferView" : 0,
      "componentType" : 5123,
      "count" : 237,
      "type" : "SCALAR"
    },
    {
      "bufferView" : 1,
      "min" : [ 88.0791, 0.440989, -137.62 ],
      "max" : [ 216.548, 18.0928, 137.195 ],
      "componentType" : 5126,
      "count" : 72,
      "type" : "VEC3"
    },
    {
      "bufferView" : 2,
      "componentType" : 5126,
      "count" : 72,
      "type" : "VEC3"
    },
    {
      "bufferView" : 3,
      "componentType" : 5126,
      "count" : 72,
      "type" : "VEC4"
    },
    {
      "bufferView" : 4,
      "normalized" : true,
      "componentType" : 5121,
      "count" : 72,
      "type" : "VEC4"
    },
    {
      "bufferView" : 5,
      "componentType" : 5126,
      "count" : 72,
      "type" : "VEC2"
    },
    {
      "bufferView" : 6,
      "componentType" : 5126,
      "count" : 72,
      "type" : "VEC2"
    },
    {
      "bufferView" : 7,
      "componentType" : 5123,
      "count" : 12780,
      "type" : "SCALAR"
    },
    {
      "bufferView" : 8,
      "min" : [ 84.0298, -2.31321, -139.233 ],
      "max" : [ 315.892, 42.8959, 138.808 ],
      "componentType" : 5126,
      "count" : 3304,
      "type" : "VEC3"
    },
    {
      "bufferView" : 9,
      "componentType" : 5126,
      "count" : 3304,
      "type" : "VEC3"
    },
    {
      "bufferView" : 10,
      "componentType" : 5126,
      "count" : 3304,
      "type" : "VEC4"
    },
    {
      "bufferView" : 11,
      "normalized" : true,
      "componentType" : 5121,
      "count" : 3304,
      "type" : "VEC4"
    },
    {
      "bufferView" : 12,
      "componentType" : 5126,
      "count" : 3304,
      "type" : "VEC2"
    },
    {
      "bufferView" : 13,
      "componentType" : 5126,
      "count" : 3304,
      "type" : "VEC2"
    },
    {
      "bufferView" : 14,
      "componentType" : 5123,
      "count" : 147,
      "type" : "SCALAR"
    },
    {
      "bufferView" : 15,
      "min" : [ 102.551, 0.4447, -132.917 ],
      "max" : [ 312.285, 39.523, 132.492 ],
      "componentType" : 5126,
      "count" : 53,
      "type" : "VEC3"
    },
    {
      "bufferView" : 16,
      "componentType" : 5126,
      "count" : 53,
      "type" : "VEC3"
    },
    {
      "bufferView" : 17,
      "componentType" : 5126,
      "count" : 53,
      "type" : "VEC4"
    },
    {
      "bufferView" : 18,
      "normalized" : true,
      "componentType" : 5121,
      "count" : 53,
      "type" : "VEC4"
    },
    {
      "bufferView" : 19,
      "componentType" : 5126,
      "count" : 53,
      "type" : "VEC2"
    },
    {
      "bufferView" : 20,
      "componentType" : 5126,
      "count" : 53,
      "type" : "VEC2"
    },
    {
      "bufferView" : 21,
      "componentType" : 5123,
      "count" : 306,
      "type" : "SCALAR"
    },
    {
      "bufferView" : 22,
      "min" : [ 84.2333, -1.56371, -139.191 ],
      "max" : [ 315.892, 42.0602, 138.766 ],
      "componentType" : 5126,
      "count" : 150,
      "type" : "VEC3"
    },
    {
      "bufferView" : 23,
      "componentType" : 5126,
      "count" : 150,
      "type" : "VEC3"
    },
    {
      "bufferView" : 24,
      "componentType" : 5126,
      "count" : 150,
      "type" : "VEC4"
    },
    {
      "bufferView" : 25,
      "normalized" : true,
      "componentType" : 5121,
      "count" : 150,
      "type" : "VEC4"
    },
    {
      "bufferView" : 26,
      "componentType" : 5126,
      "count" : 150,
      "type" : "VEC2"
    },
    {
      "bufferView" : 27,
      "componentType" : 5126,
      "count" : 150,
      "type" : "VEC2"
    }
  ]
}
