{
  "asset" : {
    "generator" : "UE Viewer (umodel) build 1590",
    "version" : "2.0"
  },
  "scene" : 0,
  "scenes" : [
    {
      "nodes" : [ 0 ]
    }
  ],
  "nodes" : [
    {
      "name" : "CS_Statue_BallCar_SM",
      "mesh" : 0
    }
  ],
  "materials" : [
    {
      "name" : "dummy_material_0",
      "pbrMetallicRoughness" : {
        "baseColorFactor" : [ 0.3, 0.3, 0.3, 1.0 ],
        "metallicFactor" : 0.1,
        "roughnessFactor" : 0.5
      }
    }
  ],
  "meshes" : [
    {
      "primitives" : [
        {
          "attributes" : {
            "POSITION" : 1,
            "NORMAL" : 2,
            "TANGENT" : 3,
            "COLOR_0" : 4,
            "TEXCOORD_0" : 5,
            "TEXCOORD_1" : 6,
            "TEXCOORD_2" : 7
          },
          "indices" : 0,
          "material" : 0
        }
      ],
      "name" : "CS_Statue_BallCar_SM"
    }
  ],
  "buffers" : [
    {
      "uri" : "CS_Statue_BallCar_SM.bin",
      "byteLength" : 1309944
    }
  ],
  "bufferViews" : [
    {
      "buffer" : 0,
      "byteOffset" : 0,
      "byteLength" : 149796
    },
    {
      "buffer" : 0,
      "byteOffset" : 149796,
      "byteLength" : 204732
    },
    {
      "buffer" : 0,
      "byteOffset" : 354528,
      "byteLength" : 204732
    },
    {
      "buffer" : 0,
      "byteOffset" : 559260,
      "byteLength" : 272976
    },
    {
      "buffer" : 0,
      "byteOffset" : 832236,
      "byteLength" : 68244
    },
    {
      "buffer" : 0,
      "byteOffset" : 900480,
      "byteLength" : 136488
    },
    {
      "buffer" : 0,
      "byteOffset" : 1036968,
      "byteLength" : 136488
    },
    {
      "buffer" : 0,
      "byteOffset" : 1173456,
      "byteLength" : 136488
    }
  ],
  "accessors" : [
    {
      "bufferView" : 0,
      "componentType" : 5123,
      "count" : 74898,
      "type" : "SCALAR"
    },
    {
      "bufferView" : 1,
      "min" : [ -4.78249, 33.0574, -6.48517 ],
      "max" : [ 3.15707, 41.2701, 8.11527 ],
      "componentType" : 5126,
      "count" : 17061,
      "type" : "VEC3"
    },
    {
      "bufferView" : 2,
      "componentType" : 5126,
      "count" : 17061,
      "type" : "VEC3"
    },
    {
      "bufferView" : 3,
      "componentType" : 5126,
      "count" : 17061,
      "type" : "VEC4"
    },
    {
      "bufferView" : 4,
      "normalized" : true,
      "componentType" : 5121,
      "count" : 17061,
      "type" : "VEC4"
    },
    {
      "bufferView" : 5,
      "componentType" : 5126,
      "count" : 17061,
      "type" : "VEC2"
    },
    {
      "bufferView" : 6,
      "componentType" : 5126,
      "count" : 17061,
      "type" : "VEC2"
    },
    {
      "bufferView" : 7,
      "componentType" : 5126,
      "count" : 17061,
      "type" : "VEC2"
    }
  ]
}
