{
  "asset" : {
    "generator" : "UE Viewer (umodel) build 1590",
    "version" : "2.0"
  },
  "scene" : 0,
  "scenes" : [
    {
      "nodes" : [ 0 ]
    }
  ],
  "nodes" : [
    {
      "name" : "CS_TunnelBanners",
      "mesh" : 0
    }
  ],
  "materials" : [
    {
      "name" : "dummy_material_0",
      "pbrMetallicRoughness" : {
        "baseColorFactor" : [ 0.3, 0.3, 0.3, 1.0 ],
        "metallicFactor" : 0.1,
        "roughnessFactor" : 0.5
      }
    },
    {
      "name" : "dummy_material_1",
      "pbrMetallicRoughness" : {
        "baseColorFactor" : [ 0.9, 0.3, 0.3, 1.0 ],
        "metallicFactor" : 0.1,
        "roughnessFactor" : 0.5
      }
    },
    {
      "name" : "dummy_material_2",
      "pbrMetallicRoughness" : {
        "baseColorFactor" : [ 0.3, 0.9, 0.3, 1.0 ],
        "metallicFactor" : 0.1,
        "roughnessFactor" : 0.5
      }
    }
  ],
  "meshes" : [
    {
      "primitives" : [
        {
          "attributes" : {
            "POSITION" : 1,
            "NORMAL" : 2,
            "TANGENT" : 3,
            "TEXCOORD_0" : 4,
            "TEXCOORD_1" : 5
          },
          "indices" : 0,
          "material" : 0
        },
        {
          "attributes" : {
            "POSITION" : 7,
            "NORMAL" : 8,
            "TANGENT" : 9,
            "TEXCOORD_0" : 10,
            "TEXCOORD_1" : 11
          },
          "indices" : 6,
          "material" : 1
        },
        {
          "attributes" : {
            "POSITION" : 13,
            "NORMAL" : 14,
            "TANGENT" : 15,
            "TEXCOORD_0" : 16,
            "TEXCOORD_1" : 17
          },
          "indices" : 12,
          "material" : 2
        }
      ],
      "name" : "CS_TunnelBanners"
    }
  ],
  "buffers" : [
    {
      "uri" : "CS_TunnelBanners.bin",
      "byteLength" : 34488
    }
  ],
  "bufferViews" : [
    {
      "buffer" : 0,
      "byteOffset" : 0,
      "byteLength" : 576
    },
    {
      "buffer" : 0,
      "byteOffset" : 576,
      "byteLength" : 1980
    },
    {
      "buffer" : 0,
      "byteOffset" : 2556,
      "byteLength" : 1980
    },
    {
      "buffer" : 0,
      "byteOffset" : 4536,
      "byteLength" : 2640
    },
    {
      "buffer" : 0,
      "byteOffset" : 7176,
      "byteLength" : 1320
    },
    {
      "buffer" : 0,
      "byteOffset" : 8496,
      "byteLength" : 1320
    },
    {
      "buffer" : 0,
      "byteOffset" : 9816,
      "byteLength" : 1584
    },
    {
      "buffer" : 0,
      "byteOffset" : 11400,
      "byteLength" : 2304
    },
    {
      "buffer" : 0,
      "byteOffset" : 13704,
      "byteLength" : 2304
    },
    {
      "buffer" : 0,
      "byteOffset" : 16008,
      "byteLength" : 3072
    },
    {
      "buffer" : 0,
      "byteOffset" : 19080,
      "byteLength" : 1536
    },
    {
      "buffer" : 0,
      "byteOffset" : 20616,
      "byteLength" : 1536
    },
    {
      "buffer" : 0,
      "byteOffset" : 22152,
      "byteLength" : 1584
    },
    {
      "buffer" : 0,
      "byteOffset" : 23736,
      "byteLength" : 2304
    },
    {
      "buffer" : 0,
      "byteOffset" : 26040,
      "byteLength" : 2304
    },
    {
      "buffer" : 0,
      "byteOffset" : 28344,
      "byteLength" : 3072
    },
    {
      "buffer" : 0,
      "byteOffset" : 31416,
      "byteLength" : 1536
    },
    {
      "buffer" : 0,
      "byteOffset" : 32952,
      "byteLength" : 1536
    }
  ],
  "accessors" : [
    {
      "bufferView" : 0,
      "componentType" : 5123,
      "count" : 288,
      "type" : "SCALAR"
    },
    {
      "bufferView" : 1,
      "min" : [ -9.1091, 7.04771, -89.2912 ],
      "max" : [ 9.54037, 7.15345, -76.8145 ],
      "componentType" : 5126,
      "count" : 165,
      "type" : "VEC3"
    },
    {
      "bufferView" : 2,
      "componentType" : 5126,
      "count" : 165,
      "type" : "VEC3"
    },
    {
      "bufferView" : 3,
      "componentType" : 5126,
      "count" : 165,
      "type" : "VEC4"
    },
    {
      "bufferView" : 4,
      "componentType" : 5126,
      "count" : 165,
      "type" : "VEC2"
    },
    {
      "bufferView" : 5,
      "componentType" : 5126,
      "count" : 165,
      "type" : "VEC2"
    },
    {
      "bufferView" : 6,
      "componentType" : 5123,
      "count" : 792,
      "type" : "SCALAR"
    },
    {
      "bufferView" : 7,
      "min" : [ -8.37639, 0.695089, -88.5412 ],
      "max" : [ -6.60266, 7.1251, -76.7396 ],
      "componentType" : 5126,
      "count" : 192,
      "type" : "VEC3"
    },
    {
      "bufferView" : 8,
      "componentType" : 5126,
      "count" : 192,
      "type" : "VEC3"
    },
    {
      "bufferView" : 9,
      "componentType" : 5126,
      "count" : 192,
      "type" : "VEC4"
    },
    {
      "bufferView" : 10,
      "componentType" : 5126,
      "count" : 192,
      "type" : "VEC2"
    },
    {
      "bufferView" : 11,
      "componentType" : 5126,
      "count" : 192,
      "type" : "VEC2"
    },
    {
      "bufferView" : 12,
      "componentType" : 5123,
      "count" : 792,
      "type" : "SCALAR"
    },
    {
      "bufferView" : 13,
      "min" : [ 6.87046, 0.646045, -89.3017 ],
      "max" : [ 8.64419, 7.07606, -77.5001 ],
      "componentType" : 5126,
      "count" : 192,
      "type" : "VEC3"
    },
    {
      "bufferView" : 14,
      "componentType" : 5126,
      "count" : 192,
      "type" : "VEC3"
    },
    {
      "bufferView" : 15,
      "componentType" : 5126,
      "count" : 192,
      "type" : "VEC4"
    },
    {
      "bufferView" : 16,
      "componentType" : 5126,
      "count" : 192,
      "type" : "VEC2"
    },
    {
      "bufferView" : 17,
      "componentType" : 5126,
      "count" : 192,
      "type" : "VEC2"
    }
  ]
}
