{
  "asset" : {
    "generator" : "UE Viewer (umodel) build 1590",
    "version" : "2.0"
  },
  "scene" : 0,
  "scenes" : [
    {
      "nodes" : [ 0 ]
    }
  ],
  "nodes" : [
    {
      "name" : "Stadium_LightCones",
      "mesh" : 0
    }
  ],
  "materials" : [
    {
      "name" : "dummy_material_0",
      "pbrMetallicRoughness" : {
        "baseColorFactor" : [ 0.3, 0.3, 0.3, 1.0 ],
        "metallicFactor" : 0.1,
        "roughnessFactor" : 0.5
      }
    }
  ],
  "meshes" : [
    {
      "primitives" : [
        {
          "attributes" : {
            "POSITION" : 1,
            "NORMAL" : 2,
            "TANGENT" : 3,
            "TEXCOORD_0" : 4
          },
          "indices" : 0,
          "material" : 0
        }
      ],
      "name" : "Stadium_LightCones"
    }
  ],
  "buffers" : [
    {
      "uri" : "Stadium_LightCones.bin",
      "byteLength" : 7152
    }
  ],
  "bufferViews" : [
    {
      "buffer" : 0,
      "byteOffset" : 0,
      "byteLength" : 1152
    },
    {
      "buffer" : 0,
      "byteOffset" : 1152,
      "byteLength" : 1500
    },
    {
      "buffer" : 0,
      "byteOffset" : 2652,
      "byteLength" : 1500
    },
    {
      "buffer" : 0,
      "byteOffset" : 4152,
      "byteLength" : 2000
    },
    {
      "buffer" : 0,
      "byteOffset" : 6152,
      "byteLength" : 1000
    }
  ],
  "accessors" : [
    {
      "bufferView" : 0,
      "componentType" : 5123,
      "count" : 576,
      "type" : "SCALAR"
    },
    {
      "bufferView" : 1,
      "min" : [ -0.0747784, -53.8075, -4.87918 ],
      "max" : [ 31.5699, 2.76593, 4.87917 ],
      "componentType" : 5126,
      "count" : 125,
      "type" : "VEC3"
    },
    {
      "bufferView" : 2,
      "componentType" : 5126,
      "count" : 125,
      "type" : "VEC3"
    },
    {
      "bufferView" : 3,
      "componentType" : 5126,
      "count" : 125,
      "type" : "VEC4"
    },
    {
      "bufferView" : 4,
      "componentType" : 5126,
      "count" : 125,
      "type" : "VEC2"
    }
  ]
}
