{
  "asset" : {
    "generator" : "UE Viewer (umodel) build 1590",
    "version" : "2.0"
  },
  "scene" : 0,
  "scenes" : [
    {
      "nodes" : [ 0 ]
    }
  ],
  "nodes" : [
    {
      "name" : "BoostPad_Large_Glow",
      "mesh" : 0
    }
  ],
  "materials" : [
    {
      "name" : "dummy_material_0",
      "pbrMetallicRoughness" : {
        "baseColorFactor" : [ 0.3, 0.3, 0.3, 1.0 ],
        "metallicFactor" : 0.1,
        "roughnessFactor" : 0.5
      }
    },
    {
      "name" : "dummy_material_1",
      "pbrMetallicRoughness" : {
        "baseColorFactor" : [ 0.9, 0.3, 0.3, 1.0 ],
        "metallicFactor" : 0.1,
        "roughnessFactor" : 0.5
      }
    }
  ],
  "meshes" : [
    {
      "primitives" : [
        {
          "attributes" : {
            "POSITION" : 1,
            "NORMAL" : 2,
            "TANGENT" : 3,
            "TEXCOORD_0" : 4
          },
          "indices" : 0,
          "material" : 0
        },
        {
          "attributes" : {
            "POSITION" : 6,
            "NORMAL" : 7,
            "TANGENT" : 8,
            "TEXCOORD_0" : 9
          },
          "indices" : 5,
          "material" : 1
        }
      ],
      "name" : "BoostPad_Large_Glow"
    }
  ],
  "buffers" : [
    {
      "uri" : "BoostPad_Large_Glow.bin",
      "byteLength" : 63128
    }
  ],
  "bufferViews" : [
    {
      "buffer" : 0,
      "byteOffset" : 0,
      "byteLength" : 2072
    },
    {
      "buffer" : 0,
      "byteOffset" : 2072,
      "byteLength" : 10620
    },
    {
      "buffer" : 0,
      "byteOffset" : 12692,
      "byteLength" : 10620
    },
    {
      "buffer" : 0,
      "byteOffset" : 23312,
      "byteLength" : 14160
    },
    {
      "buffer" : 0,
      "byteOffset" : 37472,
      "byteLength" : 7080
    },
    {
      "buffer" : 0,
      "byteOffset" : 44552,
      "byteLength" : 2448
    },
    {
      "buffer" : 0,
      "byteOffset" : 47000,
      "byteLength" : 4032
    },
    {
      "buffer" : 0,
      "byteOffset" : 51032,
      "byteLength" : 4032
    },
    {
      "buffer" : 0,
      "byteOffset" : 55064,
      "byteLength" : 5376
    },
    {
      "buffer" : 0,
      "byteOffset" : 60440,
      "byteLength" : 2688
    }
  ],
  "accessors" : [
    {
      "bufferView" : 0,
      "componentType" : 5123,
      "count" : 1035,
      "type" : "SCALAR"
    },
    {
      "bufferView" : 1,
      "min" : [ -0.763269, -0.0136724, -0.49311 ],
      "max" : [ 0.763242, 0.0789128, 0.845752 ],
      "componentType" : 5126,
      "count" : 885,
      "type" : "VEC3"
    },
    {
      "bufferView" : 2,
      "componentType" : 5126,
      "count" : 885,
      "type" : "VEC3"
    },
    {
      "bufferView" : 3,
      "componentType" : 5126,
      "count" : 885,
      "type" : "VEC4"
    },
    {
      "bufferView" : 4,
      "componentType" : 5126,
      "count" : 885,
      "type" : "VEC2"
    },
    {
      "bufferView" : 5,
      "componentType" : 5123,
      "count" : 1224,
      "type" : "SCALAR"
    },
    {
      "bufferView" : 6,
      "min" : [ -0.810489, -0.0145072, -0.521453 ],
      "max" : [ 0.810489, 0.64, 0.899913 ],
      "componentType" : 5126,
      "count" : 336,
      "type" : "VEC3"
    },
    {
      "bufferView" : 7,
      "componentType" : 5126,
      "count" : 336,
      "type" : "VEC3"
    },
    {
      "bufferView" : 8,
      "componentType" : 5126,
      "count" : 336,
      "type" : "VEC4"
    },
    {
      "bufferView" : 9,
      "componentType" : 5126,
      "count" : 336,
      "type" : "VEC2"
    }
  ]
}
