{
  "asset" : {
    "generator" : "UE Viewer (umodel) build 1590",
    "version" : "2.0"
  },
  "scene" : 0,
  "scenes" : [
    {
      "nodes" : [ 0 ]
    }
  ],
  "nodes" : [
    {
      "name" : "BoostPad_Glow_SM",
      "mesh" : 0
    }
  ],
  "materials" : [
    {
      "name" : "dummy_material_0",
      "pbrMetallicRoughness" : {
        "baseColorFactor" : [ 0.3, 0.3, 0.3, 1.0 ],
        "metallicFactor" : 0.1,
        "roughnessFactor" : 0.5
      }
    }
  ],
  "meshes" : [
    {
      "primitives" : [
        {
          "attributes" : {
            "POSITION" : 1,
            "NORMAL" : 2,
            "TANGENT" : 3,
            "TEXCOORD_0" : 4,
            "TEXCOORD_1" : 5
          },
          "indices" : 0,
          "material" : 0
        }
      ],
      "name" : "BoostPad_Glow_SM"
    }
  ],
  "buffers" : [
    {
      "uri" : "BoostPad_Glow_SM.bin",
      "byteLength" : 20496
    }
  ],
  "bufferViews" : [
    {
      "buffer" : 0,
      "byteOffset" : 0,
      "byteLength" : 2352
    },
    {
      "buffer" : 0,
      "byteOffset" : 2352,
      "byteLength" : 3888
    },
    {
      "buffer" : 0,
      "byteOffset" : 6240,
      "byteLength" : 3888
    },
    {
      "buffer" : 0,
      "byteOffset" : 10128,
      "byteLength" : 5184
    },
    {
      "buffer" : 0,
      "byteOffset" : 15312,
      "byteLength" : 2592
    },
    {
      "buffer" : 0,
      "byteOffset" : 17904,
      "byteLength" : 2592
    }
  ],
  "accessors" : [
    {
      "bufferView" : 0,
      "componentType" : 5123,
      "count" : 1176,
      "type" : "SCALAR"
    },
    {
      "bufferView" : 1,
      "min" : [ -0.81208, -0.0145073, -0.521601 ],
      "max" : [ 0.81041, 0.64, 0.899913 ],
      "componentType" : 5126,
      "count" : 324,
      "type" : "VEC3"
    },
    {
      "bufferView" : 2,
      "componentType" : 5126,
      "count" : 324,
      "type" : "VEC3"
    },
    {
      "bufferView" : 3,
      "componentType" : 5126,
      "count" : 324,
      "type" : "VEC4"
    },
    {
      "bufferView" : 4,
      "componentType" : 5126,
      "count" : 324,
      "type" : "VEC2"
    },
    {
      "bufferView" : 5,
      "componentType" : 5126,
      "count" : 324,
      "type" : "VEC2"
    }
  ]
}
