{
  "asset" : {
    "generator" : "UE Viewer (umodel) build 1590",
    "version" : "2.0"
  },
  "scene" : 0,
  "scenes" : [
    {
      "nodes" : [ 0 ]
    }
  ],
  "nodes" : [
    {
      "name" : "CityGround_01",
      "mesh" : 0
    }
  ],
  "materials" : [
    {
      "name" : "dummy_material_0",
      "pbrMetallicRoughness" : {
        "baseColorFactor" : [ 0.3, 0.3, 0.3, 1.0 ],
        "metallicFactor" : 0.1,
        "roughnessFactor" : 0.5
      }
    }
  ],
  "meshes" : [
    {
      "primitives" : [
        {
          "attributes" : {
            "POSITION" : 1,
            "NORMAL" : 2,
            "TANGENT" : 3,
            "TEXCOORD_0" : 4
          },
          "indices" : 0,
          "material" : 0
        }
      ],
      "name" : "CityGround_01"
    }
  ],
  "buffers" : [
    {
      "uri" : "CityGround_01.bin",
      "byteLength" : 186864
    }
  ],
  "bufferViews" : [
    {
      "buffer" : 0,
      "byteOffset" : 0,
      "byteLength" : 35328
    },
    {
      "buffer" : 0,
      "byteOffset" : 35328,
      "byteLength" : 37884
    },
    {
      "buffer" : 0,
      "byteOffset" : 73212,
      "byteLength" : 37884
    },
    {
      "buffer" : 0,
      "byteOffset" : 111096,
      "byteLength" : 50512
    },
    {
      "buffer" : 0,
      "byteOffset" : 161608,
      "byteLength" : 25256
    }
  ],
  "accessors" : [
    {
      "bufferView" : 0,
      "componentType" : 5123,
      "count" : 17664,
      "type" : "SCALAR"
    },
    {
      "bufferView" : 1,
      "min" : [ -39.4155, -0.220263, -39.4156 ],
      "max" : [ 39.4155, 1.39524, 39.4155 ],
      "componentType" : 5126,
      "count" : 3157,
      "type" : "VEC3"
    },
    {
      "bufferView" : 2,
      "componentType" : 5126,
      "count" : 3157,
      "type" : "VEC3"
    },
    {
      "bufferView" : 3,
      "componentType" : 5126,
      "count" : 3157,
      "type" : "VEC4"
    },
    {
      "bufferView" : 4,
      "componentType" : 5126,
      "count" : 3157,
      "type" : "VEC2"
    }
  ]
}
