{
  "asset" : {
    "generator" : "UE Viewer (umodel) build 1590",
    "version" : "2.0"
  },
  "scene" : 0,
  "scenes" : [
    {
      "nodes" : [ 0 ]
    }
  ],
  "nodes" : [
    {
      "name" : "SkyDome01",
      "mesh" : 0
    }
  ],
  "materials" : [
    {
      "name" : "dummy_material_0",
      "pbrMetallicRoughness" : {
        "baseColorFactor" : [ 0.3, 0.3, 0.3, 1.0 ],
        "metallicFactor" : 0.1,
        "roughnessFactor" : 0.5
      }
    }
  ],
  "meshes" : [
    {
      "primitives" : [
        {
          "attributes" : {
            "POSITION" : 1,
            "NORMAL" : 2,
            "TANGENT" : 3,
            "TEXCOORD_0" : 4
          },
          "indices" : 0,
          "material" : 0
        }
      ],
      "name" : "SkyDome01"
    }
  ],
  "buffers" : [
    {
      "uri" : "SkyDome01.bin",
      "byteLength" : 13296
    }
  ],
  "bufferViews" : [
    {
      "buffer" : 0,
      "byteOffset" : 0,
      "byteLength" : 2496
    },
    {
      "buffer" : 0,
      "byteOffset" : 2496,
      "byteLength" : 2700
    },
    {
      "buffer" : 0,
      "byteOffset" : 5196,
      "byteLength" : 2700
    },
    {
      "buffer" : 0,
      "byteOffset" : 7896,
      "byteLength" : 3600
    },
    {
      "buffer" : 0,
      "byteOffset" : 11496,
      "byteLength" : 1800
    }
  ],
  "accessors" : [
    {
      "bufferView" : 0,
      "componentType" : 5123,
      "count" : 1248,
      "type" : "SCALAR"
    },
    {
      "bufferView" : 1,
      "min" : [ -20.0865, 0, -20.0865 ],
      "max" : [ 20.0865, 11.52, 20.0865 ],
      "componentType" : 5126,
      "count" : 225,
      "type" : "VEC3"
    },
    {
      "bufferView" : 2,
      "componentType" : 5126,
      "count" : 225,
      "type" : "VEC3"
    },
    {
      "bufferView" : 3,
      "componentType" : 5126,
      "count" : 225,
      "type" : "VEC4"
    },
    {
      "bufferView" : 4,
      "componentType" : 5126,
      "count" : 225,
      "type" : "VEC2"
    }
  ]
}
