{
  "asset" : {
    "generator" : "UE Viewer (umodel) build 1590",
    "version" : "2.0"
  },
  "scene" : 0,
  "scenes" : [
    {
      "nodes" : [ 0 ]
    }
  ],
  "nodes" : [
    {
      "name" : "DroneBotThruster_SM",
      "mesh" : 0
    }
  ],
  "materials" : [
    {
      "name" : "dummy_material_0",
      "pbrMetallicRoughness" : {
        "baseColorFactor" : [ 0.3, 0.3, 0.3, 1.0 ],
        "metallicFactor" : 0.1,
        "roughnessFactor" : 0.5
      }
    }
  ],
  "meshes" : [
    {
      "primitives" : [
        {
          "attributes" : {
            "POSITION" : 1,
            "NORMAL" : 2,
            "TANGENT" : 3,
            "TEXCOORD_0" : 4,
            "TEXCOORD_1" : 5
          },
          "indices" : 0,
          "material" : 0
        }
      ],
      "name" : "DroneBotThruster_SM"
    }
  ],
  "buffers" : [
    {
      "uri" : "DroneBotThruster_SM.bin",
      "byteLength" : 58288
    }
  ],
  "bufferViews" : [
    {
      "buffer" : 0,
      "byteOffset" : 0,
      "byteLength" : 9120
    },
    {
      "buffer" : 0,
      "byteOffset" : 9120,
      "byteLength" : 10536
    },
    {
      "buffer" : 0,
      "byteOffset" : 19656,
      "byteLength" : 10536
    },
    {
      "buffer" : 0,
      "byteOffset" : 30192,
      "byteLength" : 14048
    },
    {
      "buffer" : 0,
      "byteOffset" : 44240,
      "byteLength" : 7024
    },
    {
      "buffer" : 0,
      "byteOffset" : 51264,
      "byteLength" : 7024
    }
  ],
  "accessors" : [
    {
      "bufferView" : 0,
      "componentType" : 5123,
      "count" : 4560,
      "type" : "SCALAR"
    },
    {
      "bufferView" : 1,
      "min" : [ -0.347549, -2.17426, -0.347549 ],
      "max" : [ 0.347549, 1.27355e-17, 0.347549 ],
      "componentType" : 5126,
      "count" : 878,
      "type" : "VEC3"
    },
    {
      "bufferView" : 2,
      "componentType" : 5126,
      "count" : 878,
      "type" : "VEC3"
    },
    {
      "bufferView" : 3,
      "componentType" : 5126,
      "count" : 878,
      "type" : "VEC4"
    },
    {
      "bufferView" : 4,
      "componentType" : 5126,
      "count" : 878,
      "type" : "VEC2"
    },
    {
      "bufferView" : 5,
      "componentType" : 5126,
      "count" : 878,
      "type" : "VEC2"
    }
  ]
}
