{
  "asset" : {
    "generator" : "UE Viewer (umodel) build 1590",
    "version" : "2.0"
  },
  "scene" : 0,
  "scenes" : [
    {
      "nodes" : [ 0 ]
    }
  ],
  "nodes" : [
    {
      "name" : "TrailClump_SM",
      "mesh" : 0
    }
  ],
  "materials" : [
    {
      "name" : "DefaultMaterial",
      "pbrMetallicRoughness" : {
        "baseColorFactor" : [ 0.3, 0.3, 0.3, 1.0 ],
        "metallicFactor" : 0.1,
        "roughnessFactor" : 0.5
      }
    }
  ],
  "meshes" : [
    {
      "primitives" : [
        {
          "attributes" : {
            "POSITION" : 1,
            "NORMAL" : 2,
            "TANGENT" : 3,
            "TEXCOORD_0" : 4
          },
          "indices" : 0,
          "material" : 0
        }
      ],
      "name" : "TrailClump_SM"
    }
  ],
  "buffers" : [
    {
      "uri" : "TrailClump_SM.bin",
      "byteLength" : 384000
    }
  ],
  "bufferViews" : [
    {
      "buffer" : 0,
      "byteOffset" : 0,
      "byteLength" : 38400
    },
    {
      "buffer" : 0,
      "byteOffset" : 38400,
      "byteLength" : 86400
    },
    {
      "buffer" : 0,
      "byteOffset" : 124800,
      "byteLength" : 86400
    },
    {
      "buffer" : 0,
      "byteOffset" : 211200,
      "byteLength" : 115200
    },
    {
      "buffer" : 0,
      "byteOffset" : 326400,
      "byteLength" : 57600
    }
  ],
  "accessors" : [
    {
      "bufferView" : 0,
      "componentType" : 5123,
      "count" : 19200,
      "type" : "SCALAR"
    },
    {
      "bufferView" : 1,
      "min" : [ -0.780758, -0.850314, -0.875256 ],
      "max" : [ 0.763902, 0.694768, 0.815915 ],
      "componentType" : 5126,
      "count" : 7200,
      "type" : "VEC3"
    },
    {
      "bufferView" : 2,
      "componentType" : 5126,
      "count" : 7200,
      "type" : "VEC3"
    },
    {
      "bufferView" : 3,
      "componentType" : 5126,
      "count" : 7200,
      "type" : "VEC4"
    },
    {
      "bufferView" : 4,
      "componentType" : 5126,
      "count" : 7200,
      "type" : "VEC2"
    }
  ]
}
