{
  "asset" : {
    "generator" : "UE Viewer (umodel) build 1590",
    "version" : "2.0"
  },
  "scene" : 0,
  "scenes" : [
    {
      "nodes" : [ 0 ]
    }
  ],
  "nodes" : [
    {
      "name" : "FieldSpotLights_Team2_Combined",
      "mesh" : 0
    }
  ],
  "materials" : [
    {
      "name" : "dummy_material_0",
      "pbrMetallicRoughness" : {
        "baseColorFactor" : [ 0.3, 0.3, 0.3, 1.0 ],
        "metallicFactor" : 0.1,
        "roughnessFactor" : 0.5
      }
    }
  ],
  "meshes" : [
    {
      "primitives" : [
        {
          "attributes" : {
            "POSITION" : 1,
            "NORMAL" : 2,
            "TANGENT" : 3,
            "TEXCOORD_0" : 4
          },
          "indices" : 0,
          "material" : 0
        }
      ],
      "name" : "FieldSpotLights_Team2_Combined"
    }
  ],
  "buffers" : [
    {
      "uri" : "FieldSpotLights_Team2_Combined.bin",
      "byteLength" : 4080
    }
  ],
  "bufferViews" : [
    {
      "buffer" : 0,
      "byteOffset" : 0,
      "byteLength" : 240
    },
    {
      "buffer" : 0,
      "byteOffset" : 240,
      "byteLength" : 960
    },
    {
      "buffer" : 0,
      "byteOffset" : 1200,
      "byteLength" : 960
    },
    {
      "buffer" : 0,
      "byteOffset" : 2160,
      "byteLength" : 1280
    },
    {
      "buffer" : 0,
      "byteOffset" : 3440,
      "byteLength" : 640
    }
  ],
  "accessors" : [
    {
      "bufferView" : 0,
      "componentType" : 5123,
      "count" : 120,
      "type" : "SCALAR"
    },
    {
      "bufferView" : 1,
      "min" : [ -42.88, -33.2, -9.84747 ],
      "max" : [ 42.88, 33.2, 9.84748 ],
      "componentType" : 5126,
      "count" : 80,
      "type" : "VEC3"
    },
    {
      "bufferView" : 2,
      "componentType" : 5126,
      "count" : 80,
      "type" : "VEC3"
    },
    {
      "bufferView" : 3,
      "componentType" : 5126,
      "count" : 80,
      "type" : "VEC4"
    },
    {
      "bufferView" : 4,
      "componentType" : 5126,
      "count" : 80,
      "type" : "VEC2"
    }
  ]
}
