{
  "asset" : {
    "generator" : "UE Viewer (umodel) build 1590",
    "version" : "2.0"
  },
  "scene" : 0,
  "scenes" : [
    {
      "nodes" : [ 0 ]
    }
  ],
  "nodes" : [
    {
      "name" : "Blimp_Offset_SM",
      "mesh" : 0
    }
  ],
  "materials" : [
    {
      "name" : "dummy_material_0",
      "pbrMetallicRoughness" : {
        "baseColorFactor" : [ 0.3, 0.3, 0.3, 1.0 ],
        "metallicFactor" : 0.1,
        "roughnessFactor" : 0.5
      }
    },
    {
      "name" : "dummy_material_1",
      "pbrMetallicRoughness" : {
        "baseColorFactor" : [ 0.9, 0.3, 0.3, 1.0 ],
        "metallicFactor" : 0.1,
        "roughnessFactor" : 0.5
      }
    }
  ],
  "meshes" : [
    {
      "primitives" : [
        {
          "attributes" : {
            "POSITION" : 1,
            "NORMAL" : 2,
            "TANGENT" : 3,
            "COLOR_0" : 4,
            "TEXCOORD_0" : 5,
            "TEXCOORD_1" : 6
          },
          "indices" : 0,
          "material" : 0
        },
        {
          "attributes" : {
            "POSITION" : 8,
            "NORMAL" : 9,
            "TANGENT" : 10,
            "COLOR_0" : 11,
            "TEXCOORD_0" : 12,
            "TEXCOORD_1" : 13
          },
          "indices" : 7,
          "material" : 1
        }
      ],
      "name" : "Blimp_Offset_SM"
    }
  ],
  "buffers" : [
    {
      "uri" : "Blimp_Offset_SM.bin",
      "byteLength" : 418008
    }
  ],
  "bufferViews" : [
    {
      "buffer" : 0,
      "byteOffset" : 0,
      "byteLength" : 216
    },
    {
      "buffer" : 0,
      "byteOffset" : 216,
      "byteLength" : 384
    },
    {
      "buffer" : 0,
      "byteOffset" : 600,
      "byteLength" : 384
    },
    {
      "buffer" : 0,
      "byteOffset" : 984,
      "byteLength" : 512
    },
    {
      "buffer" : 0,
      "byteOffset" : 1496,
      "byteLength" : 128
    },
    {
      "buffer" : 0,
      "byteOffset" : 1624,
      "byteLength" : 256
    },
    {
      "buffer" : 0,
      "byteOffset" : 1880,
      "byteLength" : 256
    },
    {
      "buffer" : 0,
      "byteOffset" : 2136,
      "byteLength" : 48672
    },
    {
      "buffer" : 0,
      "byteOffset" : 50808,
      "byteLength" : 73440
    },
    {
      "buffer" : 0,
      "byteOffset" : 124248,
      "byteLength" : 73440
    },
    {
      "buffer" : 0,
      "byteOffset" : 197688,
      "byteLength" : 97920
    },
    {
      "buffer" : 0,
      "byteOffset" : 295608,
      "byteLength" : 24480
    },
    {
      "buffer" : 0,
      "byteOffset" : 320088,
      "byteLength" : 48960
    },
    {
      "buffer" : 0,
      "byteOffset" : 369048,
      "byteLength" : 48960
    }
  ],
  "accessors" : [
    {
      "bufferView" : 0,
      "componentType" : 5123,
      "count" : 108,
      "type" : "SCALAR"
    },
    {
      "bufferView" : 1,
      "min" : [ -12.1725, -8.17511, -20.3007 ],
      "max" : [ 12.1725, -0.49549, -3.46841 ],
      "componentType" : 5126,
      "count" : 32,
      "type" : "VEC3"
    },
    {
      "bufferView" : 2,
      "componentType" : 5126,
      "count" : 32,
      "type" : "VEC3"
    },
    {
      "bufferView" : 3,
      "componentType" : 5126,
      "count" : 32,
      "type" : "VEC4"
    },
    {
      "bufferView" : 4,
      "normalized" : true,
      "componentType" : 5121,
      "count" : 32,
      "type" : "VEC4"
    },
    {
      "bufferView" : 5,
      "componentType" : 5126,
      "count" : 32,
      "type" : "VEC2"
    },
    {
      "bufferView" : 6,
      "componentType" : 5126,
      "count" : 32,
      "type" : "VEC2"
    },
    {
      "bufferView" : 7,
      "componentType" : 5123,
      "count" : 24336,
      "type" : "SCALAR"
    },
    {
      "bufferView" : 8,
      "min" : [ -12.0516, -13.52, -32.5522 ],
      "max" : [ 12.0516, 13.52, 32.5522 ],
      "componentType" : 5126,
      "count" : 6120,
      "type" : "VEC3"
    },
    {
      "bufferView" : 9,
      "componentType" : 5126,
      "count" : 6120,
      "type" : "VEC3"
    },
    {
      "bufferView" : 10,
      "componentType" : 5126,
      "count" : 6120,
      "type" : "VEC4"
    },
    {
      "bufferView" : 11,
      "normalized" : true,
      "componentType" : 5121,
      "count" : 6120,
      "type" : "VEC4"
    },
    {
      "bufferView" : 12,
      "componentType" : 5126,
      "count" : 6120,
      "type" : "VEC2"
    },
    {
      "bufferView" : 13,
      "componentType" : 5126,
      "count" : 6120,
      "type" : "VEC2"
    }
  ]
}
