{
  "asset" : {
    "generator" : "UE Viewer (umodel) build 1590",
    "version" : "2.0"
  },
  "scene" : 0,
  "scenes" : [
    {
      "nodes" : [ 0 ]
    }
  ],
  "nodes" : [
    {
      "name" : "CS_Emblem_00",
      "mesh" : 0
    }
  ],
  "materials" : [
    {
      "name" : "dummy_material_0",
      "pbrMetallicRoughness" : {
        "baseColorFactor" : [ 0.3, 0.3, 0.3, 1.0 ],
        "metallicFactor" : 0.1,
        "roughnessFactor" : 0.5
      }
    },
    {
      "name" : "dummy_material_1",
      "pbrMetallicRoughness" : {
        "baseColorFactor" : [ 0.9, 0.3, 0.3, 1.0 ],
        "metallicFactor" : 0.1,
        "roughnessFactor" : 0.5
      }
    },
    {
      "name" : "dummy_material_2",
      "pbrMetallicRoughness" : {
        "baseColorFactor" : [ 0.3, 0.9, 0.3, 1.0 ],
        "metallicFactor" : 0.1,
        "roughnessFactor" : 0.5
      }
    },
    {
      "name" : "dummy_material_3",
      "pbrMetallicRoughness" : {
        "baseColorFactor" : [ 0.3, 0.3, 0.9, 1.0 ],
        "metallicFactor" : 0.1,
        "roughnessFactor" : 0.5
      }
    }
  ],
  "meshes" : [
    {
      "primitives" : [
        {
          "attributes" : {
            "POSITION" : 1,
            "NORMAL" : 2,
            "TANGENT" : 3,
            "COLOR_0" : 4,
            "TEXCOORD_0" : 5,
            "TEXCOORD_1" : 6
          },
          "indices" : 0,
          "material" : 0
        },
        {
          "attributes" : {
            "POSITION" : 8,
            "NORMAL" : 9,
            "TANGENT" : 10,
            "COLOR_0" : 11,
            "TEXCOORD_0" : 12,
            "TEXCOORD_1" : 13
          },
          "indices" : 7,
          "material" : 1
        },
        {
          "attributes" : {
            "POSITION" : 15,
            "NORMAL" : 16,
            "TANGENT" : 17,
            "COLOR_0" : 18,
            "TEXCOORD_0" : 19,
            "TEXCOORD_1" : 20
          },
          "indices" : 14,
          "material" : 2
        },
        {
          "attributes" : {
            "POSITION" : 22,
            "NORMAL" : 23,
            "TANGENT" : 24,
            "COLOR_0" : 25,
            "TEXCOORD_0" : 26,
            "TEXCOORD_1" : 27
          },
          "indices" : 21,
          "material" : 3
        }
      ],
      "name" : "CS_Emblem_00"
    }
  ],
  "buffers" : [
    {
      "uri" : "CS_Emblem_00.bin",
      "byteLength" : 823508
    }
  ],
  "bufferViews" : [
    {
      "buffer" : 0,
      "byteOffset" : 0,
      "byteLength" : 42264
    },
    {
      "buffer" : 0,
      "byteOffset" : 42264,
      "byteLength" : 84672
    },
    {
      "buffer" : 0,
      "byteOffset" : 126936,
      "byteLength" : 84672
    },
    {
      "buffer" : 0,
      "byteOffset" : 211608,
      "byteLength" : 112896
    },
    {
      "buffer" : 0,
      "byteOffset" : 324504,
      "byteLength" : 28224
    },
    {
      "buffer" : 0,
      "byteOffset" : 352728,
      "byteLength" : 56448
    },
    {
      "buffer" : 0,
      "byteOffset" : 409176,
      "byteLength" : 56448
    },
    {
      "buffer" : 0,
      "byteOffset" : 465624,
      "byteLength" : 2004
    },
    {
      "buffer" : 0,
      "byteOffset" : 467628,
      "byteLength" : 4812
    },
    {
      "buffer" : 0,
      "byteOffset" : 472440,
      "byteLength" : 4812
    },
    {
      "buffer" : 0,
      "byteOffset" : 477252,
      "byteLength" : 6416
    },
    {
      "buffer" : 0,
      "byteOffset" : 483668,
      "byteLength" : 1604
    },
    {
      "buffer" : 0,
      "byteOffset" : 485272,
      "byteLength" : 3208
    },
    {
      "buffer" : 0,
      "byteOffset" : 488480,
      "byteLength" : 3208
    },
    {
      "buffer" : 0,
      "byteOffset" : 491688,
      "byteLength" : 26376
    },
    {
      "buffer" : 0,
      "byteOffset" : 518064,
      "byteLength" : 53472
    },
    {
      "buffer" : 0,
      "byteOffset" : 571536,
      "byteLength" : 53472
    },
    {
      "buffer" : 0,
      "byteOffset" : 625008,
      "byteLength" : 71296
    },
    {
      "buffer" : 0,
      "byteOffset" : 696304,
      "byteLength" : 17824
    },
    {
      "buffer" : 0,
      "byteOffset" : 714128,
      "byteLength" : 35648
    },
    {
      "buffer" : 0,
      "byteOffset" : 749776,
      "byteLength" : 35648
    },
    {
      "buffer" : 0,
      "byteOffset" : 785424,
      "byteLength" : 3704
    },
    {
      "buffer" : 0,
      "byteOffset" : 789128,
      "byteLength" : 6876
    },
    {
      "buffer" : 0,
      "byteOffset" : 796004,
      "byteLength" : 6876
    },
    {
      "buffer" : 0,
      "byteOffset" : 802880,
      "byteLength" : 9168
    },
    {
      "buffer" : 0,
      "byteOffset" : 812048,
      "byteLength" : 2292
    },
    {
      "buffer" : 0,
      "byteOffset" : 814340,
      "byteLength" : 4584
    },
    {
      "buffer" : 0,
      "byteOffset" : 818924,
      "byteLength" : 4584
    }
  ],
  "accessors" : [
    {
      "bufferView" : 0,
      "componentType" : 5123,
      "count" : 21132,
      "type" : "SCALAR"
    },
    {
      "bufferView" : 1,
      "min" : [ -14.1638, -17.6453, -106.937 ],
      "max" : [ 9.03838, 230.607, 106.937 ],
      "componentType" : 5126,
      "count" : 7056,
      "type" : "VEC3"
    },
    {
      "bufferView" : 2,
      "componentType" : 5126,
      "count" : 7056,
      "type" : "VEC3"
    },
    {
      "bufferView" : 3,
      "componentType" : 5126,
      "count" : 7056,
      "type" : "VEC4"
    },
    {
      "bufferView" : 4,
      "normalized" : true,
      "componentType" : 5121,
      "count" : 7056,
      "type" : "VEC4"
    },
    {
      "bufferView" : 5,
      "componentType" : 5126,
      "count" : 7056,
      "type" : "VEC2"
    },
    {
      "bufferView" : 6,
      "componentType" : 5126,
      "count" : 7056,
      "type" : "VEC2"
    },
    {
      "bufferView" : 7,
      "componentType" : 5123,
      "count" : 1002,
      "type" : "SCALAR"
    },
    {
      "bufferView" : 8,
      "min" : [ -22.4447, 32.8359, -24.3262 ],
      "max" : [ -7.35451, 124.703, 24.216 ],
      "componentType" : 5126,
      "count" : 401,
      "type" : "VEC3"
    },
    {
      "bufferView" : 9,
      "componentType" : 5126,
      "count" : 401,
      "type" : "VEC3"
    },
    {
      "bufferView" : 10,
      "componentType" : 5126,
      "count" : 401,
      "type" : "VEC4"
    },
    {
      "bufferView" : 11,
      "normalized" : true,
      "componentType" : 5121,
      "count" : 401,
      "type" : "VEC4"
    },
    {
      "bufferView" : 12,
      "componentType" : 5126,
      "count" : 401,
      "type" : "VEC2"
    },
    {
      "bufferView" : 13,
      "componentType" : 5126,
      "count" : 401,
      "type" : "VEC2"
    },
    {
      "bufferView" : 14,
      "componentType" : 5123,
      "count" : 13188,
      "type" : "SCALAR"
    },
    {
      "bufferView" : 15,
      "min" : [ -15.676, -16.9126, -107.246 ],
      "max" : [ 17.2137, 264.703, 107.246 ],
      "componentType" : 5126,
      "count" : 4456,
      "type" : "VEC3"
    },
    {
      "bufferView" : 16,
      "componentType" : 5126,
      "count" : 4456,
      "type" : "VEC3"
    },
    {
      "bufferView" : 17,
      "componentType" : 5126,
      "count" : 4456,
      "type" : "VEC4"
    },
    {
      "bufferView" : 18,
      "normalized" : true,
      "componentType" : 5121,
      "count" : 4456,
      "type" : "VEC4"
    },
    {
      "bufferView" : 19,
      "componentType" : 5126,
      "count" : 4456,
      "type" : "VEC2"
    },
    {
      "bufferView" : 20,
      "componentType" : 5126,
      "count" : 4456,
      "type" : "VEC2"
    },
    {
      "bufferView" : 21,
      "componentType" : 5123,
      "count" : 1851,
      "type" : "SCALAR"
    },
    {
      "bufferView" : 22,
      "min" : [ -10.4373, -13.7374, -97.2413 ],
      "max" : [ 3.96723, 208.881, 97.2413 ],
      "componentType" : 5126,
      "count" : 573,
      "type" : "VEC3"
    },
    {
      "bufferView" : 23,
      "componentType" : 5126,
      "count" : 573,
      "type" : "VEC3"
    },
    {
      "bufferView" : 24,
      "componentType" : 5126,
      "count" : 573,
      "type" : "VEC4"
    },
    {
      "bufferView" : 25,
      "normalized" : true,
      "componentType" : 5121,
      "count" : 573,
      "type" : "VEC4"
    },
    {
      "bufferView" : 26,
      "componentType" : 5126,
      "count" : 573,
      "type" : "VEC2"
    },
    {
      "bufferView" : 27,
      "componentType" : 5126,
      "count" : 573,
      "type" : "VEC2"
    }
  ]
}
