{
  "asset" : {
    "generator" : "UE Viewer (umodel) build 1590",
    "version" : "2.0"
  },
  "scene" : 0,
  "scenes" : [
    {
      "nodes" : [ 0 ]
    }
  ],
  "nodes" : [
    {
      "name" : "CS_Stands_01",
      "mesh" : 0
    }
  ],
  "materials" : [
    {
      "name" : "dummy_material_0",
      "pbrMetallicRoughness" : {
        "baseColorFactor" : [ 0.3, 0.3, 0.3, 1.0 ],
        "metallicFactor" : 0.1,
        "roughnessFactor" : 0.5
      }
    },
    {
      "name" : "dummy_material_1",
      "pbrMetallicRoughness" : {
        "baseColorFactor" : [ 0.9, 0.3, 0.3, 1.0 ],
        "metallicFactor" : 0.1,
        "roughnessFactor" : 0.5
      }
    },
    {
      "name" : "dummy_material_2",
      "pbrMetallicRoughness" : {
        "baseColorFactor" : [ 0.3, 0.9, 0.3, 1.0 ],
        "metallicFactor" : 0.1,
        "roughnessFactor" : 0.5
      }
    },
    {
      "name" : "dummy_material_3",
      "pbrMetallicRoughness" : {
        "baseColorFactor" : [ 0.3, 0.3, 0.9, 1.0 ],
        "metallicFactor" : 0.1,
        "roughnessFactor" : 0.5
      }
    }
  ],
  "meshes" : [
    {
      "primitives" : [
        {
          "attributes" : {
            "POSITION" : 1,
            "NORMAL" : 2,
            "TANGENT" : 3,
            "TEXCOORD_0" : 4,
            "TEXCOORD_1" : 5
          },
          "indices" : 0,
          "material" : 0
        },
        {
          "attributes" : {
            "POSITION" : 7,
            "NORMAL" : 8,
            "TANGENT" : 9,
            "TEXCOORD_0" : 10,
            "TEXCOORD_1" : 11
          },
          "indices" : 6,
          "material" : 1
        },
        {
          "attributes" : {
            "POSITION" : 13,
            "NORMAL" : 14,
            "TANGENT" : 15,
            "TEXCOORD_0" : 16,
            "TEXCOORD_1" : 17
          },
          "indices" : 12,
          "material" : 2
        },
        {
          "attributes" : {
            "POSITION" : 19,
            "NORMAL" : 20,
            "TANGENT" : 21,
            "TEXCOORD_0" : 22,
            "TEXCOORD_1" : 23
          },
          "indices" : 18,
          "material" : 3
        }
      ],
      "name" : "CS_Stands_01"
    }
  ],
  "buffers" : [
    {
      "uri" : "CS_Stands_01.bin",
      "byteLength" : 576492
    }
  ],
  "bufferViews" : [
    {
      "buffer" : 0,
      "byteOffset" : 0,
      "byteLength" : 324
    },
    {
      "buffer" : 0,
      "byteOffset" : 324,
      "byteLength" : 1296
    },
    {
      "buffer" : 0,
      "byteOffset" : 1620,
      "byteLength" : 1296
    },
    {
      "buffer" : 0,
      "byteOffset" : 2916,
      "byteLength" : 1728
    },
    {
      "buffer" : 0,
      "byteOffset" : 4644,
      "byteLength" : 864
    },
    {
      "buffer" : 0,
      "byteOffset" : 5508,
      "byteLength" : 864
    },
    {
      "buffer" : 0,
      "byteOffset" : 6372,
      "byteLength" : 52476
    },
    {
      "buffer" : 0,
      "byteOffset" : 58848,
      "byteLength" : 106248
    },
    {
      "buffer" : 0,
      "byteOffset" : 165096,
      "byteLength" : 106248
    },
    {
      "buffer" : 0,
      "byteOffset" : 271344,
      "byteLength" : 141664
    },
    {
      "buffer" : 0,
      "byteOffset" : 413008,
      "byteLength" : 70832
    },
    {
      "buffer" : 0,
      "byteOffset" : 483840,
      "byteLength" : 70832
    },
    {
      "buffer" : 0,
      "byteOffset" : 554672,
      "byteLength" : 2028
    },
    {
      "buffer" : 0,
      "byteOffset" : 556700,
      "byteLength" : 4164
    },
    {
      "buffer" : 0,
      "byteOffset" : 560864,
      "byteLength" : 4164
    },
    {
      "buffer" : 0,
      "byteOffset" : 565028,
      "byteLength" : 5552
    },
    {
      "buffer" : 0,
      "byteOffset" : 570580,
      "byteLength" : 2776
    },
    {
      "buffer" : 0,
      "byteOffset" : 573356,
      "byteLength" : 2776
    },
    {
      "buffer" : 0,
      "byteOffset" : 576132,
      "byteLength" : 24
    },
    {
      "buffer" : 0,
      "byteOffset" : 576156,
      "byteLength" : 72
    },
    {
      "buffer" : 0,
      "byteOffset" : 576228,
      "byteLength" : 72
    },
    {
      "buffer" : 0,
      "byteOffset" : 576300,
      "byteLength" : 96
    },
    {
      "buffer" : 0,
      "byteOffset" : 576396,
      "byteLength" : 48
    },
    {
      "buffer" : 0,
      "byteOffset" : 576444,
      "byteLength" : 48
    }
  ],
  "accessors" : [
    {
      "bufferView" : 0,
      "componentType" : 5123,
      "count" : 162,
      "type" : "SCALAR"
    },
    {
      "bufferView" : 1,
      "min" : [ -272.769, 5.95877, -79.7256 ],
      "max" : [ -111.815, 93.028, 80.799 ],
      "componentType" : 5126,
      "count" : 108,
      "type" : "VEC3"
    },
    {
      "bufferView" : 2,
      "componentType" : 5126,
      "count" : 108,
      "type" : "VEC3"
    },
    {
      "bufferView" : 3,
      "componentType" : 5126,
      "count" : 108,
      "type" : "VEC4"
    },
    {
      "bufferView" : 4,
      "componentType" : 5126,
      "count" : 108,
      "type" : "VEC2"
    },
    {
      "bufferView" : 5,
      "componentType" : 5126,
      "count" : 108,
      "type" : "VEC2"
    },
    {
      "bufferView" : 6,
      "componentType" : 5123,
      "count" : 26238,
      "type" : "SCALAR"
    },
    {
      "bufferView" : 7,
      "min" : [ -281.614, -3.91751, -87.5574 ],
      "max" : [ -105.357, 101.871, 88.7444 ],
      "componentType" : 5126,
      "count" : 8854,
      "type" : "VEC3"
    },
    {
      "bufferView" : 8,
      "componentType" : 5126,
      "count" : 8854,
      "type" : "VEC3"
    },
    {
      "bufferView" : 9,
      "componentType" : 5126,
      "count" : 8854,
      "type" : "VEC4"
    },
    {
      "bufferView" : 10,
      "componentType" : 5126,
      "count" : 8854,
      "type" : "VEC2"
    },
    {
      "bufferView" : 11,
      "componentType" : 5126,
      "count" : 8854,
      "type" : "VEC2"
    },
    {
      "bufferView" : 12,
      "componentType" : 5123,
      "count" : 1014,
      "type" : "SCALAR"
    },
    {
      "bufferView" : 13,
      "min" : [ -268.881, 5.99597, -86.2928 ],
      "max" : [ -111.963, 92.5783, 87.1304 ],
      "componentType" : 5126,
      "count" : 347,
      "type" : "VEC3"
    },
    {
      "bufferView" : 14,
      "componentType" : 5126,
      "count" : 347,
      "type" : "VEC3"
    },
    {
      "bufferView" : 15,
      "componentType" : 5126,
      "count" : 347,
      "type" : "VEC4"
    },
    {
      "bufferView" : 16,
      "componentType" : 5126,
      "count" : 347,
      "type" : "VEC2"
    },
    {
      "bufferView" : 17,
      "componentType" : 5126,
      "count" : 347,
      "type" : "VEC2"
    },
    {
      "bufferView" : 18,
      "componentType" : 5123,
      "count" : 12,
      "type" : "SCALAR"
    },
    {
      "bufferView" : 19,
      "min" : [ -184.314, 28.8093, -34.5291 ],
      "max" : [ -182.435, 31.37, 35.94 ],
      "componentType" : 5126,
      "count" : 6,
      "type" : "VEC3"
    },
    {
      "bufferView" : 20,
      "componentType" : 5126,
      "count" : 6,
      "type" : "VEC3"
    },
    {
      "bufferView" : 21,
      "componentType" : 5126,
      "count" : 6,
      "type" : "VEC4"
    },
    {
      "bufferView" : 22,
      "componentType" : 5126,
      "count" : 6,
      "type" : "VEC2"
    },
    {
      "bufferView" : 23,
      "componentType" : 5126,
      "count" : 6,
      "type" : "VEC2"
    }
  ]
}
