{
  "asset" : {
    "generator" : "UE Viewer (umodel) build 1590",
    "version" : "2.0"
  },
  "scene" : 0,
  "scenes" : [
    {
      "nodes" : [ 0 ]
    }
  ],
  "nodes" : [
    {
      "name" : "CS_StadiumLightBar_Cone",
      "mesh" : 0
    }
  ],
  "materials" : [
    {
      "name" : "dummy_material_0",
      "pbrMetallicRoughness" : {
        "baseColorFactor" : [ 0.3, 0.3, 0.3, 1.0 ],
        "metallicFactor" : 0.1,
        "roughnessFactor" : 0.5
      }
    }
  ],
  "meshes" : [
    {
      "primitives" : [
        {
          "attributes" : {
            "POSITION" : 1,
            "NORMAL" : 2,
            "TANGENT" : 3,
            "TEXCOORD_0" : 4,
            "TEXCOORD_1" : 5,
            "TEXCOORD_2" : 6
          },
          "indices" : 0,
          "material" : 0
        }
      ],
      "name" : "CS_StadiumLightBar_Cone"
    }
  ],
  "buffers" : [
    {
      "uri" : "CS_StadiumLightBar_Cone.bin",
      "byteLength" : 6680
    }
  ],
  "bufferViews" : [
    {
      "buffer" : 0,
      "byteOffset" : 0,
      "byteLength" : 728
    },
    {
      "buffer" : 0,
      "byteOffset" : 728,
      "byteLength" : 1116
    },
    {
      "buffer" : 0,
      "byteOffset" : 1844,
      "byteLength" : 1116
    },
    {
      "buffer" : 0,
      "byteOffset" : 2960,
      "byteLength" : 1488
    },
    {
      "buffer" : 0,
      "byteOffset" : 4448,
      "byteLength" : 744
    },
    {
      "buffer" : 0,
      "byteOffset" : 5192,
      "byteLength" : 744
    },
    {
      "buffer" : 0,
      "byteOffset" : 5936,
      "byteLength" : 744
    }
  ],
  "accessors" : [
    {
      "bufferView" : 0,
      "componentType" : 5123,
      "count" : 363,
      "type" : "SCALAR"
    },
    {
      "bufferView" : 1,
      "min" : [ 1.9648, -109.169, -80.5772 ],
      "max" : [ 172.767, 16.3133, 120.663 ],
      "componentType" : 5126,
      "count" : 93,
      "type" : "VEC3"
    },
    {
      "bufferView" : 2,
      "componentType" : 5126,
      "count" : 93,
      "type" : "VEC3"
    },
    {
      "bufferView" : 3,
      "componentType" : 5126,
      "count" : 93,
      "type" : "VEC4"
    },
    {
      "bufferView" : 4,
      "componentType" : 5126,
      "count" : 93,
      "type" : "VEC2"
    },
    {
      "bufferView" : 5,
      "componentType" : 5126,
      "count" : 93,
      "type" : "VEC2"
    },
    {
      "bufferView" : 6,
      "componentType" : 5126,
      "count" : 93,
      "type" : "VEC2"
    }
  ]
}
