{
  "asset" : {
    "generator" : "UE Viewer (umodel) build 1590",
    "version" : "2.0"
  },
  "scene" : 0,
  "scenes" : [
    {
      "nodes" : [ 0 ]
    }
  ],
  "nodes" : [
    {
      "name" : "CS_TV_00",
      "mesh" : 0
    }
  ],
  "materials" : [
    {
      "name" : "dummy_material_0",
      "pbrMetallicRoughness" : {
        "baseColorFactor" : [ 0.3, 0.3, 0.3, 1.0 ],
        "metallicFactor" : 0.1,
        "roughnessFactor" : 0.5
      }
    },
    {
      "name" : "dummy_material_1",
      "pbrMetallicRoughness" : {
        "baseColorFactor" : [ 0.9, 0.3, 0.3, 1.0 ],
        "metallicFactor" : 0.1,
        "roughnessFactor" : 0.5
      }
    }
  ],
  "meshes" : [
    {
      "primitives" : [
        {
          "attributes" : {
            "POSITION" : 1,
            "NORMAL" : 2,
            "TANGENT" : 3,
            "COLOR_0" : 4,
            "TEXCOORD_0" : 5,
            "TEXCOORD_1" : 6
          },
          "indices" : 0,
          "material" : 0
        },
        {
          "attributes" : {
            "POSITION" : 8,
            "NORMAL" : 9,
            "TANGENT" : 10,
            "COLOR_0" : 11,
            "TEXCOORD_0" : 12,
            "TEXCOORD_1" : 13
          },
          "indices" : 7,
          "material" : 1
        }
      ],
      "name" : "CS_TV_00"
    }
  ],
  "buffers" : [
    {
      "uri" : "CS_TV_00.bin",
      "byteLength" : 307632
    }
  ],
  "bufferViews" : [
    {
      "buffer" : 0,
      "byteOffset" : 0,
      "byteLength" : 32808
    },
    {
      "buffer" : 0,
      "byteOffset" : 32808,
      "byteLength" : 54552
    },
    {
      "buffer" : 0,
      "byteOffset" : 87360,
      "byteLength" : 54552
    },
    {
      "buffer" : 0,
      "byteOffset" : 141912,
      "byteLength" : 72736
    },
    {
      "buffer" : 0,
      "byteOffset" : 214648,
      "byteLength" : 18184
    },
    {
      "buffer" : 0,
      "byteOffset" : 232832,
      "byteLength" : 36368
    },
    {
      "buffer" : 0,
      "byteOffset" : 269200,
      "byteLength" : 36368
    },
    {
      "buffer" : 0,
      "byteOffset" : 305568,
      "byteLength" : 144
    },
    {
      "buffer" : 0,
      "byteOffset" : 305712,
      "byteLength" : 384
    },
    {
      "buffer" : 0,
      "byteOffset" : 306096,
      "byteLength" : 384
    },
    {
      "buffer" : 0,
      "byteOffset" : 306480,
      "byteLength" : 512
    },
    {
      "buffer" : 0,
      "byteOffset" : 306992,
      "byteLength" : 128
    },
    {
      "buffer" : 0,
      "byteOffset" : 307120,
      "byteLength" : 256
    },
    {
      "buffer" : 0,
      "byteOffset" : 307376,
      "byteLength" : 256
    }
  ],
  "accessors" : [
    {
      "bufferView" : 0,
      "componentType" : 5123,
      "count" : 16404,
      "type" : "SCALAR"
    },
    {
      "bufferView" : 1,
      "min" : [ -14.6477, -44.0452, -14.7463 ],
      "max" : [ 14.561, 5.47107, 14.3914 ],
      "componentType" : 5126,
      "count" : 4546,
      "type" : "VEC3"
    },
    {
      "bufferView" : 2,
      "componentType" : 5126,
      "count" : 4546,
      "type" : "VEC3"
    },
    {
      "bufferView" : 3,
      "componentType" : 5126,
      "count" : 4546,
      "type" : "VEC4"
    },
    {
      "bufferView" : 4,
      "normalized" : true,
      "componentType" : 5121,
      "count" : 4546,
      "type" : "VEC4"
    },
    {
      "bufferView" : 5,
      "componentType" : 5126,
      "count" : 4546,
      "type" : "VEC2"
    },
    {
      "bufferView" : 6,
      "componentType" : 5126,
      "count" : 4546,
      "type" : "VEC2"
    },
    {
      "bufferView" : 7,
      "componentType" : 5123,
      "count" : 72,
      "type" : "SCALAR"
    },
    {
      "bufferView" : 8,
      "min" : [ -15.7005, -41.7981, -15.1912 ],
      "max" : [ 15.2147, -19.3993, 14.754 ],
      "componentType" : 5126,
      "count" : 32,
      "type" : "VEC3"
    },
    {
      "bufferView" : 9,
      "componentType" : 5126,
      "count" : 32,
      "type" : "VEC3"
    },
    {
      "bufferView" : 10,
      "componentType" : 5126,
      "count" : 32,
      "type" : "VEC4"
    },
    {
      "bufferView" : 11,
      "normalized" : true,
      "componentType" : 5121,
      "count" : 32,
      "type" : "VEC4"
    },
    {
      "bufferView" : 12,
      "componentType" : 5126,
      "count" : 32,
      "type" : "VEC2"
    },
    {
      "bufferView" : 13,
      "componentType" : 5126,
      "count" : 32,
      "type" : "VEC2"
    }
  ]
}
