{
  "asset" : {
    "generator" : "UE Viewer (umodel) build 1590",
    "version" : "2.0"
  },
  "scene" : 0,
  "scenes" : [
    {
      "nodes" : [ 0 ]
    }
  ],
  "nodes" : [
    {
      "name" : "CS_Tent_00",
      "mesh" : 0
    }
  ],
  "materials" : [
    {
      "name" : "dummy_material_0",
      "pbrMetallicRoughness" : {
        "baseColorFactor" : [ 0.3, 0.3, 0.3, 1.0 ],
        "metallicFactor" : 0.1,
        "roughnessFactor" : 0.5
      }
    },
    {
      "name" : "dummy_material_1",
      "pbrMetallicRoughness" : {
        "baseColorFactor" : [ 0.9, 0.3, 0.3, 1.0 ],
        "metallicFactor" : 0.1,
        "roughnessFactor" : 0.5
      }
    },
    {
      "name" : "dummy_material_2",
      "pbrMetallicRoughness" : {
        "baseColorFactor" : [ 0.3, 0.9, 0.3, 1.0 ],
        "metallicFactor" : 0.1,
        "roughnessFactor" : 0.5
      }
    }
  ],
  "meshes" : [
    {
      "primitives" : [
        {
          "attributes" : {
            "POSITION" : 1,
            "NORMAL" : 2,
            "TANGENT" : 3,
            "TEXCOORD_0" : 4,
            "TEXCOORD_1" : 5
          },
          "indices" : 0,
          "material" : 0
        },
        {
          "attributes" : {
            "POSITION" : 7,
            "NORMAL" : 8,
            "TANGENT" : 9,
            "TEXCOORD_0" : 10,
            "TEXCOORD_1" : 11
          },
          "indices" : 6,
          "material" : 1
        },
        {
          "attributes" : {
            "POSITION" : 13,
            "NORMAL" : 14,
            "TANGENT" : 15,
            "TEXCOORD_0" : 16,
            "TEXCOORD_1" : 17
          },
          "indices" : 12,
          "material" : 2
        }
      ],
      "name" : "CS_Tent_00"
    }
  ],
  "buffers" : [
    {
      "uri" : "CS_Tent_00.bin",
      "byteLength" : 211012
    }
  ],
  "bufferViews" : [
    {
      "buffer" : 0,
      "byteOffset" : 0,
      "byteLength" : 12828
    },
    {
      "buffer" : 0,
      "byteOffset" : 12828,
      "byteLength" : 28824
    },
    {
      "buffer" : 0,
      "byteOffset" : 41652,
      "byteLength" : 28824
    },
    {
      "buffer" : 0,
      "byteOffset" : 70476,
      "byteLength" : 38432
    },
    {
      "buffer" : 0,
      "byteOffset" : 108908,
      "byteLength" : 19216
    },
    {
      "buffer" : 0,
      "byteOffset" : 128124,
      "byteLength" : 19216
    },
    {
      "buffer" : 0,
      "byteOffset" : 147340,
      "byteLength" : 144
    },
    {
      "buffer" : 0,
      "byteOffset" : 147484,
      "byteLength" : 432
    },
    {
      "buffer" : 0,
      "byteOffset" : 147916,
      "byteLength" : 432
    },
    {
      "buffer" : 0,
      "byteOffset" : 148348,
      "byteLength" : 576
    },
    {
      "buffer" : 0,
      "byteOffset" : 148924,
      "byteLength" : 288
    },
    {
      "buffer" : 0,
      "byteOffset" : 149212,
      "byteLength" : 288
    },
    {
      "buffer" : 0,
      "byteOffset" : 149500,
      "byteLength" : 5568
    },
    {
      "buffer" : 0,
      "byteOffset" : 155068,
      "byteLength" : 11988
    },
    {
      "buffer" : 0,
      "byteOffset" : 167056,
      "byteLength" : 11988
    },
    {
      "buffer" : 0,
      "byteOffset" : 179044,
      "byteLength" : 15984
    },
    {
      "buffer" : 0,
      "byteOffset" : 195028,
      "byteLength" : 7992
    },
    {
      "buffer" : 0,
      "byteOffset" : 203020,
      "byteLength" : 7992
    }
  ],
  "accessors" : [
    {
      "bufferView" : 0,
      "componentType" : 5123,
      "count" : 6414,
      "type" : "SCALAR"
    },
    {
      "bufferView" : 1,
      "min" : [ -18.2877, -2.10907, -26.567 ],
      "max" : [ 19.6247, 23.0734, 20.8125 ],
      "componentType" : 5126,
      "count" : 2402,
      "type" : "VEC3"
    },
    {
      "bufferView" : 2,
      "componentType" : 5126,
      "count" : 2402,
      "type" : "VEC3"
    },
    {
      "bufferView" : 3,
      "componentType" : 5126,
      "count" : 2402,
      "type" : "VEC4"
    },
    {
      "bufferView" : 4,
      "componentType" : 5126,
      "count" : 2402,
      "type" : "VEC2"
    },
    {
      "bufferView" : 5,
      "componentType" : 5126,
      "count" : 2402,
      "type" : "VEC2"
    },
    {
      "bufferView" : 6,
      "componentType" : 5123,
      "count" : 72,
      "type" : "SCALAR"
    },
    {
      "bufferView" : 7,
      "min" : [ -10.0717, -0.158613, -23.9162 ],
      "max" : [ 11.7843, 10.5592, 20.782 ],
      "componentType" : 5126,
      "count" : 36,
      "type" : "VEC3"
    },
    {
      "bufferView" : 8,
      "componentType" : 5126,
      "count" : 36,
      "type" : "VEC3"
    },
    {
      "bufferView" : 9,
      "componentType" : 5126,
      "count" : 36,
      "type" : "VEC4"
    },
    {
      "bufferView" : 10,
      "componentType" : 5126,
      "count" : 36,
      "type" : "VEC2"
    },
    {
      "bufferView" : 11,
      "componentType" : 5126,
      "count" : 36,
      "type" : "VEC2"
    },
    {
      "bufferView" : 12,
      "componentType" : 5123,
      "count" : 2784,
      "type" : "SCALAR"
    },
    {
      "bufferView" : 13,
      "min" : [ -11.6261, 6.49808, -24.839 ],
      "max" : [ 13.2409, 19.1216, 20.5137 ],
      "componentType" : 5126,
      "count" : 999,
      "type" : "VEC3"
    },
    {
      "bufferView" : 14,
      "componentType" : 5126,
      "count" : 999,
      "type" : "VEC3"
    },
    {
      "bufferView" : 15,
      "componentType" : 5126,
      "count" : 999,
      "type" : "VEC4"
    },
    {
      "bufferView" : 16,
      "componentType" : 5126,
      "count" : 999,
      "type" : "VEC2"
    },
    {
      "bufferView" : 17,
      "componentType" : 5126,
      "count" : 999,
      "type" : "VEC2"
    }
  ]
}
