{
  "asset" : {
    "generator" : "UE Viewer (umodel) build 1590",
    "version" : "2.0"
  },
  "scene" : 0,
  "scenes" : [
    {
      "nodes" : [ 0 ]
    }
  ],
  "nodes" : [
    {
      "name" : "OOB_Lights_00",
      "mesh" : 0
    }
  ],
  "materials" : [
    {
      "name" : "dummy_material_0",
      "pbrMetallicRoughness" : {
        "baseColorFactor" : [ 0.3, 0.3, 0.3, 1.0 ],
        "metallicFactor" : 0.1,
        "roughnessFactor" : 0.5
      }
    },
    {
      "name" : "dummy_material_1",
      "pbrMetallicRoughness" : {
        "baseColorFactor" : [ 0.9, 0.3, 0.3, 1.0 ],
        "metallicFactor" : 0.1,
        "roughnessFactor" : 0.5
      }
    }
  ],
  "meshes" : [
    {
      "primitives" : [
        {
          "attributes" : {
            "POSITION" : 1,
            "NORMAL" : 2,
            "TANGENT" : 3,
            "TEXCOORD_0" : 4,
            "TEXCOORD_1" : 5
          },
          "indices" : 0,
          "material" : 0
        },
        {
          "attributes" : {
            "POSITION" : 7,
            "NORMAL" : 8,
            "TANGENT" : 9,
            "TEXCOORD_0" : 10,
            "TEXCOORD_1" : 11
          },
          "indices" : 6,
          "material" : 1
        }
      ],
      "name" : "OOB_Lights_00"
    }
  ],
  "buffers" : [
    {
      "uri" : "OOB_Lights_00.bin",
      "byteLength" : 144044
    }
  ],
  "bufferViews" : [
    {
      "buffer" : 0,
      "byteOffset" : 0,
      "byteLength" : 11172
    },
    {
      "buffer" : 0,
      "byteOffset" : 11172,
      "byteLength" : 23652
    },
    {
      "buffer" : 0,
      "byteOffset" : 34824,
      "byteLength" : 23652
    },
    {
      "buffer" : 0,
      "byteOffset" : 58476,
      "byteLength" : 31536
    },
    {
      "buffer" : 0,
      "byteOffset" : 90012,
      "byteLength" : 15768
    },
    {
      "buffer" : 0,
      "byteOffset" : 105780,
      "byteLength" : 15768
    },
    {
      "buffer" : 0,
      "byteOffset" : 121548,
      "byteLength" : 1944
    },
    {
      "buffer" : 0,
      "byteOffset" : 123492,
      "byteLength" : 4404
    },
    {
      "buffer" : 0,
      "byteOffset" : 127896,
      "byteLength" : 4404
    },
    {
      "buffer" : 0,
      "byteOffset" : 132300,
      "byteLength" : 5872
    },
    {
      "buffer" : 0,
      "byteOffset" : 138172,
      "byteLength" : 2936
    },
    {
      "buffer" : 0,
      "byteOffset" : 141108,
      "byteLength" : 2936
    }
  ],
  "accessors" : [
    {
      "bufferView" : 0,
      "componentType" : 5123,
      "count" : 5586,
      "type" : "SCALAR"
    },
    {
      "bufferView" : 1,
      "min" : [ -0.732234, -10.3657, -7.62214 ],
      "max" : [ 2.18623, 0.0130322, 7.72216 ],
      "componentType" : 5126,
      "count" : 1971,
      "type" : "VEC3"
    },
    {
      "bufferView" : 2,
      "componentType" : 5126,
      "count" : 1971,
      "type" : "VEC3"
    },
    {
      "bufferView" : 3,
      "componentType" : 5126,
      "count" : 1971,
      "type" : "VEC4"
    },
    {
      "bufferView" : 4,
      "componentType" : 5126,
      "count" : 1971,
      "type" : "VEC2"
    },
    {
      "bufferView" : 5,
      "componentType" : 5126,
      "count" : 1971,
      "type" : "VEC2"
    },
    {
      "bufferView" : 6,
      "componentType" : 5123,
      "count" : 972,
      "type" : "SCALAR"
    },
    {
      "bufferView" : 7,
      "min" : [ 1.39183, -10.0574, -4.33337 ],
      "max" : [ 1.92217, -3.7856, 4.39602 ],
      "componentType" : 5126,
      "count" : 367,
      "type" : "VEC3"
    },
    {
      "bufferView" : 8,
      "componentType" : 5126,
      "count" : 367,
      "type" : "VEC3"
    },
    {
      "bufferView" : 9,
      "componentType" : 5126,
      "count" : 367,
      "type" : "VEC4"
    },
    {
      "bufferView" : 10,
      "componentType" : 5126,
      "count" : 367,
      "type" : "VEC2"
    },
    {
      "bufferView" : 11,
      "componentType" : 5126,
      "count" : 367,
      "type" : "VEC2"
    }
  ]
}
