{
  "asset" : {
    "generator" : "UE Viewer (umodel) build 1590",
    "version" : "2.0"
  },
  "scene" : 0,
  "scenes" : [
    {
      "nodes" : [ 0 ]
    }
  ],
  "nodes" : [
    {
      "name" : "SC_TV_00",
      "mesh" : 0
    }
  ],
  "materials" : [
    {
      "name" : "dummy_material_0",
      "pbrMetallicRoughness" : {
        "baseColorFactor" : [ 0.3, 0.3, 0.3, 1.0 ],
        "metallicFactor" : 0.1,
        "roughnessFactor" : 0.5
      }
    },
    {
      "name" : "dummy_material_1",
      "pbrMetallicRoughness" : {
        "baseColorFactor" : [ 0.9, 0.3, 0.3, 1.0 ],
        "metallicFactor" : 0.1,
        "roughnessFactor" : 0.5
      }
    }
  ],
  "meshes" : [
    {
      "primitives" : [
        {
          "attributes" : {
            "POSITION" : 1,
            "NORMAL" : 2,
            "TANGENT" : 3,
            "TEXCOORD_0" : 4,
            "TEXCOORD_1" : 5
          },
          "indices" : 0,
          "material" : 0
        },
        {
          "attributes" : {
            "POSITION" : 7,
            "NORMAL" : 8,
            "TANGENT" : 9,
            "TEXCOORD_0" : 10,
            "TEXCOORD_1" : 11
          },
          "indices" : 6,
          "material" : 1
        }
      ],
      "name" : "SC_TV_00"
    }
  ],
  "buffers" : [
    {
      "uri" : "SC_TV_00.bin",
      "byteLength" : 19344
    }
  ],
  "bufferViews" : [
    {
      "buffer" : 0,
      "byteOffset" : 0,
      "byteLength" : 192
    },
    {
      "buffer" : 0,
      "byteOffset" : 192,
      "byteLength" : 312
    },
    {
      "buffer" : 0,
      "byteOffset" : 504,
      "byteLength" : 312
    },
    {
      "buffer" : 0,
      "byteOffset" : 816,
      "byteLength" : 416
    },
    {
      "buffer" : 0,
      "byteOffset" : 1232,
      "byteLength" : 208
    },
    {
      "buffer" : 0,
      "byteOffset" : 1440,
      "byteLength" : 208
    },
    {
      "buffer" : 0,
      "byteOffset" : 1648,
      "byteLength" : 1848
    },
    {
      "buffer" : 0,
      "byteOffset" : 3496,
      "byteLength" : 3396
    },
    {
      "buffer" : 0,
      "byteOffset" : 6892,
      "byteLength" : 3396
    },
    {
      "buffer" : 0,
      "byteOffset" : 10288,
      "byteLength" : 4528
    },
    {
      "buffer" : 0,
      "byteOffset" : 14816,
      "byteLength" : 2264
    },
    {
      "buffer" : 0,
      "byteOffset" : 17080,
      "byteLength" : 2264
    }
  ],
  "accessors" : [
    {
      "bufferView" : 0,
      "componentType" : 5123,
      "count" : 96,
      "type" : "SCALAR"
    },
    {
      "bufferView" : 1,
      "min" : [ -23.3715, -9.85563, -4.89879 ],
      "max" : [ 23.3715, 10.0018, 3.01334 ],
      "componentType" : 5126,
      "count" : 26,
      "type" : "VEC3"
    },
    {
      "bufferView" : 2,
      "componentType" : 5126,
      "count" : 26,
      "type" : "VEC3"
    },
    {
      "bufferView" : 3,
      "componentType" : 5126,
      "count" : 26,
      "type" : "VEC4"
    },
    {
      "bufferView" : 4,
      "componentType" : 5126,
      "count" : 26,
      "type" : "VEC2"
    },
    {
      "bufferView" : 5,
      "componentType" : 5126,
      "count" : 26,
      "type" : "VEC2"
    },
    {
      "bufferView" : 6,
      "componentType" : 5123,
      "count" : 924,
      "type" : "SCALAR"
    },
    {
      "bufferView" : 7,
      "min" : [ -24.4228, -12.4813, -5.53209 ],
      "max" : [ 24.4228, 12.4813, 5.53207 ],
      "componentType" : 5126,
      "count" : 283,
      "type" : "VEC3"
    },
    {
      "bufferView" : 8,
      "componentType" : 5126,
      "count" : 283,
      "type" : "VEC3"
    },
    {
      "bufferView" : 9,
      "componentType" : 5126,
      "count" : 283,
      "type" : "VEC4"
    },
    {
      "bufferView" : 10,
      "componentType" : 5126,
      "count" : 283,
      "type" : "VEC2"
    },
    {
      "bufferView" : 11,
      "componentType" : 5126,
      "count" : 283,
      "type" : "VEC2"
    }
  ]
}
