{
  "asset" : {
    "generator" : "UE Viewer (umodel) build 1590",
    "version" : "2.0"
  },
  "scene" : 0,
  "scenes" : [
    {
      "nodes" : [ 0 ]
    }
  ],
  "nodes" : [
    {
      "name" : "BoostPads_02_Combined",
      "mesh" : 0
    }
  ],
  "materials" : [
    {
      "name" : "dummy_material_0",
      "pbrMetallicRoughness" : {
        "baseColorFactor" : [ 0.3, 0.3, 0.3, 1.0 ],
        "metallicFactor" : 0.1,
        "roughnessFactor" : 0.5
      }
    }
  ],
  "meshes" : [
    {
      "primitives" : [
        {
          "attributes" : {
            "POSITION" : 1,
            "NORMAL" : 2,
            "TANGENT" : 3,
            "COLOR_0" : 4,
            "TEXCOORD_0" : 5
          },
          "indices" : 0,
          "material" : 0
        }
      ],
      "name" : "BoostPads_02_Combined"
    }
  ],
  "buffers" : [
    {
      "uri" : "BoostPads_02_Combined.bin",
      "byteLength" : 439616
    }
  ],
  "bufferViews" : [
    {
      "buffer" : 0,
      "byteOffset" : 0,
      "byteLength" : 53568
    },
    {
      "buffer" : 0,
      "byteOffset" : 53568,
      "byteLength" : 89088
    },
    {
      "buffer" : 0,
      "byteOffset" : 142656,
      "byteLength" : 89088
    },
    {
      "buffer" : 0,
      "byteOffset" : 231744,
      "byteLength" : 118784
    },
    {
      "buffer" : 0,
      "byteOffset" : 350528,
      "byteLength" : 29696
    },
    {
      "buffer" : 0,
      "byteOffset" : 380224,
      "byteLength" : 59392
    }
  ],
  "accessors" : [
    {
      "bufferView" : 0,
      "componentType" : 5123,
      "count" : 26784,
      "type" : "SCALAR"
    },
    {
      "bufferView" : 1,
      "min" : [ -20.9586, -0.0295001, -10.7601 ],
      "max" : [ 20.9586, 0.0295001, 10.7601 ],
      "componentType" : 5126,
      "count" : 7424,
      "type" : "VEC3"
    },
    {
      "bufferView" : 2,
      "componentType" : 5126,
      "count" : 7424,
      "type" : "VEC3"
    },
    {
      "bufferView" : 3,
      "componentType" : 5126,
      "count" : 7424,
      "type" : "VEC4"
    },
    {
      "bufferView" : 4,
      "normalized" : true,
      "componentType" : 5121,
      "count" : 7424,
      "type" : "VEC4"
    },
    {
      "bufferView" : 5,
      "componentType" : 5126,
      "count" : 7424,
      "type" : "VEC2"
    }
  ]
}
