{
  "asset" : {
    "generator" : "UE Viewer (umodel) build 1590",
    "version" : "2.0"
  },
  "scene" : 0,
  "scenes" : [
    {
      "nodes" : [ 0 ]
    }
  ],
  "nodes" : [
    {
      "name" : "Drone_SK",
      "mesh" : 0,
      "skin" : 0,
      "children" : [ 1 ]
    },
    {
      "name" : "root_jnt",
      "children" : [ 2 ],
      "translation" : [ 0, 0, -0 ],
      "rotation" : [ -0, -0, 0, -1 ]
    },
    {
      "name" : "body_JNT",
      "children" : [ 3, 4 ],
      "translation" : [ 0, 0.296341, -1.50185e-08 ],
      "rotation" : [ 0, 0, -0, 1 ]
    },
    {
      "name" : "light_left_jnt",
      "translation" : [ 0.918728, -0.201854, -0.329581 ],
      "rotation" : [ 0, 0, -0, 1 ]
    },
    {
      "name" : "light_right_jnt",
      "translation" : [ 0.918728, -0.201854, 0.329581 ],
      "rotation" : [ 0, 0, -0, 1 ]
    }
  ],
  "skins" : [
    {
      "inverseBindMatrices" : 0,
      "skeleton" : 1,
      "joints" : [
        1,2,3,4
      ]
    }
  ],
  "materials" : [
    {
      "name" : "MIC_dRONE",
      "pbrMetallicRoughness" : {
        "baseColorFactor" : [ 0.3, 0.3, 0.3, 1.0 ],
        "metallicFactor" : 0.1,
        "roughnessFactor" : 0.5
      }
    }
  ],
  "meshes" : [
    {
      "primitives" : [
        {
          "attributes" : {
            "POSITION" : 2,
            "NORMAL" : 3,
            "TANGENT" : 4,
            "JOINTS_0" : 5,
            "WEIGHTS_0" : 6,
            "TEXCOORD_0" : 7
          },
          "indices" : 1,
          "material" : 0
        }
      ],
      "name" : "Drone_SK"
    }
  ],
  "buffers" : [
    {
      "uri" : "Drone_SK.bin",
      "byteLength" : 316560
    }
  ],
  "bufferViews" : [
    {
      "buffer" : 0,
      "byteOffset" : 0,
      "byteLength" : 256
    },
    {
      "buffer" : 0,
      "byteOffset" : 256,
      "byteLength" : 40724
    },
    {
      "buffer" : 0,
      "byteOffset" : 40980,
      "byteLength" : 55116
    },
    {
      "buffer" : 0,
      "byteOffset" : 96096,
      "byteLength" : 55116
    },
    {
      "buffer" : 0,
      "byteOffset" : 151212,
      "byteLength" : 73488
    },
    {
      "buffer" : 0,
      "byteOffset" : 224700,
      "byteLength" : 36744
    },
    {
      "buffer" : 0,
      "byteOffset" : 261444,
      "byteLength" : 18372
    },
    {
      "buffer" : 0,
      "byteOffset" : 279816,
      "byteLength" : 36744
    }
  ],
  "accessors" : [
    {
      "bufferView" : 0,
      "componentType" : 5126,
      "count" : 4,
      "type" : "MAT4"
    },
    {
      "bufferView" : 1,
      "componentType" : 5123,
      "count" : 20361,
      "type" : "SCALAR"
    },
    {
      "bufferView" : 2,
      "min" : [ -0.590673, -0.197305, -0.521699 ],
      "max" : [ 1.10478, 0.789987, 0.521699 ],
      "componentType" : 5126,
      "count" : 4593,
      "type" : "VEC3"
    },
    {
      "bufferView" : 3,
      "componentType" : 5126,
      "count" : 4593,
      "type" : "VEC3"
    },
    {
      "bufferView" : 4,
      "componentType" : 5126,
      "count" : 4593,
      "type" : "VEC4"
    },
    {
      "bufferView" : 5,
      "componentType" : 5123,
      "count" : 4593,
      "type" : "VEC4"
    },
    {
      "bufferView" : 6,
      "normalized" : true,
      "componentType" : 5121,
      "count" : 4593,
      "type" : "VEC4"
    },
    {
      "bufferView" : 7,
      "componentType" : 5126,
      "count" : 4593,
      "type" : "VEC2"
    }
  ]
}
